<svg width="25" height="24" viewBox="0 0 25 24" fill="none" xmlns="http://www.w3.org/2000/svg">
<path d="M15.5009 22.75H9.50092C4.07092 22.75 1.75092 20.43 1.75092 15V9C1.75092 3.57 4.07092 1.25 9.50092 1.25H15.5009C20.9309 1.25 23.2509 3.57 23.2509 9V15C23.2509 20.43 20.9309 22.75 15.5009 22.75ZM9.50092 2.75C4.89092 2.75 3.25092 4.39 3.25092 9V15C3.25092 19.61 4.89092 21.25 9.50092 21.25H15.5009C20.1109 21.25 21.7509 19.61 21.7509 15V9C21.7509 4.39 20.1109 2.75 15.5009 2.75H9.50092Z" fill="url(#paint0_linear_1015_71823)"/>
<path d="M7.83091 15.24C7.67091 15.24 7.51091 15.19 7.37091 15.08C7.04091 14.83 6.98091 14.36 7.23091 14.03L9.61091 10.94C9.90091 10.57 10.3109 10.33 10.7809 10.27C11.2409 10.21 11.7109 10.34 12.0809 10.63L13.9109 12.07C13.9809 12.13 14.0509 12.13 14.1009 12.12C14.1409 12.12 14.2109 12.1 14.2709 12.02L16.5809 9.04001C16.8309 8.71001 17.3109 8.65001 17.6309 8.91001C17.9609 9.16001 18.0209 9.63001 17.7609 9.96001L15.4509 12.94C15.1609 13.31 14.7509 13.55 14.2809 13.6C13.8109 13.66 13.3509 13.53 12.9809 13.24L11.1509 11.8C11.0809 11.74 11.0009 11.74 10.9609 11.75C10.9209 11.75 10.8509 11.77 10.7909 11.85L8.41091 14.94C8.28091 15.14 8.06091 15.24 7.83091 15.24Z" fill="url(#paint1_linear_1015_71823)"/>
<defs>
<linearGradient id="paint0_linear_1015_71823" x1="1.46297" y1="-0.850576" x2="25.1114" y2="-0.673453" gradientUnits="userSpaceOnUse">
<stop offset="0.129808" stop-color="#7400E8"/>
<stop offset="0.365385" stop-color="#BE67D5"/>
<stop offset="0.629808" stop-color="#BC79FF"/>
<stop offset="1" stop-color="#1E00FF"/>
</linearGradient>
<linearGradient id="paint1_linear_1015_71823" x1="6.93171" y1="8.11377" x2="18.8602" y2="8.26304" gradientUnits="userSpaceOnUse">
<stop offset="0.129808" stop-color="#7400E8"/>
<stop offset="0.365385" stop-color="#BE67D5"/>
<stop offset="0.629808" stop-color="#BC79FF"/>
<stop offset="1" stop-color="#1E00FF"/>
</linearGradient>
</defs>
</svg>
