<svg width="38" height="38" viewBox="0 0 38 38" fill="none" xmlns="http://www.w3.org/2000/svg">
<rect width="38" height="38" rx="10" fill="#17171C"/>
<g clip-path="url(#clip0_1015_44909)">
<path d="M4 10.75C4 7.02208 7.02208 4 10.75 4C14.4779 4 17.5 7.02208 17.5 10.75V15.25C17.5 15.7731 17.5 16.0347 17.4425 16.2493C17.2865 16.8316 16.8316 17.2865 16.2493 17.4425C16.0347 17.5 15.7731 17.5 15.25 17.5H10.75C7.02208 17.5 4 14.4779 4 10.75Z" fill="url(#paint0_linear_1015_44909)"/>
<path d="M20.5 22.75C20.5 22.2269 20.5 21.9653 20.5575 21.7507C20.7135 21.1684 21.1684 20.7135 21.7507 20.5575C21.9653 20.5 22.2269 20.5 22.75 20.5H27.25C30.9779 20.5 34 23.5221 34 27.25C34 30.9779 30.9779 34 27.25 34C23.5221 34 20.5 30.9779 20.5 27.25V22.75Z" fill="url(#paint1_linear_1015_44909)"/>
<path d="M4 27.25C4 23.5221 7.02208 20.5 10.75 20.5H14.8C15.7451 20.5 16.2176 20.5 16.5786 20.6839C16.8961 20.8457 17.1543 21.1039 17.3161 21.4214C17.5 21.7824 17.5 22.2549 17.5 23.2V27.25C17.5 30.9779 14.4779 34 10.75 34C7.02208 34 4 30.9779 4 27.25Z" fill="url(#paint2_linear_1015_44909)"/>
<path d="M20.5 10.75C20.5 7.02208 23.5221 4 27.25 4C30.9779 4 34 7.02208 34 10.75C34 14.4779 30.9779 17.5 27.25 17.5H22.4286C22.2047 17.5 22.0927 17.5 21.9986 17.4894C21.2162 17.4012 20.5988 16.7838 20.5106 16.0014C20.5 15.9073 20.5 15.7953 20.5 15.5714V10.75Z" fill="url(#paint3_linear_1015_44909)"/>
</g>
<defs>
<linearGradient id="paint0_linear_1015_44909" x1="19" y1="4" x2="19" y2="34" gradientUnits="userSpaceOnUse">
<stop stop-color="#D8B2FF"/>
<stop offset="1" stop-color="#AF62FD"/>
</linearGradient>
<linearGradient id="paint1_linear_1015_44909" x1="19" y1="4" x2="19" y2="34" gradientUnits="userSpaceOnUse">
<stop stop-color="#D8B2FF"/>
<stop offset="1" stop-color="#AF62FD"/>
</linearGradient>
<linearGradient id="paint2_linear_1015_44909" x1="19" y1="4" x2="19" y2="34" gradientUnits="userSpaceOnUse">
<stop stop-color="#D8B2FF"/>
<stop offset="1" stop-color="#AF62FD"/>
</linearGradient>
<linearGradient id="paint3_linear_1015_44909" x1="19" y1="4" x2="19" y2="34" gradientUnits="userSpaceOnUse">
<stop stop-color="#D8B2FF"/>
<stop offset="1" stop-color="#AF62FD"/>
</linearGradient>
<clipPath id="clip0_1015_44909">
<path d="M4 9C4 6.23858 6.23858 4 9 4H29C31.7614 4 34 6.23858 34 9V29C34 31.7614 31.7614 34 29 34H9C6.23858 34 4 31.7614 4 29V9Z" fill="white"/>
</clipPath>
</defs>
</svg>
