<svg width="38" height="38" viewBox="0 0 38 38" fill="none" xmlns="http://www.w3.org/2000/svg">
<rect width="38" height="38" rx="10" fill="#1D1C20"/>
<path d="M17.9643 27.6244L19 28.3393L19.5775 28.7105C19.8517 28.8759 20.1803 28.9259 20.4912 28.8494C20.8022 28.773 21.0702 28.5763 21.2364 28.3026C21.3178 28.1667 21.3716 28.016 21.3947 27.8592C21.4178 27.7024 21.4098 27.5426 21.371 27.389C21.3323 27.2353 21.2636 27.0908 21.169 26.9637C21.0743 26.8366 20.9555 26.7294 20.8194 26.6482L19.4995 25.9104" stroke="url(#paint0_linear_1172_105580)" stroke-linecap="round" stroke-linejoin="round"/>
<path d="M18.0605 12.5334C17.4521 12.1638 16.7631 11.9474 16.0527 11.9027C15.3423 11.858 14.6316 11.9863 13.9817 12.2767C13.2732 12.5922 12.4919 12.7078 11.7224 12.6113L9.66928 12.3546L7.74449 11.3831L5.45306 16.8825L7.24496 18.4086L9.87551 21.699" stroke="url(#paint1_linear_1172_105580)" stroke-linecap="round" stroke-linejoin="round"/>
<path d="M19.6278 25.9844L21.4609 27.0201C21.722 27.1839 22.034 27.2464 22.338 27.1958C22.6421 27.1451 22.917 26.9848 23.1108 26.7452C23.2122 26.6098 23.2841 26.4547 23.3221 26.2899C23.3601 26.125 23.3632 25.9541 23.3313 25.788C23.2994 25.6219 23.2331 25.4643 23.1367 25.3253C23.0403 25.1863 22.916 25.0689 22.7716 24.9808L23.3995 25.3566C23.6602 25.5214 23.9726 25.5844 24.2768 25.5337C24.5811 25.483 24.8561 25.3221 25.0493 25.0816C25.1542 24.9454 25.2288 24.7885 25.2682 24.6212C25.3077 24.4539 25.311 24.2802 25.2781 24.1115C25.2451 23.9428 25.1766 23.7831 25.0771 23.643C24.9776 23.5029 24.8494 23.3856 24.701 23.2989L25.3335 23.6746C25.5942 23.8395 25.9065 23.9025 26.2108 23.8518C26.5151 23.8011 26.7901 23.6402 26.9833 23.3997C27.085 23.264 27.157 23.1084 27.1946 22.943C27.2323 22.7777 27.2348 22.6063 27.202 22.4399C27.1691 22.2736 27.1017 22.116 27.004 21.9773C26.9063 21.8387 26.7806 21.7222 26.635 21.6353L26.4333 21.5115L23.1474 19.573" stroke="url(#paint2_linear_1172_105580)" stroke-linecap="round" stroke-linejoin="round"/>
<path d="M28.9127 10.9802L32.5469 18.2578L27.0475 21.6537L20.5765 18.2578C19.7883 18.0195 19.1008 17.3962 18.9496 16.0076L15.6225 16.3101C15.3051 16.3394 14.9873 16.2602 14.7209 16.0854C14.4544 15.9106 14.2553 15.6505 14.1559 15.3477C14.0962 15.1699 14.0726 14.982 14.0865 14.795C14.1004 14.608 14.1516 14.4257 14.237 14.2588C14.3224 14.0918 14.4403 13.9436 14.5838 13.8229C14.7273 13.7022 14.8934 13.6114 15.0725 13.5558L19.9028 12.0297C20.3598 11.8847 20.8444 11.8485 21.3178 11.9241C21.7913 11.9997 22.2405 12.1849 22.6296 12.4651L22.8038 12.5888C23.2262 12.8887 23.7221 13.0684 24.2386 13.1087C24.7551 13.1491 25.2729 13.0486 25.7368 12.8179L28.9127 10.9802Z" stroke="url(#paint3_linear_1172_105580)" stroke-linecap="round" stroke-linejoin="round"/>
<path d="M23.3949 18.0056C22.6308 18.2937 21.811 18.4034 20.9981 18.3264L20.5765 18.2577" fill="#FAFAFA"/>
<path d="M23.3949 18.0056C22.6308 18.2937 21.811 18.4034 20.9981 18.3264L20.5765 18.2577" stroke="url(#paint4_linear_1172_105580)" stroke-linecap="round" stroke-linejoin="round"/>
<path d="M9.94428 23.4911C9.7176 23.2635 9.59033 22.9554 9.59033 22.6341C9.59033 22.3129 9.7176 22.0048 9.94428 21.7772L10.5171 21.2043C10.7448 20.9776 11.0529 20.8503 11.3741 20.8503C11.6954 20.8503 12.0035 20.9776 12.2311 21.2043C12.4578 21.4319 12.5851 21.7401 12.5851 22.0613C12.5851 22.3825 12.4578 22.6907 12.2311 22.9183L11.6583 23.4911C11.4307 23.7178 11.1225 23.8451 10.8013 23.8451C10.48 23.8451 10.1719 23.7178 9.94428 23.4911Z" stroke="url(#paint5_linear_1172_105580)" stroke-linecap="round" stroke-linejoin="round"/>
<path d="M11.6582 25.2007C11.4318 24.9739 11.3046 24.6665 11.3046 24.346C11.3046 24.0256 11.4318 23.7182 11.6582 23.4913L12.7856 22.3502C12.8977 22.2369 13.0311 22.1469 13.1782 22.0855C13.3253 22.0241 13.4831 21.9924 13.6426 21.9924C13.802 21.9924 13.9598 22.0241 14.1069 22.0855C14.254 22.1469 14.3875 22.2369 14.4995 22.3502C14.7259 22.577 14.8531 22.8844 14.8531 23.2049C14.8531 23.5254 14.7259 23.8328 14.4995 24.0596L13.3584 25.2007C13.1326 25.4255 12.8269 25.5516 12.5083 25.5516C12.1897 25.5516 11.884 25.4255 11.6582 25.2007Z" stroke="url(#paint6_linear_1172_105580)" stroke-linecap="round" stroke-linejoin="round"/>
<path d="M13.3724 26.9143C13.1458 26.6867 13.0185 26.3785 13.0185 26.0573C13.0185 25.7361 13.1458 25.4279 13.3724 25.2003L15.0773 23.4909C15.3049 23.2642 15.613 23.137 15.9343 23.137C16.2555 23.137 16.5636 23.2642 16.7912 23.4909C17.0177 23.7177 17.1448 24.0251 17.1448 24.3456C17.1448 24.6661 17.0177 24.9735 16.7912 25.2003L15.0773 26.9143C14.8506 27.1393 14.5442 27.2656 14.2249 27.2656C13.9055 27.2656 13.5991 27.1393 13.3724 26.9143Z" stroke="url(#paint7_linear_1172_105580)" stroke-linecap="round" stroke-linejoin="round"/>
<path d="M15.0771 28.6283C14.8504 28.4006 14.7231 28.0925 14.7231 27.7713C14.7231 27.45 14.8504 27.1419 15.0771 26.9143L17.3685 24.6228C17.5953 24.3964 17.9027 24.2693 18.2232 24.2693C18.5437 24.2693 18.8511 24.3964 19.0779 24.6228C19.1913 24.7349 19.2812 24.8684 19.3427 25.0155C19.4041 25.1626 19.4357 25.3204 19.4357 25.4798C19.4357 25.6392 19.4041 25.7971 19.3427 25.9442C19.2812 26.0913 19.1913 26.2247 19.0779 26.3368L16.7865 28.6283C16.5591 28.8535 16.2519 28.9799 15.9318 28.9799C15.6117 28.9799 15.3045 28.8535 15.0771 28.6283Z" stroke="url(#paint8_linear_1172_105580)" stroke-linecap="round" stroke-linejoin="round"/>
<path d="M22.7625 24.9757L21.3785 24.1462" stroke="url(#paint9_linear_1172_105580)" stroke-linecap="round" stroke-linejoin="round"/>
<path d="M22.6204 22.0706L24.5406 23.2163" stroke="url(#paint10_linear_1172_105580)" stroke-linecap="round" stroke-linejoin="round"/>
<defs>
<linearGradient id="paint0_linear_1172_105580" x1="19.6859" y1="25.9104" x2="19.6859" y2="28.8844" gradientUnits="userSpaceOnUse">
<stop stop-color="#D9B4FF"/>
<stop offset="1" stop-color="#AE5FFD"/>
</linearGradient>
<linearGradient id="paint1_linear_1172_105580" x1="11.7568" y1="11.3831" x2="11.7568" y2="21.699" gradientUnits="userSpaceOnUse">
<stop stop-color="#D9B4FF"/>
<stop offset="1" stop-color="#AE5FFD"/>
</linearGradient>
<linearGradient id="paint2_linear_1172_105580" x1="23.4263" y1="19.573" x2="23.4263" y2="27.2129" gradientUnits="userSpaceOnUse">
<stop stop-color="#D9B4FF"/>
<stop offset="1" stop-color="#AE5FFD"/>
</linearGradient>
<linearGradient id="paint3_linear_1172_105580" x1="23.3148" y1="10.9802" x2="23.3148" y2="21.6537" gradientUnits="userSpaceOnUse">
<stop stop-color="#D9B4FF"/>
<stop offset="1" stop-color="#AE5FFD"/>
</linearGradient>
<linearGradient id="paint4_linear_1172_105580" x1="21.9857" y1="18.0056" x2="21.9857" y2="18.3503" gradientUnits="userSpaceOnUse">
<stop stop-color="#D9B4FF"/>
<stop offset="1" stop-color="#AE5FFD"/>
</linearGradient>
<linearGradient id="paint5_linear_1172_105580" x1="11.0877" y1="20.8503" x2="11.0877" y2="23.8451" gradientUnits="userSpaceOnUse">
<stop stop-color="#D9B4FF"/>
<stop offset="1" stop-color="#AE5FFD"/>
</linearGradient>
<linearGradient id="paint6_linear_1172_105580" x1="13.0789" y1="21.9924" x2="13.0789" y2="25.5516" gradientUnits="userSpaceOnUse">
<stop stop-color="#D9B4FF"/>
<stop offset="1" stop-color="#AE5FFD"/>
</linearGradient>
<linearGradient id="paint7_linear_1172_105580" x1="15.0816" y1="23.137" x2="15.0816" y2="27.2656" gradientUnits="userSpaceOnUse">
<stop stop-color="#D9B4FF"/>
<stop offset="1" stop-color="#AE5FFD"/>
</linearGradient>
<linearGradient id="paint8_linear_1172_105580" x1="17.0794" y1="24.2693" x2="17.0794" y2="28.9799" gradientUnits="userSpaceOnUse">
<stop stop-color="#D9B4FF"/>
<stop offset="1" stop-color="#AE5FFD"/>
</linearGradient>
<linearGradient id="paint9_linear_1172_105580" x1="22.0705" y1="24.1462" x2="22.0705" y2="24.9757" gradientUnits="userSpaceOnUse">
<stop stop-color="#D9B4FF"/>
<stop offset="1" stop-color="#AE5FFD"/>
</linearGradient>
<linearGradient id="paint10_linear_1172_105580" x1="23.5805" y1="22.0706" x2="23.5805" y2="23.2163" gradientUnits="userSpaceOnUse">
<stop stop-color="#D9B4FF"/>
<stop offset="1" stop-color="#AE5FFD"/>
</linearGradient>
</defs>
</svg>
