<svg width="228" height="230" viewBox="0 0 228 230" fill="none" xmlns="http://www.w3.org/2000/svg">
<path d="M146.269 142.392C156.437 142.392 166.061 146.697 172.839 154.23L173.485 154.97L226.64 223.036L226.753 223.182C228.623 225.802 226.759 229.5 223.498 229.5H192.076C190.916 229.5 189.818 228.996 189.061 228.121L188.913 227.94L123.153 142.392H146.269ZM4.66211 0.522461H39.2168C40.4167 0.52247 41.5533 1.06416 42.3057 1.98438L42.4512 2.17383L42.4521 2.1748L86.6934 63.0449C97.4235 77.8133 103.103 95.3343 103.103 113.568C103.103 131.518 97.6218 148.698 87.248 163.307L86.75 164L40.4932 227.824C39.7336 228.862 38.5361 229.477 37.2588 229.477H4.50098C1.26873 229.476 -0.629527 225.825 1.23535 223.165L1.23633 223.166L77.6934 114.537L77.8965 114.248L77.6914 113.959L1.40723 6.85352C-0.477039 4.20565 1.41912 0.522767 4.66211 0.522461ZM192.076 0.5H223.498C226.72 0.500171 228.58 4.11045 226.821 6.72461L226.64 6.97461L173.587 74.9121L173.486 75.0303C166.67 83.0215 156.764 87.6084 146.269 87.6084H123.153L188.914 2.05859L188.913 2.05762C189.671 1.07305 190.838 0.500085 192.076 0.5Z" stroke="#F1F1F1" stroke-opacity="0.4"/>
</svg>
