<svg width="40" height="38" viewBox="0 0 40 38" fill="none" xmlns="http://www.w3.org/2000/svg">
<rect width="40" height="38" rx="10" fill="#1D1C20"/>
<g clip-path="url(#clip0_1015_44893)">
<path fill-rule="evenodd" clip-rule="evenodd" d="M20 11.9495C15.6845 11.9495 12.186 15.3469 12.186 19.5378C12.186 21.6335 13.0594 23.529 14.4747 24.9034C14.9106 25.3268 14.9106 26.0131 14.4747 26.4365C14.0388 26.8598 13.332 26.8598 12.896 26.4365C11.0792 24.6721 9.95349 22.2316 9.95349 19.5378C9.95349 14.1495 14.4515 9.78149 20 9.78149C25.5485 9.78149 30.0465 14.1495 30.0465 19.5378C30.0465 22.2316 28.9208 24.6721 27.104 26.4365C26.668 26.8598 25.9612 26.8598 25.5253 26.4365C25.0894 26.0131 25.0894 25.3268 25.5253 24.9034C26.9406 23.529 27.814 21.6335 27.814 19.5378C27.814 15.3469 24.3155 11.9495 20 11.9495Z" fill="url(#paint0_linear_1015_44893)"/>
<path fill-rule="evenodd" clip-rule="evenodd" d="M20 6.16806C12.3965 6.16806 6.23256 12.1539 6.23256 19.5378C6.23256 23.23 7.77231 26.5709 10.2649 28.9916C10.7009 29.4149 10.7009 30.1013 10.2649 30.5246C9.82901 30.9479 9.12223 30.9479 8.68629 30.5246C5.79208 27.714 4 23.8281 4 19.5378C4 10.9565 11.1634 4 20 4C28.8366 4 36 10.9565 36 19.5378C36 23.8281 34.2079 27.714 31.3137 30.5246C30.8778 30.9479 30.171 30.9479 29.7351 30.5246C29.2991 30.1013 29.2991 29.4149 29.7351 28.9916C32.2277 26.5709 33.7674 23.23 33.7674 19.5378C33.7674 12.1539 27.6035 6.16806 20 6.16806Z" fill="url(#paint1_linear_1015_44893)"/>
<path d="M17.2958 26.6486C18.5238 25.2658 19.1378 24.5744 19.8959 24.5294C19.9653 24.5253 20.0347 24.5253 20.1041 24.5294C20.8622 24.5744 21.4762 25.2658 22.7042 26.6486C25.3762 29.6574 26.7122 31.1618 26.3381 32.4598C26.306 32.5713 26.2661 32.6799 26.2187 32.7844C25.6682 34 23.7788 34 20 34C16.2212 34 14.3319 34 13.7813 32.7844C13.7339 32.6799 13.694 32.5713 13.6619 32.4598C13.2878 31.1618 14.6238 29.6574 17.2958 26.6486Z" fill="url(#paint2_linear_1015_44893)"/>
<path d="M24 19C24 21.1801 22.2091 22.9474 20 22.9474C17.7909 22.9474 16 21.1801 16 19C16 16.8199 17.7909 15.0526 20 15.0526C22.2091 15.0526 24 16.8199 24 19Z" fill="url(#paint3_linear_1015_44893)"/>
</g>
<defs>
<linearGradient id="paint0_linear_1015_44893" x1="20" y1="4" x2="20" y2="34" gradientUnits="userSpaceOnUse">
<stop stop-color="#D9B4FF"/>
<stop offset="1" stop-color="#AE5FFD"/>
</linearGradient>
<linearGradient id="paint1_linear_1015_44893" x1="20" y1="4" x2="20" y2="34" gradientUnits="userSpaceOnUse">
<stop stop-color="#D9B4FF"/>
<stop offset="1" stop-color="#AE5FFD"/>
</linearGradient>
<linearGradient id="paint2_linear_1015_44893" x1="20" y1="4" x2="20" y2="34" gradientUnits="userSpaceOnUse">
<stop stop-color="#D9B4FF"/>
<stop offset="1" stop-color="#AE5FFD"/>
</linearGradient>
<linearGradient id="paint3_linear_1015_44893" x1="20" y1="4" x2="20" y2="34" gradientUnits="userSpaceOnUse">
<stop stop-color="#D9B4FF"/>
<stop offset="1" stop-color="#AE5FFD"/>
</linearGradient>
<clipPath id="clip0_1015_44893">
<rect x="4" y="4" width="32" height="30" rx="5" fill="white"/>
</clipPath>
</defs>
</svg>
