<svg width="73" height="74" viewBox="0 0 73 74" fill="none" xmlns="http://www.w3.org/2000/svg">
<rect x="0.950286" y="1.12985" width="71.1005" height="71.1005" rx="35.5502" fill="#12002B" fill-opacity="0.8"/>
<rect x="0.950286" y="1.12985" width="71.1005" height="71.1005" rx="35.5502" stroke="url(#paint0_linear_1506_55720)" stroke-width="1.89838"/>
<path d="M46.2203 30.501L54.8526 19.4025C55.2285 18.9209 54.8863 18.2153 54.2786 18.2153H49.177C48.9507 18.2153 48.7375 18.3207 48.5991 18.5013L37.8218 32.5781H41.7396C43.4676 32.5781 45.0983 31.8199 46.2203 30.4991V30.501Z" fill="#7401E8"/>
<path d="M54.8526 54.523L46.2203 43.4245C45.1001 42.1037 43.4676 41.3455 41.7396 41.3455H37.8218L48.5991 55.4223C48.7375 55.6029 48.9507 55.7083 49.177 55.7083H54.2786C54.8863 55.7083 55.2285 55.0027 54.8526 54.5211V54.523Z" fill="#1F01FF"/>
<path d="M24.9494 18.5219C24.8129 18.3319 24.5922 18.219 24.3585 18.219H18.7482C18.1554 18.219 17.8094 18.8945 18.1535 19.3799L30.5391 36.8394L18.1255 54.5473C17.7851 55.0346 18.1311 55.7044 18.7221 55.7044H24.0406C24.2743 55.7044 24.4931 55.5915 24.6315 55.4015L32.1418 44.9972C33.8885 42.5777 34.8123 39.718 34.8123 36.7284C34.8123 33.7388 33.8847 30.8659 32.1325 28.4445L24.9494 18.5219Z" fill="#F1F1F1"/>
<defs>
<linearGradient id="paint0_linear_1506_55720" x1="-0.976565" y1="-6.95141" x2="79.3168" y2="-6.35003" gradientUnits="userSpaceOnUse">
<stop offset="0.129808" stop-color="#7400E8"/>
<stop offset="0.365385" stop-color="#BE67D5"/>
<stop offset="0.629808" stop-color="#BC79FF"/>
<stop offset="1" stop-color="#1E00FF"/>
</linearGradient>
</defs>
</svg>
