<svg width="25" height="24" viewBox="0 0 25 24" fill="none" xmlns="http://www.w3.org/2000/svg">
<rect x="0.500977" width="23.9982" height="24" rx="6" fill="#1F01FF"/>
<path d="M16.4429 9.28334L20.0945 4.61673C20.2535 4.41421 20.1088 4.11755 19.8517 4.11755H17.6936C17.5979 4.11755 17.5077 4.16185 17.4492 4.2378L12.8901 10.1567H14.5475C15.2784 10.1567 15.9682 9.83789 16.4429 9.28255V9.28334Z" fill="#F1F1F1"/>
<path d="M20.0945 19.3838L16.4429 14.7172C15.969 14.1618 15.2784 13.843 14.5475 13.843H12.8901L17.4492 19.7619C17.5077 19.8379 17.5979 19.8822 17.6936 19.8822H19.8517C20.1088 19.8822 20.2535 19.5855 20.0945 19.383V19.3838Z" fill="#F1F1F1"/>
<path d="M7.44445 4.24638C7.3867 4.16648 7.29335 4.11902 7.19446 4.11902H4.82121C4.57043 4.11902 4.42409 4.40302 4.56965 4.60712L9.809 11.9484L4.55778 19.3941C4.4138 19.599 4.56016 19.8806 4.81014 19.8806H7.05998C7.15887 19.8806 7.25143 19.8331 7.30997 19.7532L10.487 15.3785C11.2258 14.3612 11.6166 13.1587 11.6166 11.9017C11.6166 10.6447 11.2243 9.43669 10.483 8.41857L7.44445 4.24638Z" fill="#F1F1F1"/>
</svg>
