<svg width="34" height="28" viewBox="0 0 34 28" fill="none" xmlns="http://www.w3.org/2000/svg">
<path d="M30.1422 13.93V5.09389C30.1412 3.87583 29.6568 2.70796 28.7955 1.84666C27.9342 0.985365 26.7664 0.501035 25.5483 0.5H4.59389C3.37583 0.501035 2.20796 0.985365 1.34666 1.84666C0.485365 2.70796 0.0010347 3.87583 0 5.09389V17.1173C0.0010347 18.3353 0.485365 19.5032 1.34666 20.3645C2.20796 21.2258 3.37583 21.7101 4.59389 21.7112H19.1794C19.4527 22.8674 20.0059 23.9389 20.7903 24.8313C21.5747 25.7236 22.5664 26.4097 23.678 26.829C24.7897 27.2483 25.9874 27.3882 27.1658 27.2362C28.3442 27.0842 29.4672 26.645 30.436 25.9573C31.4049 25.2697 32.1901 24.3545 32.7224 23.2922C33.2547 22.23 33.5179 21.0533 33.4889 19.8655C33.4599 18.6777 33.1395 17.5153 32.5559 16.4803C31.9724 15.4453 31.1435 14.5696 30.1422 13.93ZM17.9681 11.4628C17.1559 12.1399 16.1323 12.5111 15.0749 12.5122C14.0175 12.5132 12.9932 12.1439 12.1797 11.4684L2.58441 19.9585C2.27845 19.7399 2.00904 19.4743 1.7862 19.1714L11.3257 10.7428L1.96482 2.81648C2.21733 2.5304 2.51302 2.28556 2.84118 2.09084L12.8439 10.5697C13.4645 11.1006 14.2544 11.3924 15.0711 11.3924C15.8878 11.3924 16.6777 11.1006 17.2983 10.5697L27.301 2.09084C27.6292 2.28556 27.9249 2.5304 28.1774 2.81648L18.8333 10.7316L22.4671 13.8351C22.1382 14.0341 21.8265 14.26 21.5349 14.5105L17.9681 11.4628ZM26.2349 26.1767C25.0205 26.1767 23.8334 25.8166 22.8236 25.1419C21.8139 24.4672 21.0269 23.5083 20.5622 22.3863C20.0975 21.2644 19.9759 20.0298 20.2128 18.8387C20.4497 17.6477 21.0345 16.5536 21.8932 15.6949C22.7519 14.8362 23.8459 14.2514 25.037 14.0145C26.2281 13.7776 27.4626 13.8992 28.5846 14.3639C29.7065 14.8286 30.6655 15.6156 31.3402 16.6254C32.0148 17.6351 32.3749 18.8222 32.3749 20.0366C32.3739 21.6647 31.7267 23.2259 30.5754 24.3772C29.4242 25.5284 27.863 26.1756 26.2349 26.1767Z" fill="url(#paint0_linear_1072_84729)"/>
<path d="M28.8974 17.2736C28.7936 16.6423 28.4689 16.0684 27.9812 15.6543C27.4936 15.2403 26.8746 15.0129 26.2348 15.0129C25.5951 15.0129 24.9761 15.2403 24.4884 15.6543C24.0007 16.0684 23.676 16.6423 23.5723 17.2736C23.2215 17.3442 22.9059 17.5339 22.679 17.8107C22.4521 18.0874 22.328 18.434 22.3275 18.7919V22.3978C22.3275 22.8078 22.4904 23.2011 22.7804 23.4911C23.0703 23.7811 23.4636 23.944 23.8737 23.944H28.596C29.006 23.944 29.3993 23.7811 29.6893 23.4911C29.9793 23.2011 30.1422 22.8078 30.1422 22.3978V18.7919C30.1417 18.434 30.0175 18.0874 29.7907 17.8107C29.5638 17.5339 29.2482 17.3442 28.8974 17.2736ZM26.793 21.153C26.793 21.3011 26.7342 21.443 26.6295 21.5477C26.5249 21.6524 26.3829 21.7112 26.2348 21.7112C26.0868 21.7112 25.9448 21.6524 25.8401 21.5477C25.7355 21.443 25.6766 21.3011 25.6766 21.153V20.0366C25.6766 19.8886 25.7355 19.7466 25.8401 19.6419C25.9448 19.5373 26.0868 19.4784 26.2348 19.4784C26.3829 19.4784 26.5249 19.5373 26.6295 19.6419C26.7342 19.7466 26.793 19.8886 26.793 20.0366V21.153ZM24.7445 17.2457C24.8388 16.9235 25.035 16.6405 25.3037 16.4391C25.5724 16.2378 25.8991 16.129 26.2348 16.129C26.5706 16.129 26.8973 16.2378 27.166 16.4391C27.4347 16.6405 27.6309 16.9235 27.7252 17.2457H24.7445Z" fill="url(#paint1_linear_1072_84729)"/>
<defs>
<linearGradient id="paint0_linear_1072_84729" x1="16.7455" y1="0.5" x2="16.7455" y2="27.2958" gradientUnits="userSpaceOnUse">
<stop stop-color="#D3A9FE"/>
<stop offset="1" stop-color="#B773FD"/>
</linearGradient>
<linearGradient id="paint1_linear_1072_84729" x1="26.2348" y1="15.0129" x2="26.2348" y2="23.944" gradientUnits="userSpaceOnUse">
<stop stop-color="#D3A9FE"/>
<stop offset="1" stop-color="#B773FD"/>
</linearGradient>
</defs>
</svg>
