<svg width="24" height="24" viewBox="0 0 24 24" fill="none" xmlns="http://www.w3.org/2000/svg">
<g clip-path="url(#clip0_3032_9580)">
<path d="M21.6898 0H2.31016C1.03429 0 0 1.03429 0 2.31016V21.6898C0 22.9657 1.03429 24 2.31016 24H21.6898C22.9657 24 24 22.9657 24 21.6898V2.31016C24 1.03429 22.9657 0 21.6898 0Z" fill="#F8F8F8"/>
<path fill-rule="evenodd" clip-rule="evenodd" d="M16.8128 10.1391V8.59899C16.8128 7.82893 17.3262 7.70059 17.5829 7.70059H19.893V4.23535H16.8128C13.3476 4.23535 12.5775 6.8022 12.5775 8.3423V10.1391H10.6524V14.1177H12.7059V24.0001H16.5561V14.1177H19.508L19.6364 12.5776L19.893 10.1391H16.8128Z" fill="#1D1C20"/>
</g>
<defs>
<clipPath id="clip0_3032_9580">
<rect width="24" height="24" rx="4.77102" fill="white"/>
</clipPath>
</defs>
</svg>
