<svg width="325" height="311" viewBox="0 0 325 311" fill="none" xmlns="http://www.w3.org/2000/svg">
<path d="M225.178 218.891C241.411 218.891 256.748 225.982 267.274 238.335L349.118 343.116L349.339 343.398C352.283 347.605 349.29 353.5 344.069 353.5H295.696C293.831 353.5 292.066 352.689 290.85 351.284L290.613 350.995L189.045 218.891H225.178ZM7.17773 0.535156H60.373C62.3013 0.535156 64.1284 1.40451 65.3379 2.88379L65.5713 3.1875L65.5723 3.18945L133.68 96.876C150.232 119.653 158.994 146.675 158.994 174.797C158.994 202.479 150.538 228.976 134.536 251.506L133.769 252.575H133.768L62.5586 350.809C61.3393 352.476 59.4131 353.464 57.3584 353.464H6.92969C1.73348 353.464 -1.31318 347.597 1.68262 343.326L1.68164 343.325L119.386 176.133L119.59 175.843L119.384 175.555L1.94629 10.7051C-1.08113 6.45192 1.96464 0.535218 7.17773 0.535156ZM295.696 0.5H344.069C349.331 0.500255 352.331 6.48884 349.27 10.7012L349.119 10.9004L349.118 10.9014L267.438 115.473L267.282 115.656C256.738 128.015 241.415 135.109 225.178 135.109H189.045L290.613 3.00488C291.755 1.52126 293.475 0.617827 295.325 0.510742L295.696 0.5Z" stroke="#F1F1F1" stroke-opacity="0.4"/>
</svg>
