<svg width="26" height="26" viewBox="0 0 26 26" fill="none" xmlns="http://www.w3.org/2000/svg">
<path d="M12.75 0C5.70832 0 0 5.70838 0 12.75C0 19.7916 5.70832 25.5 12.75 25.5C19.7916 25.5 25.5 19.7916 25.5 12.75C25.5 5.70838 19.7916 0 12.75 0ZM11.4291 23.5997C9.01002 23.31 6.77178 22.2271 5.02227 20.4777C2.95812 18.4135 1.82141 15.6691 1.82141 12.75C1.82141 10.1222 2.74309 7.63627 4.43277 5.66033C4.47629 6.1824 4.58375 6.74211 4.55622 7.14221C4.4557 8.60079 4.31177 9.51365 5.16553 10.7442C5.49813 11.2235 5.57984 11.9106 5.74173 12.4653C5.90006 13.0081 6.5326 13.2927 6.96886 13.6271C7.84903 14.3019 8.69109 15.0863 9.62441 15.6802C10.2404 16.0722 10.6252 16.2672 10.4448 17.0189C10.2997 17.6234 10.2592 17.9958 9.94641 18.5344C9.85097 18.6987 10.3067 19.7553 10.4583 19.907C10.9179 20.3665 11.374 20.7881 11.875 21.2019C12.6517 21.8436 11.7995 22.6775 11.4291 23.5997ZM20.4777 20.4777C18.9064 22.0489 16.9408 23.082 14.8042 23.4862C15.107 22.7374 15.6462 22.0721 16.1463 21.6864C16.5813 21.3507 17.1262 20.7051 17.3534 20.1937C17.5805 19.6829 17.8813 19.2402 18.1857 18.7705C18.6187 18.1024 17.1179 17.0949 16.6316 16.8837C15.5372 16.4086 14.7133 15.7675 13.7407 15.0831C13.0477 14.5955 11.6408 15.3377 10.8585 14.9962C9.78691 14.5283 8.9041 13.7153 7.97267 13.0139C7.01152 12.29 7.05798 11.4461 7.05798 10.3783C7.81085 10.406 8.88185 10.1699 9.38167 10.7753C9.53939 10.9664 10.0817 11.82 10.4447 11.5167C10.7413 11.2689 10.2249 10.2755 10.1252 10.0419C9.81842 9.3238 10.8243 9.04373 11.3391 8.55678C12.0109 7.92149 13.452 6.92515 13.3382 6.46977C13.2243 6.01438 11.8962 4.72418 11.1162 4.92548C10.9993 4.95564 9.97007 6.0348 9.77122 6.2041C9.77649 5.85188 9.78176 5.49972 9.78716 5.14751C9.79053 4.92512 9.37229 4.69684 9.39172 4.5534C9.44076 4.19089 10.4499 3.53298 10.7009 3.24426C10.525 3.13435 9.92489 2.6189 9.74327 2.69454C9.30352 2.87782 8.80688 3.0041 8.36713 3.18732C8.36713 3.03481 8.34861 2.89155 8.32655 2.75008C9.21212 2.35832 10.1463 2.08717 11.104 1.94388L11.9673 2.29083L12.5768 3.01421L13.1852 3.64147L13.7169 3.8128L14.5615 3.01623L14.3438 2.44757V1.93641C16.0141 2.17902 17.5916 2.80218 18.9731 3.76309C18.726 3.78522 18.4543 3.82157 18.1479 3.86055C18.0213 3.78577 17.8589 3.75181 17.721 3.69977C18.1213 4.56052 18.5389 5.40937 18.9631 6.25872C19.4163 7.16599 20.4216 8.13916 20.5981 9.09688C20.8062 10.2257 20.6618 11.2511 20.7756 12.5793C20.8852 13.8583 22.2176 15.3115 22.2176 15.3115C22.2176 15.3115 22.8329 15.521 23.3445 15.448C22.8676 17.335 21.8897 19.0655 20.4777 20.4777Z" fill="url(#paint0_linear_1072_85004)"/>
<defs>
<linearGradient id="paint0_linear_1072_85004" x1="12.75" y1="0" x2="12.75" y2="25.5" gradientUnits="userSpaceOnUse">
<stop stop-color="#D4ABFF"/>
<stop offset="1" stop-color="#B571FD"/>
</linearGradient>
</defs>
</svg>
