<svg width="38" height="38" viewBox="0 0 38 38" fill="none" xmlns="http://www.w3.org/2000/svg">
<rect width="38" height="38" rx="10" fill="#1D1C20"/>
<g clip-path="url(#clip0_1139_79156)">
<path d="M24.625 11.8604H32.125C32.2741 11.8603 32.4223 11.8818 32.5645 11.9248L32.7051 11.9746C32.8889 12.0507 33.0556 12.163 33.1963 12.3037C33.3017 12.4091 33.3909 12.5292 33.4609 12.6602L33.5254 12.7949C33.6014 12.9787 33.6398 13.1761 33.6396 13.375V20.875C33.6396 21.2265 33.5177 21.5654 33.2969 21.835L33.1963 21.9463C32.9122 22.2304 32.5268 22.3896 32.125 22.3896C31.7735 22.3896 31.4346 22.2677 31.165 22.0469L31.0537 21.9463C30.7696 21.6622 30.6104 21.2768 30.6104 20.875V17.0322L29.9951 17.6465L21.9463 25.6963C21.8407 25.8019 21.7201 25.8908 21.5889 25.9609L21.4551 26.0244C21.2713 26.1006 21.0739 26.1396 20.875 26.1396C20.7259 26.1396 20.5777 26.1183 20.4355 26.0752L20.2949 26.0244C20.1572 25.9673 20.0289 25.8902 19.9141 25.7959L19.8037 25.6963L13.6299 19.5215L13.375 19.2676L13.1201 19.5215L6.94727 25.6953C6.66299 25.978 6.27785 26.1362 5.87695 26.1357C5.52619 26.1353 5.18793 26.0133 4.91895 25.793L4.80762 25.6924C4.5594 25.4442 4.4058 25.1187 4.37109 24.7725L4.36426 24.623C4.3638 24.2225 4.52147 23.8379 4.80371 23.5537L12.3037 16.0537C12.4092 15.9481 12.53 15.8592 12.6611 15.7891L12.7949 15.7256C12.9787 15.6494 13.1761 15.6104 13.375 15.6104C13.5241 15.6104 13.6723 15.6317 13.8145 15.6748L13.9551 15.7256C14.0928 15.7827 14.2211 15.8598 14.3359 15.9541L14.4463 16.0537L20.6201 22.2285L20.875 22.4824L21.1299 22.2285L27.8535 15.5049L28.4678 14.8896H24.625C24.2232 14.8896 23.8378 14.7304 23.5537 14.4463C23.2696 14.1622 23.1104 13.7768 23.1104 13.375C23.1104 13.0235 23.2323 12.6846 23.4531 12.415L23.5537 12.3037C23.8378 12.0196 24.2232 11.8604 24.625 11.8604Z" fill="url(#paint0_linear_1139_79156)" stroke="#1D1C20" stroke-width="0.72"/>
</g>
<defs>
<linearGradient id="paint0_linear_1139_79156" x1="19.002" y1="11.5" x2="19.002" y2="26.5" gradientUnits="userSpaceOnUse">
<stop stop-color="#D9B4FF"/>
<stop offset="1" stop-color="#AE5FFD"/>
</linearGradient>
<clipPath id="clip0_1139_79156">
<rect width="30" height="30" fill="white" transform="translate(4 4)"/>
</clipPath>
</defs>
</svg>
