<svg width="38" height="38" viewBox="0 0 38 38" fill="none" xmlns="http://www.w3.org/2000/svg">
<rect width="38" height="38" rx="10" fill="#1D1C20"/>
<path d="M16.5349 22.0487L15.6598 23.0345C14.9856 23.7075 14.127 24.1655 13.1926 24.3508C12.2582 24.536 11.2899 24.4401 10.4099 24.0752C9.53 23.7102 8.778 23.0927 8.24893 22.3005C7.71987 21.5083 7.4375 20.5771 7.4375 19.6245C7.4375 18.6719 7.71987 17.7407 8.24893 16.9485C8.778 16.1563 9.53 15.5388 10.4099 15.1738C11.2899 14.8089 12.2582 14.713 13.1926 14.8982C14.127 15.0835 14.9856 15.5415 15.6598 16.2145L21.7152 23.0345C22.3894 23.7075 23.248 24.1655 24.1824 24.3508C25.1168 24.536 26.0851 24.4401 26.9651 24.0752C27.845 23.7102 28.597 23.0927 29.1261 22.3005C29.6551 21.5083 29.9375 20.5771 29.9375 19.6245C29.9375 18.6719 29.6551 17.7407 29.1261 16.9485C28.597 16.1563 27.845 15.5388 26.9651 15.1738C26.0851 14.8089 25.1168 14.713 24.1824 14.8982C23.248 15.0835 22.3894 15.5415 21.7152 16.2145L20.8401 17.2003" stroke="url(#paint0_linear_1172_105639)" stroke-linecap="round" stroke-linejoin="round"/>
<defs>
<linearGradient id="paint0_linear_1172_105639" x1="18.6875" y1="14.8063" x2="18.6875" y2="24.4427" gradientUnits="userSpaceOnUse">
<stop stop-color="#D9B4FF"/>
<stop offset="1" stop-color="#AE5FFD"/>
</linearGradient>
</defs>
</svg>
