<svg width="24" height="24" viewBox="0 0 24 24" fill="none" xmlns="http://www.w3.org/2000/svg">
<g clip-path="url(#clip0_3032_9575)">
<path d="M21.6875 0H2.3125C1.03534 0 0 1.03534 0 2.3125V21.6875C0 22.9647 1.03534 24 2.3125 24H21.6875C22.9647 24 24 22.9647 24 21.6875V2.3125C24 1.03534 22.9647 0 21.6875 0Z" fill="#F8F8F8"/>
<path d="M8.875 3.6875H15.125C16.5 3.6875 17.75 4.25 18.625 5.1875C19.5 6.0625 20.0625 7.3125 20.0625 8.6875V15.3125C20.0625 16.6875 19.5 17.875 18.625 18.8125C17.75 19.6875 16.5 20.25 15.125 20.25H8.875C7.5 20.25 6.25 19.6875 5.375 18.8125C4.4375 17.875 3.875 16.6875 3.875 15.3125V8.6875C3.875 7.3125 4.4375 6.0625 5.375 5.1875C6.25 4.25 7.5 3.6875 8.875 3.6875ZM15.125 5.125H8.875C7.875 5.125 7 5.5 6.3125 6.125C5.6875 6.8125 5.25 7.6875 5.25 8.6875V15.3125C5.25 16.25 5.6875 17.1875 6.3125 17.8125C7 18.5 7.875 18.875 8.875 18.875H15.125C16.125 18.875 17 18.5 17.625 17.8125C18.3125 17.1875 18.6875 16.25 18.6875 15.3125V8.6875C18.6875 7.6875 18.3125 6.8125 17.625 6.125C17 5.5 16.125 5.125 15.125 5.125Z" fill="#1D1C20"/>
<path d="M12 7.6875C13.1875 7.6875 14.25 8.125 15 8.9375C15.75 9.6875 16.25 10.75 16.25 11.9375C16.25 13.125 15.75 14.125 15 14.9375C14.25 15.6875 13.1875 16.1875 12 16.1875C10.8125 16.1875 9.75 15.6875 9 14.9375C8.1875 14.125 7.75 13.125 7.75 11.9375C7.75 10.75 8.1875 9.6875 9 8.9375C9.75 8.125 10.8125 7.6875 12 7.6875ZM14 9.875C13.5 9.375 12.75 9.0625 12 9.0625C11.1875 9.0625 10.5 9.375 9.9375 9.875C9.4375 10.4375 9.125 11.125 9.125 11.9375C9.125 12.6875 9.4375 13.4375 9.9375 13.9375C10.5 14.4375 11.1875 14.75 12 14.75C12.75 14.75 13.5 14.4375 14 13.9375C14.5 13.4375 14.875 12.6875 14.875 11.9375C14.875 11.125 14.5 10.4375 14 9.875Z" fill="#1D1C20"/>
<path d="M16.5625 8.43799C17.1148 8.43799 17.5625 7.99027 17.5625 7.43799C17.5625 6.8857 17.1148 6.43799 16.5625 6.43799C16.0102 6.43799 15.5625 6.8857 15.5625 7.43799C15.5625 7.99027 16.0102 8.43799 16.5625 8.43799Z" fill="#1D1C20"/>
</g>
<defs>
<clipPath id="clip0_3032_9575">
<rect width="24" height="24" rx="4.77102" fill="white"/>
</clipPath>
</defs>
</svg>
