<svg width="1440" height="363" viewBox="0 0 1440 363" fill="none" xmlns="http://www.w3.org/2000/svg">
<path d="M1415.17 3.63637L1404 1M1415.17 3.63637H1382.07M1415.17 3.63637L1426.71 6.35981M1415.17 3.63637H1438.61M1404 1L1408.06 1.00103L1412.09 1.00674L1416.02 1.02279L1419.84 1.0544L1423.49 1.10569L1426.94 1.18291L1430.14 1.29017L1433.11 1.42695L1435.65 1.61609L1437.98 1.83527L1438.61 1.91204V3.63637M1404 1H1371.43M1371.43 1H1338.86M1371.43 1L1382.07 3.63637M1338.86 1H1306.28M1338.86 1L1348.96 3.63637M1306.28 1H1273.71M1306.28 1L1315.86 3.63637M1273.71 1H1241.14M1273.71 1L1282.76 3.63637M1241.14 1H1208.57M1241.14 1L1249.65 3.63637M1208.57 1H1176M1208.57 1L1216.55 3.63637M1176 1H1143.43M1176 1L1183.45 3.63637M1143.43 1H1110.86M1143.43 1L1150.34 3.63637M1110.86 1H1078.28M1110.86 1L1117.24 3.63637M1078.28 1H1045.71M1078.28 1L1084.14 3.63637M1045.71 1H1013.14M1045.71 1L1051.03 3.63637M1013.14 1H980.571M1013.14 1L1014.32 1.65132L1016.12 2.63738L1017.93 3.63637M980.571 1H948M980.571 1L981.622 1.65132L984.826 3.63637M948 1H915.428M948 1L951.723 3.63637M915.428 1H882.857M915.428 1L916.613 1.97879L917.812 2.96899L918.215 3.30217L918.62 3.63637M882.857 1H850.285M882.857 1L883.844 1.97879L884.176 2.3073L884.509 2.63738L885.517 3.63637M850.285 1H817.714M850.285 1L852.413 3.63637M817.714 1L817.911 1.32488L818.108 1.65132L819.107 3.30217L819.31 3.63637M817.714 1H785.143M785.143 1H752.571M785.143 1L786.207 3.63637M752.571 1H720M752.571 1L752.769 1.97879L753.103 3.63637M720 1H687.429M720 1V3.63637M687.429 1H654.857M687.429 1L687.231 1.97879L686.897 3.63637M654.857 1H622.286M654.857 1L653.793 3.63637M622.286 1L622.089 1.32488L621.892 1.65132L620.893 3.30217L620.69 3.63637M622.286 1H589.715M589.715 1H557.143M589.715 1L587.857 3.30217L587.587 3.63637M557.143 1H524.572M557.143 1L556.156 1.97879L555.824 2.3073L555.156 2.96899L554.821 3.30217L554.483 3.63637M524.572 1H492.001M524.572 1L523.388 1.97879L522.188 2.96899L521.785 3.30217L521.38 3.63637M492.001 1H459.429M492.001 1L488.277 3.63637M459.429 1H426.858M459.429 1L458.378 1.65132L455.174 3.63637M426.858 1H394.286M426.858 1L422.071 3.63637M394.286 1H361.715M394.286 1L388.967 3.63637M361.715 1H329.143M361.715 1L355.864 3.63637M329.143 1H296.572M329.143 1L322.76 3.63637M296.572 1H264.001M296.572 1L289.657 3.63637M264.001 1H231.43M264.001 1L256.554 3.63637M231.43 1H198.858M231.43 1L223.45 3.63637M198.858 1H166.287M198.858 1L190.347 3.63637M166.287 1H133.716M166.287 1L157.244 3.63637M133.716 1H101.144M133.716 1L124.14 3.63637M101.144 1H68.5728M101.144 1L91.0377 3.63637M68.5728 1H36.0017M68.5728 1L57.9344 3.63637M36.0017 1L31.937 1.00103L27.9143 1.00674L23.9754 1.02279L20.16 1.0544L16.5101 1.10569L13.0645 1.18291L9.86439 1.29017L6.89412 1.42695L4.34529 1.61609L2.02477 1.83527L1.38701 1.91206V3.63637M36.0017 1L24.831 3.63637M91.0377 3.63637H124.14M91.0377 3.63637H57.9344M91.0377 3.63637L80.5946 6.35981M124.14 3.63637L114.247 6.35981M124.14 3.63637H157.244M223.45 3.63637H256.554M223.45 3.63637H190.347M223.45 3.63637L221.415 4.30894L215.207 6.35981M256.554 3.63637L248.859 6.35981M256.554 3.63637H289.657M355.864 3.63637H388.967M355.864 3.63637H322.76M355.864 3.63637L354.371 4.30894L353.62 4.64678L349.818 6.35981M388.967 3.63637L388.29 3.97162L387.61 4.30894L383.471 6.35981M388.967 3.63637H422.071M488.277 3.63637L487.803 3.97162L484.43 6.35981M488.277 3.63637H521.38M488.277 3.63637H455.174M521.38 3.63637L520.566 4.30894L520.156 4.64678L519.745 4.9867L518.083 6.35981M521.38 3.63637H554.483M620.69 3.63637H653.793M620.69 3.63637H587.587M620.69 3.63637L619.042 6.35981M653.793 3.63637L653.658 3.97162L653.522 4.30894L653.385 4.64678L652.972 5.67015L652.694 6.35981M653.793 3.63637H686.897M753.103 3.63637H786.207M753.103 3.63637H720M753.103 3.63637L753.653 6.35981M786.207 3.63637L786.342 3.97162L786.478 4.30894L786.615 4.64678L787.306 6.35981M786.207 3.63637H819.31M885.517 3.63637H918.62M885.517 3.63637H852.413M885.517 3.63637L886.195 4.30894L887.569 5.67015L887.916 6.0142L888.265 6.35981M918.62 3.63637L919.434 4.30894L919.844 4.64678L920.255 4.9867L921.918 6.35981M918.62 3.63637H951.723M1017.93 3.63637H1051.03M1017.93 3.63637H984.826M1017.93 3.63637L1019.15 4.30894L1019.77 4.64678L1022.88 6.35981M1051.03 3.63637L1051.71 3.97162L1052.39 4.30894L1056.53 6.35981M1051.03 3.63637H1084.14M1150.34 3.63637H1183.45M1150.34 3.63637H1117.24M1150.34 3.63637L1152.11 4.30894L1153 4.64678L1157.49 6.35981M1183.45 3.63637L1191.14 6.35981M1183.45 3.63637H1216.55M1282.76 3.63637H1315.86M1282.76 3.63637H1249.65M1282.76 3.63637L1292.1 6.35981M1315.86 3.63637L1325.75 6.35981M1315.86 3.63637H1348.96M1.27098 28.2903H1.38701M34.5899 28.2903L47.2285 24.8109M34.5899 28.2903L21.467 31.9029M34.5899 28.2903H72.6682M34.5899 28.2903H1.38701M47.2285 24.8109H9.85242M47.2285 24.8109L59.4098 21.4573M47.2285 24.8109H84.6046M9.85242 24.8109L22.7103 21.4573M9.85242 24.8109H1.38701M9.85242 24.8109L1.38701 27.0183M47.0773 15.1016H82.4945M47.0773 15.1016L58.6335 12.0875M47.0773 15.1016H11.6609M47.0773 15.1016L35.1102 18.223M82.4945 15.1016L93.4428 12.0875M82.4945 15.1016L71.1576 18.223M82.4945 15.1016H117.912M58.6335 12.0875H93.4428M58.6335 12.0875L69.7997 9.17547M58.6335 12.0875H23.8249M93.4428 12.0875H128.251M93.4428 12.0875L104.021 9.17547M1.02246 83.2097H1.38701M31.7477 83.2097L48.0452 77.4411M31.7477 83.2097L14.6402 89.2654M31.7477 83.2097H80.909M31.7477 83.2097H1.38701M48.0452 77.4411L63.589 71.9393M48.0452 77.4411H96.0418M48.0452 77.4411H1.38701M16.7024 71.9393H63.589M16.7024 71.9393L32.6033 66.6862M16.7024 71.9393H1.38701M16.7024 71.9393L1.38701 76.9989M47.8004 61.6653H92.6134M47.8004 61.6653L62.3404 56.862M47.8004 61.6653H2.98742M47.8004 61.6653L32.6033 66.6862M92.6134 61.6653L106.185 56.862M92.6134 61.6653L78.4291 66.6862M92.6134 61.6653H137.427M62.3404 56.862H106.185M62.3404 56.862H18.4967M62.3404 56.862L76.265 52.2618M106.185 56.862L119.18 52.2618M106.185 56.862H150.028M102.417 43.622H143.589M102.417 43.622L114.712 39.5602M102.417 43.622H61.2445M102.417 43.622L89.6117 47.8522M143.589 43.622L155.064 39.5602M143.589 43.622L131.638 47.8522M143.589 43.622H184.761M114.712 39.5602H155.064M114.712 39.5602H74.3592M114.712 39.5602L126.527 35.6569M155.064 39.5602L166.092 35.6569M155.064 39.5602H195.417M148.825 28.2903H186.903M148.825 28.2903L159.357 24.8109M148.825 28.2903H110.746M148.825 28.2903L137.889 31.9029M186.903 28.2903L196.733 24.8109M186.903 28.2903L176.696 31.9029M186.903 28.2903H224.981M159.357 24.8109H196.733M159.357 24.8109H121.981M159.357 24.8109L169.508 21.4573M196.733 24.8109L206.207 21.4573M196.733 24.8109H234.109M188.745 15.1016H224.162M188.745 15.1016L197.869 12.0875M188.745 15.1016H153.329M188.745 15.1016L179.298 18.223M224.162 15.1016L232.677 12.0875M224.162 15.1016L215.344 18.223M224.162 15.1016H259.579M197.869 12.0875H232.677M197.869 12.0875L206.684 9.17547M197.869 12.0875H163.06M232.677 12.0875H267.486M232.677 12.0875L240.905 9.17547M26.5736 183.221L49.5109 171.854M26.5736 183.221L2.01055 195.393M26.5736 183.221H95.9161M26.5736 183.221H1.38701M49.5109 171.854L70.9802 161.216M49.5109 171.854H116.56M49.5109 171.854H1.38701M49.0453 141.858H110.041M49.0453 141.858L68.6462 133.028M49.0453 141.858L28.2279 151.237M49.0453 141.858H1.38701M110.041 141.858L127.86 133.028M110.041 141.858L91.1163 151.237M110.041 141.858H171.037M68.6462 133.028H127.86M68.6462 133.028H9.43248M68.6462 133.028L87.1348 124.699M127.86 133.028L144.668 124.699M127.86 133.028H187.074M121.131 109.383H175.574M121.131 109.383L136.796 102.327M121.131 109.383H66.6887M121.131 109.383L104.602 116.83M175.574 109.383L189.815 102.327M175.574 109.383L160.547 116.83M175.574 109.383H230.017M136.796 102.327H189.815M136.796 102.327H83.7775M136.796 102.327L151.662 95.6294M189.815 102.327L203.329 95.6294M189.815 102.327H242.833M179.23 83.2097H228.392M179.23 83.2097L192.036 77.4411M179.23 83.2097H130.07M179.23 83.2097L165.789 89.2654M228.392 83.2097L240.032 77.4411M228.392 83.2097L216.171 89.2654M228.392 83.2097H277.552M192.036 77.4411H240.032M192.036 77.4411H144.039M192.036 77.4411L204.248 71.9393M240.032 77.4411L251.135 71.9393M240.032 77.4411H288.029M227.054 61.6653H271.867M227.054 61.6653L237.716 56.862M227.054 61.6653H182.24M227.054 61.6653L215.909 66.6862M271.867 61.6653L281.561 56.862M271.867 61.6653L261.735 66.6862M271.867 61.6653H316.68M237.716 56.862H281.561M237.716 56.862H193.873M237.716 56.862L247.927 52.2618M281.561 56.862L290.844 52.2618M281.561 56.862H325.404M267.105 43.622H308.277M267.105 43.622L276.122 39.5602M267.105 43.622H225.933M267.105 43.622L257.716 47.8522M308.277 43.622L309.321 43.1054L316.474 39.5602M308.277 43.622L299.742 47.8522M308.277 43.622H349.45M276.122 39.5602H316.474M276.122 39.5602H235.769M276.122 39.5602L284.786 35.6569M316.474 39.5602L324.351 35.6569M316.474 39.5602H356.827M301.138 28.2903H339.217M301.138 28.2903L308.862 24.8109M301.138 28.2903H263.059M301.138 28.2903L293.118 31.9029M339.217 28.2903L346.238 24.8109M339.217 28.2903L336.515 29.6292L331.926 31.9029M339.217 28.2903H377.295M308.862 24.8109H346.238M308.862 24.8109H271.486M308.862 24.8109L316.306 21.4573M346.238 24.8109L353.005 21.4573M346.238 24.8109H383.614M330.413 15.1016H365.83M330.413 15.1016L337.104 12.0875M330.413 15.1016H294.997M330.413 15.1016L323.485 18.223M365.83 15.1016L370.412 12.8316L371.164 12.4585L371.913 12.0875M365.83 15.1016L359.532 18.223M365.83 15.1016H401.247M337.104 12.0875H371.913M337.104 12.0875L343.568 9.17547M337.104 12.0875H302.295M371.913 12.0875H406.721M371.913 12.0875L377.789 9.17547M51.6974 312.704H147.17M51.6974 312.704L81.7594 291.423M51.6974 312.704L18.6637 336.09M51.6974 312.704L1.38701 312.705M147.17 312.704L172.937 291.423M147.17 312.704L118.855 336.09M147.17 312.704H242.641M81.7594 291.423H172.937M81.7594 291.423L109.234 271.973M81.7594 291.423H1.38701M172.937 291.423L196.486 271.973M172.937 291.423H264.114M157.648 237.699H237.984M157.648 237.699L179.087 222.522M157.648 237.699H77.3122M157.648 237.699L134.44 254.129M237.984 237.699L256.36 222.522M237.984 237.699L218.092 254.129M237.984 237.699H318.32M179.087 222.522H256.36M179.087 222.522H101.813M179.087 222.522L198.951 208.46M256.36 222.522L273.387 208.46M256.36 222.522H333.633M234.602 183.221H303.944M234.602 183.221L250.658 171.854M234.602 183.221H165.258M234.602 183.221L217.407 195.393M303.944 183.221L317.707 171.854M303.944 183.221L289.206 195.393M303.944 183.221H373.286M250.658 171.854H317.707M250.658 171.854H183.609M250.658 171.854L265.686 161.216M317.707 171.854L330.588 161.216M317.707 171.854H384.756M293.029 141.858H354.025M293.029 141.858L305.503 133.028M293.029 141.858H232.033M293.029 141.858L279.781 151.237M354.025 141.858L364.716 133.028M354.025 141.858L342.67 151.237M354.025 141.858H415.021M305.503 133.028H364.716M305.503 133.028H246.288M305.503 133.028L317.268 124.699M364.716 133.028L374.801 124.699M364.716 133.028H423.93M338.902 109.383H393.345M338.902 109.383L348.87 102.327M338.902 109.383H284.459M338.902 109.383L328.383 116.83M393.345 109.383L401.889 102.327M393.345 109.383L384.328 116.83M393.345 109.383H447.787M348.87 102.327H401.889M348.87 102.327H295.851M348.87 102.327L358.33 95.6294M401.889 102.327L409.997 95.6294M401.889 102.327H454.907M375.874 83.2097H425.035M375.874 83.2097L384.023 77.4411M375.874 83.2097H326.713M375.874 83.2097L367.32 89.2654M425.035 83.2097L432.02 77.4411M425.035 83.2097L417.703 89.2654M425.035 83.2097H474.195M384.023 77.4411H432.02M384.023 77.4411H336.026M384.023 77.4411L391.794 71.9393M432.02 77.4411L438.681 71.9393M432.02 77.4411H480.016M406.307 61.6653H451.121M406.307 61.6653L413.092 56.862M406.307 61.6653H361.494M406.307 61.6653L399.215 66.6862M451.121 61.6653L456.936 56.862M451.121 61.6653L445.042 66.6862M451.121 61.6653H495.934M413.092 56.862H456.936M413.092 56.862H369.248M413.092 56.862L419.591 52.2618M456.936 56.862L462.506 52.2618M456.936 56.862H500.78M431.794 43.622H472.967M431.794 43.622L437.532 39.5602M431.794 43.622H390.622M431.794 43.622L425.819 47.8522M472.967 43.622L472.338 44.1412L467.845 47.8522M472.967 43.622L477.884 39.5602M472.967 43.622H514.139M437.532 39.5602H477.884M437.532 39.5602H397.18M437.532 39.5602L443.046 35.6569M477.884 39.5602L482.611 35.6569M477.884 39.5602H518.237M453.452 28.2903H491.53M453.452 28.2903L458.367 24.8109M453.452 28.2903H415.373M453.452 28.2903L448.349 31.9029M491.53 28.2903L495.743 24.8109M491.53 28.2903L489.909 29.6292L488.816 30.5323L487.156 31.9029M491.53 28.2903H529.608M458.367 24.8109H495.743M458.367 24.8109H420.99M458.367 24.8109L463.103 21.4573M495.743 24.8109L497.283 23.5388L498.298 22.7004L499.804 21.4573M495.743 24.8109H533.119M472.082 15.1016H507.498M472.082 15.1016L475.288 12.8316L476.339 12.0875M472.082 15.1016H436.664M472.082 15.1016L468.232 17.8266L467.673 18.223M507.498 15.1016L510.247 12.8316L510.698 12.4585L511.148 12.0875M507.498 15.1016L505.625 16.6483L503.719 18.223M507.498 15.1016H542.915M476.339 12.0875H511.148M476.339 12.0875L480.453 9.17547M476.339 12.0875H441.53M511.148 12.0875H545.956M511.148 12.0875L514.674 9.17547M433.585 312.704H529.056M433.585 312.704L446.468 291.423M433.585 312.704H338.113M433.585 312.704L419.427 336.09M529.056 312.704L537.646 291.423M529.056 312.704L519.619 336.09M529.056 312.704H624.529M446.468 291.423H537.646M446.468 291.423H355.291M446.468 291.423L458.243 271.973M537.646 291.423L545.495 271.973M537.646 291.423H628.823M478.992 237.699H559.328M478.992 237.699L488.18 222.522M478.992 237.699H398.656M478.992 237.699L469.045 254.129M559.328 237.699L565.453 222.522M559.328 237.699L552.697 254.129M559.328 237.699H639.664M488.18 222.522H565.453M488.18 222.522H410.907M488.18 222.522L496.693 208.46M565.453 222.522L571.129 208.46M565.453 222.522H642.727M511.972 183.221H581.314M511.972 183.221L518.854 171.854M511.972 183.221H442.63M511.972 183.221L504.603 195.393M581.314 183.221L585.902 171.854M581.314 183.221L576.402 195.393M581.314 183.221H650.658M518.854 171.854H585.902M518.854 171.854H451.805M518.854 171.854L525.294 161.216M585.902 171.854L590.196 161.216M585.902 171.854H652.951M537.013 141.858H598.008M537.013 141.858L542.358 133.028M537.013 141.858H476.017M537.013 141.858L531.335 151.237M598.008 141.858L601.572 133.028M598.008 141.858L594.223 151.237M598.008 141.858H659.004M542.358 133.028H601.572M542.358 133.028H483.144M542.358 133.028L547.4 124.699M601.572 133.028L604.934 124.699M601.572 133.028H660.786M556.672 109.383H611.115M556.672 109.383L560.944 102.327M556.672 109.383H502.23M556.672 109.383L552.164 116.83M611.115 109.383L613.963 102.327M611.115 109.383L608.11 116.83M611.115 109.383H665.558M560.944 102.327H613.963M560.944 102.327H507.926M560.944 102.327L564.999 95.6294M613.963 102.327L616.666 95.6294M613.963 102.327H666.981M572.517 83.2097H621.678M572.517 83.2097L576.009 77.4411M572.517 83.2097H523.357M572.517 83.2097L568.852 89.2654M621.678 83.2097L624.007 77.4411M621.678 83.2097L619.234 89.2654M621.678 83.2097H670.839M576.009 77.4411H624.007M576.009 77.4411H528.013M576.009 77.4411L577.278 75.3477L579.341 71.9393M624.007 77.4411L626.227 71.9393M624.007 77.4411H672.003M585.56 61.6653H630.373M585.56 61.6653L588.468 56.862M585.56 61.6653H540.747M585.56 61.6653L583.294 65.41L582.52 66.6862M630.373 61.6653L631.111 59.8393L632.312 56.862M630.373 61.6653L628.347 66.6862M630.373 61.6653H675.187M588.468 56.862L588.822 56.2759L591.253 52.2618M588.468 56.862H632.312M588.468 56.862H544.624M632.312 56.862L633.018 55.1137L633.25 54.537L633.482 53.9639L634.168 52.2618M632.312 56.862H676.156M596.483 43.622H637.655M596.483 43.622L597.725 41.5706L598.032 41.0644L598.337 40.5602L598.641 40.0592L598.942 39.5602M596.483 43.622H555.311M596.483 43.622L593.922 47.8522M637.655 43.622L638.891 40.5602L639.094 40.0592L639.295 39.5602M637.655 43.622L635.949 47.8522M637.655 43.622H678.828M598.942 39.5602H639.295M598.942 39.5602H558.59M598.942 39.5602L600.43 37.1026L600.723 36.6181L601.305 35.6569M639.295 39.5602L640.286 37.1026L640.483 36.6181L640.676 36.1362L640.87 35.6569M639.295 39.5602H679.648M605.765 28.2903H643.844M605.765 28.2903L607.872 24.8109M605.765 28.2903H567.686M605.765 28.2903L605.226 29.1805L604.407 30.5323L603.578 31.9029M643.844 28.2903L643.664 28.7343L642.57 31.4438L642.385 31.9029M643.844 28.2903L645.248 24.8109M643.844 28.2903H681.922M607.872 24.8109H645.248M607.872 24.8109H570.496M607.872 24.8109L609.902 21.4573M645.248 24.8109L645.761 23.5388L645.931 23.1185L646.1 22.7004L646.601 21.4573M645.248 24.8109H682.624M613.749 15.1016H649.166M613.749 15.1016L615.124 12.8316L615.574 12.0875M613.749 15.1016H578.332M613.749 15.1016L613.048 16.2592L612.813 16.6483L612.576 17.0395L611.859 18.223M649.166 15.1016L649.321 14.7192L649.627 13.9591L649.932 13.2057L650.382 12.0875M649.166 15.1016L648.541 16.6483L648.384 17.0395L648.066 17.8266L647.907 18.223M649.166 15.1016H684.583M615.574 12.0875H650.382M615.574 12.0875L617.119 9.53404L617.337 9.17547M615.574 12.0875H580.765M650.382 12.0875L650.532 11.7181L650.68 11.3502L650.828 10.9838L650.975 10.6191L651.413 9.53404L651.558 9.17547M650.382 12.0875H685.192M815.472 312.704H910.944M815.472 312.704L811.177 291.423M815.472 312.704H720M815.472 312.704L820.191 336.09M910.944 312.704L902.355 291.423M910.944 312.704L920.382 336.09M910.944 312.704H1006.42M811.177 291.423H902.355M811.177 291.423H720M811.177 291.423L807.252 271.973M902.355 291.423L894.505 271.973M902.355 291.423H993.532M800.336 237.699H880.672M800.336 237.699L797.273 222.522M800.336 237.699H720M800.336 237.699L803.652 254.129M880.672 237.699L874.547 222.522M880.672 237.699L887.303 254.129M880.672 237.699H961.008M797.273 222.522H874.547M797.273 222.522H720M797.273 222.522L794.436 208.46M874.547 222.522L868.871 208.46M874.547 222.522H951.82M789.342 183.221H858.686M789.342 183.221L787.049 171.854M789.342 183.221H720M789.342 183.221L791.799 195.393M858.686 183.221L854.098 171.854M858.686 183.221L863.598 195.393M858.686 183.221H928.028M787.049 171.854H854.098M787.049 171.854H720M787.049 171.854L784.902 161.216M854.098 171.854L849.804 161.216M854.098 171.854H921.147M780.996 141.858H841.992M780.996 141.858L779.214 133.028M780.996 141.858H720M780.996 141.858L782.888 151.237M841.992 141.858L838.428 133.028M841.992 141.858L845.777 151.237M841.992 141.858H902.987M779.214 133.028H838.428M779.214 133.028H720M779.214 133.028L777.533 124.699M838.428 133.028L835.066 124.699M838.428 133.028H897.642M774.442 109.383H828.885M774.442 109.383L773.019 102.327M774.442 109.383H720M774.442 109.383L775.946 116.83M828.885 109.383L826.037 102.327M828.885 109.383L831.89 116.83M828.885 109.383H883.328M773.019 102.327H826.037M773.019 102.327H720M773.019 102.327L771.667 95.6294M826.037 102.327L823.334 95.6294M826.037 102.327H879.056M769.161 83.2097H818.322M769.161 83.2097L767.997 77.4411M769.161 83.2097H720M769.161 83.2097L770.383 89.2654M818.322 83.2097L815.993 77.4411M818.322 83.2097L820.766 89.2654M818.322 83.2097H867.483M767.997 77.4411H815.993M767.997 77.4411H720M767.997 77.4411L766.887 71.9393M815.993 77.4411L813.773 71.9393M815.993 77.4411H863.991M764.813 61.6653H809.627M764.813 61.6653L763.844 56.862M764.813 61.6653H720M764.813 61.6653L765.827 66.6862M809.627 61.6653L807.925 57.4511L807.688 56.862M809.627 61.6653L811.653 66.6862M809.627 61.6653H854.44M763.844 56.862L763.726 56.2759L762.916 52.2618M763.844 56.862H807.688M763.844 56.862H720M807.688 56.862L806.982 55.1137L806.75 54.537L806.518 53.9639L805.832 52.2618M807.688 56.862H851.532M761.172 43.622H802.345M761.172 43.622L760.352 39.5602M761.172 43.622H720M761.172 43.622L761.488 45.1879L761.595 45.7154L761.701 46.2454L761.917 47.3139L762.026 47.8522M802.345 43.622L801.109 40.5602L800.705 39.5602M802.345 43.622L804.052 47.8522M802.345 43.622H843.517M760.352 39.5602H800.705M760.352 39.5602H720M760.352 39.5602L759.565 35.6569M800.705 39.5602L799.714 37.1026L799.518 36.6181L799.324 36.1362L799.13 35.6569M800.705 39.5602H841.058M758.078 28.2903H796.157M758.078 28.2903L757.376 24.8109M758.078 28.2903H720M758.078 28.2903L758.807 31.9029M796.157 28.2903L796.336 28.7343L797.43 31.4438L797.615 31.9029M796.157 28.2903L794.752 24.8109M796.157 28.2903H834.235M757.376 24.8109H794.752M757.376 24.8109H720M757.376 24.8109L756.699 21.4573M794.752 24.8109L794.239 23.5388L794.07 23.1185L793.9 22.7004L793.399 21.4573M794.752 24.8109H832.128M755.417 15.1016H790.834M755.417 15.1016L754.809 12.0875M755.417 15.1016H720M755.417 15.1016L756.047 18.223M790.834 15.1016L790.679 14.7192L790.372 13.9591L790.22 13.5814L789.917 12.8316L789.768 12.4585L789.617 12.0875M790.834 15.1016L791.459 16.6483L791.616 17.0395L791.934 17.8266L792.093 18.223M790.834 15.1016H826.251M754.809 12.0875L754.735 11.7181L754.66 11.3502L754.586 10.9838L754.221 9.17547M754.809 12.0875H789.617M754.809 12.0875H720M789.617 12.0875H824.426M789.617 12.0875L789.32 11.3502L789.172 10.9838L789.025 10.6191L788.587 9.53404L788.442 9.17547M1197.36 312.704H1292.83M1197.36 312.704L1175.89 291.423M1197.36 312.704H1101.89M1197.36 312.704L1220.95 336.09M1292.83 312.704L1267.06 291.423M1292.83 312.704L1321.15 336.09M1292.83 312.704H1388.3M1175.89 291.423H1267.06M1175.89 291.423H1084.71M1175.89 291.423L1156.26 271.973M1267.06 291.423L1243.51 271.973M1267.06 291.423H1358.24M1121.68 237.699H1202.02M1121.68 237.699L1106.37 222.522M1121.68 237.699H1041.34M1121.68 237.699L1138.26 254.129M1202.02 237.699L1183.64 222.522M1202.02 237.699L1221.91 254.129M1202.02 237.699H1282.35M1106.37 222.522H1183.64M1106.37 222.522H1029.09M1106.37 222.522L1092.18 208.46M1183.64 222.522L1166.61 208.46M1183.64 222.522H1260.91M1066.71 183.221H1136.06M1066.71 183.221L1055.24 171.854M1066.71 183.221H997.37M1066.71 183.221L1079 195.393M1136.06 183.221L1122.29 171.854M1136.06 183.221L1150.79 195.393M1136.06 183.221H1205.4M1055.24 171.854H1122.29M1055.24 171.854H988.195M1055.24 171.854L1044.51 161.216M1122.29 171.854L1109.41 161.216M1122.29 171.854H1189.34M1024.98 141.858H1085.98M1024.98 141.858L1016.07 133.028M1024.98 141.858H963.983M1024.98 141.858L1034.44 151.237M1085.98 141.858L1075.28 133.028M1085.98 141.858L1097.33 151.237M1085.98 141.858H1146.97M1016.07 133.028H1075.28M1016.07 133.028H956.856M1016.07 133.028L1007.67 124.699M1075.28 133.028L1065.2 124.699M1075.28 133.028H1134.5M992.213 109.383H1046.66M992.213 109.383L985.093 102.327M992.213 109.383H937.77M992.213 109.383L999.726 116.83M1046.66 109.383L1038.11 102.327M1046.66 109.383L1055.67 116.83M1046.66 109.383H1101.1M985.093 102.327H1038.11M985.093 102.327H932.074M985.093 102.327L978.335 95.6294M1038.11 102.327L1030 95.6294M1038.11 102.327H1091.13M965.805 83.2097H1014.97M965.805 83.2097L959.984 77.4411M965.805 83.2097H916.643M965.805 83.2097L971.914 89.2654M1014.97 83.2097L1007.98 77.4411M1014.97 83.2097L1022.3 89.2654M1014.97 83.2097H1064.13M959.984 77.4411H1007.98M959.984 77.4411H911.987M959.984 77.4411L954.433 71.9393M1007.98 77.4411L1001.32 71.9393M1007.98 77.4411H1055.98M944.067 61.6653L944.687 62.2808L945.312 62.8995L949.132 66.6862M944.067 61.6653H988.88M944.067 61.6653L939.22 56.862M944.067 61.6653H899.253M988.88 61.6653L983.064 56.862M988.88 61.6653L994.959 66.6862M988.88 61.6653H1033.69M939.22 56.862H983.064M939.22 56.862H895.376M939.22 56.862L934.579 52.2618M983.064 56.862L977.494 52.2618M983.064 56.862H1026.91M925.861 43.622H967.034M925.861 43.622L921.763 39.5602M925.861 43.622H884.689M925.861 43.622L930.129 47.8522M967.034 43.622L963.936 41.0644L962.116 39.5602M967.034 43.622L972.155 47.8522M967.034 43.622H1008.21M921.763 39.5602H962.116M921.763 39.5602H881.41M921.763 39.5602L918.309 36.1362L917.824 35.6569M962.116 39.5602L957.389 35.6569M962.116 39.5602H1002.47M910.392 28.2903H948.47M910.392 28.2903L909.502 27.4079L906.881 24.8109M910.392 28.2903H872.314M910.392 28.2903L911.29 29.1805L913.113 30.9868L914.037 31.9029M948.47 28.2903L944.257 24.8109M948.47 28.2903L950.091 29.6292L951.185 30.5323L952.844 31.9029M948.47 28.2903H986.549M906.881 24.8109H944.257M906.881 24.8109H869.504M906.881 24.8109L904.332 22.2838L903.497 21.4573M944.257 24.8109L942.717 23.5388L941.702 22.7004L940.197 21.4573M944.257 24.8109H981.634M897.085 15.1016H932.502M897.085 15.1016L895.172 13.2057L894.044 12.0875M897.085 15.1016H861.668M897.085 15.1016L900.234 18.223M932.502 15.1016L929.753 12.8316L929.302 12.4585L928.852 12.0875M932.502 15.1016L934.375 16.6483L936.281 18.223M932.502 15.1016H967.919M894.044 12.0875H928.852M894.044 12.0875L892.562 10.6191L891.831 9.89415L891.467 9.53404L891.106 9.17547M894.044 12.0875H859.235M928.852 12.0875H963.662M928.852 12.0875L925.326 9.17547M1415.46 222.522H1338.19M1415.46 222.522L1389.92 208.46M1415.46 222.522H1438.61M1415.46 222.522L1438.61 235.27M1344.08 183.221H1413.43M1344.08 183.221L1323.44 171.854M1344.08 183.221H1274.74M1344.08 183.221L1366.19 195.393M1413.43 183.221L1390.49 171.854M1413.43 183.221L1437.99 195.393M1413.43 183.221H1438.61M1323.44 171.854H1390.49M1323.44 171.854H1256.39M1323.44 171.854L1304.12 161.216M1390.49 171.854L1369.02 161.216M1390.49 171.854H1438.61M1268.96 141.858H1329.96M1268.96 141.858L1252.93 133.028M1268.96 141.858H1207.97M1268.96 141.858L1286 151.237M1329.96 141.858L1312.14 133.028M1329.96 141.858L1348.88 151.237M1329.96 141.858H1390.95M1252.93 133.028H1312.14M1252.93 133.028H1193.71M1252.93 133.028L1237.8 124.699M1312.14 133.028L1295.33 124.699M1312.14 133.028H1371.35M1209.98 109.383H1264.43M1209.98 109.383L1197.17 102.327M1209.98 109.383H1155.54M1209.98 109.383L1223.51 116.83M1264.43 109.383L1250.19 102.327M1264.43 109.383L1279.45 116.83M1264.43 109.383H1318.87M1197.17 102.327H1250.19M1197.17 102.327H1144.15M1197.17 102.327L1185 95.6294M1250.19 102.327L1236.67 95.6294M1250.19 102.327H1303.2M1162.45 83.2097H1211.61M1162.45 83.2097L1151.97 77.4411M1162.45 83.2097H1113.29M1162.45 83.2097L1173.45 89.2654M1211.61 83.2097L1199.97 77.4411M1211.61 83.2097L1223.83 89.2654M1211.61 83.2097H1260.77M1151.97 77.4411H1199.97M1151.97 77.4411H1103.97M1151.97 77.4411L1141.98 71.9393M1199.97 77.4411L1188.87 71.9393M1199.97 77.4411H1247.96M1123.32 61.6653H1168.13M1123.32 61.6653L1114.6 56.862M1123.32 61.6653H1078.51M1123.32 61.6653L1132.44 66.6862M1168.13 61.6653L1158.44 56.862M1168.13 61.6653L1178.26 66.6862M1168.13 61.6653H1212.95M1114.6 56.862H1158.44M1114.6 56.862H1070.75M1114.6 56.862L1106.24 52.2618M1158.44 56.862L1149.16 52.2618M1158.44 56.862H1202.28M1090.55 43.622H1131.72M1090.55 43.622L1083.17 39.5602M1090.55 43.622H1049.38M1090.55 43.622L1098.23 47.8522M1131.72 43.622L1123.53 39.5602M1131.72 43.622L1140.26 47.8522M1131.72 43.622H1172.89M1083.17 39.5602H1123.53M1083.17 39.5602H1042.82M1083.17 39.5602L1076.08 35.6569M1123.53 39.5602L1115.65 35.6569M1123.53 39.5602H1163.88M1062.71 28.2903H1100.78M1062.71 28.2903L1056.39 24.8109M1062.71 28.2903H1024.63M1062.71 28.2903L1064.32 29.1805L1065.14 29.6292L1069.27 31.9029M1100.78 28.2903L1093.76 24.8109M1100.78 28.2903L1108.07 31.9029M1100.78 28.2903H1138.86M1056.39 24.8109H1093.76M1056.39 24.8109H1019.01M1056.39 24.8109L1050.3 21.4573M1093.76 24.8109L1086.99 21.4573M1093.76 24.8109H1131.14M1038.75 15.1016H1074.17M1038.75 15.1016L1033.28 12.0875M1038.75 15.1016H1003.34M1038.75 15.1016L1044.42 18.223M1074.17 15.1016L1069.59 12.8316L1068.84 12.4585L1068.09 12.0875M1074.17 15.1016L1080.47 18.223M1074.17 15.1016H1109.59M1033.28 12.0875H1068.09M1033.28 12.0875L1028.64 9.53404L1027.99 9.17547M1033.28 12.0875H998.47M1068.09 12.0875H1102.9M1068.09 12.0875L1062.21 9.17547M1427.75 109.383L1409.24 102.327M1427.75 109.383H1373.31M1427.75 109.383L1438.61 113.523M1427.75 109.383H1438.61M1409.24 102.327H1356.22M1409.24 102.327L1391.67 95.6294M1409.24 102.327H1438.61M1359.09 83.2097H1408.25M1359.09 83.2097L1343.96 77.4411M1359.09 83.2097H1309.93M1359.09 83.2097L1374.98 89.2654M1408.25 83.2097L1391.95 77.4411M1408.25 83.2097L1425.36 89.2654M1408.25 83.2097H1438.61M1343.96 77.4411H1391.95M1343.96 77.4411H1295.96M1343.96 77.4411L1329.52 71.9393M1391.95 77.4411L1376.41 71.9393M1391.95 77.4411H1438.61M1302.57 61.6653H1347.39M1302.57 61.6653L1289.97 56.862M1302.57 61.6653H1257.76M1302.57 61.6653L1315.74 66.6862M1347.39 61.6653L1333.82 56.862M1347.39 61.6653L1361.57 66.6862M1347.39 61.6653H1392.2M1289.97 56.862H1333.82M1289.97 56.862H1246.13M1289.97 56.862L1277.9 52.2618M1333.82 56.862L1320.82 52.2618M1333.82 56.862H1377.66M1255.24 43.622H1296.41M1255.24 43.622L1244.58 39.5602M1255.24 43.622H1214.07M1255.24 43.622L1266.34 47.8522M1296.41 43.622L1284.94 39.5602M1296.41 43.622L1308.36 47.8522M1296.41 43.622H1337.58M1244.58 39.5602H1284.94M1244.58 39.5602H1204.23M1244.58 39.5602L1234.34 35.6569M1284.94 39.5602L1273.91 35.6569M1284.94 39.5602H1325.29M1215.02 28.2903H1253.1M1215.02 28.2903L1205.89 24.8109M1215.02 28.2903H1176.94M1215.02 28.2903L1224.5 31.9029M1253.1 28.2903L1243.27 24.8109M1253.1 28.2903L1263.3 31.9029M1253.1 28.2903H1291.18M1205.89 24.8109H1243.27M1205.89 24.8109H1168.51M1205.89 24.8109L1197.09 21.4573M1243.27 24.8109L1233.79 21.4573M1243.27 24.8109H1280.64M1180.42 15.1016H1215.84M1180.42 15.1016L1172.51 12.0875M1180.42 15.1016H1145M1180.42 15.1016L1188.61 18.223M1215.84 15.1016L1207.32 12.0875M1215.84 15.1016L1224.66 18.223M1215.84 15.1016H1251.25M1172.51 12.0875H1207.32M1172.51 12.0875L1164.87 9.17547M1172.51 12.0875H1137.71M1207.32 12.0875H1242.13M1207.32 12.0875L1199.09 9.17547M1419.93 43.622L1405.99 39.5602M1419.93 43.622H1378.76M1419.93 43.622L1434.44 47.8522M1419.93 43.622H1438.61M1405.99 39.5602H1365.64M1405.99 39.5602L1392.6 35.6569M1405.99 39.5602H1438.61M1367.33 28.2903H1405.41M1367.33 28.2903L1355.4 24.8109M1367.33 28.2903H1329.25M1367.33 28.2903L1379.73 31.9029M1405.41 28.2903L1392.77 24.8109M1405.41 28.2903L1418.53 31.9029M1405.41 28.2903H1438.61M1355.4 24.8109H1392.77M1355.4 24.8109H1318.02M1355.4 24.8109L1343.89 21.4573M1392.77 24.8109L1380.59 21.4573M1392.77 24.8109H1430.15M1322.09 15.1016H1357.51M1322.09 15.1016L1311.75 12.0875M1322.09 15.1016H1286.67M1322.09 15.1016L1332.8 18.223M1357.51 15.1016L1346.56 12.0875M1357.51 15.1016L1368.84 18.223M1357.51 15.1016H1392.92M1311.75 12.0875H1346.56M1311.75 12.0875L1301.76 9.17547M1311.75 12.0875H1276.94M1346.56 12.0875H1381.37M1346.56 12.0875L1335.98 9.17547M1368.84 18.223L1380.59 21.4573M1368.84 18.223H1404.89M1368.84 18.223H1332.8M1392.92 15.1016L1381.37 12.0875M1392.92 15.1016L1404.89 18.223M1392.92 15.1016H1428.34M1381.37 12.0875H1416.18M1381.37 12.0875L1370.2 9.17547M1335.98 9.17547H1301.76M1335.98 9.17547H1370.2M1335.98 9.17547L1325.75 6.35981M1404.89 18.223L1417.29 21.4573M1404.89 18.223H1438.61M1428.34 15.1016L1416.18 12.0875M1428.34 15.1016L1438.61 17.6471M1428.34 15.1016H1438.61M1416.18 12.0875L1404.42 9.17547M1416.18 12.0875H1438.61M1370.2 9.17547H1404.42M1370.2 9.17547L1359.41 6.35981M1404.42 9.17547L1393.06 6.35981M1404.42 9.17547H1438.61M1380.59 21.4573H1417.29M1380.59 21.4573H1343.89M1430.15 24.8109L1417.29 21.4573M1430.15 24.8109L1438.61 27.0183M1430.15 24.8109H1438.61M1417.29 21.4573H1438.61M1343.89 21.4573H1307.19M1343.89 21.4573L1332.8 18.223M1332.8 18.223H1296.75M1418.53 31.9029L1432.17 35.6569M1418.53 31.9029H1379.73M1418.53 31.9029H1438.61M1438.73 28.2903H1438.61M1432.17 35.6569H1392.6M1432.17 35.6569L1438.61 37.4311M1432.17 35.6569H1438.61M1392.6 35.6569H1353.04M1392.6 35.6569L1379.73 31.9029M1379.73 31.9029H1340.92M1224.66 18.223L1233.79 21.4573M1224.66 18.223H1260.7M1224.66 18.223H1188.61M1251.25 15.1016L1242.13 12.0875M1251.25 15.1016L1260.7 18.223M1251.25 15.1016H1286.67M1242.13 12.0875H1276.94M1242.13 12.0875L1233.32 9.17547M1199.09 9.17547H1233.32M1199.09 9.17547L1191.14 6.35981M1199.09 9.17547H1164.87M1260.7 18.223L1270.49 21.4573M1260.7 18.223H1296.75M1286.67 15.1016L1276.94 12.0875M1286.67 15.1016L1296.75 18.223M1276.94 12.0875L1267.54 9.17547M1233.32 9.17547H1267.54M1233.32 9.17547L1224.79 6.35981M1296.75 18.223L1307.19 21.4573M1301.76 9.17547H1267.54M1301.76 9.17547L1292.1 6.35981M1267.54 9.17547L1258.45 6.35981M1233.79 21.4573H1270.49M1233.79 21.4573H1197.09M1280.64 24.8109L1270.49 21.4573M1280.64 24.8109L1291.18 28.2903M1280.64 24.8109H1318.02M1270.49 21.4573H1307.19M1197.09 21.4573H1160.39M1197.09 21.4573L1188.61 18.223M1307.19 21.4573L1318.02 24.8109M1188.61 18.223H1152.56M1291.18 28.2903L1302.11 31.9029M1291.18 28.2903H1329.25M1318.02 24.8109L1329.25 28.2903M1329.25 28.2903L1340.92 31.9029M1263.3 31.9029L1273.91 35.6569M1263.3 31.9029H1302.11M1263.3 31.9029H1224.5M1302.11 31.9029L1313.47 35.6569M1302.11 31.9029H1340.92M1340.92 31.9029L1353.04 35.6569M1273.91 35.6569H1313.47M1273.91 35.6569H1234.34M1325.29 39.5602L1313.47 35.6569M1325.29 39.5602L1337.58 43.622M1325.29 39.5602H1365.64M1313.47 35.6569H1353.04M1234.34 35.6569H1194.78M1234.34 35.6569L1224.5 31.9029M1353.04 35.6569L1365.64 39.5602M1224.5 31.9029H1185.69M1337.58 43.622L1350.39 47.8522M1337.58 43.622H1378.76M1365.64 39.5602L1378.76 43.622M1378.76 43.622L1392.41 47.8522M1308.36 47.8522L1320.82 52.2618M1308.36 47.8522H1350.39M1308.36 47.8522H1266.34M1350.39 47.8522L1363.74 52.2618M1350.39 47.8522H1392.41M1392.41 47.8522L1406.65 52.2618M1392.41 47.8522H1434.44M1434.44 47.8522H1438.61M1434.44 47.8522L1438.61 49.0685M1320.82 52.2618H1363.74M1320.82 52.2618H1277.9M1377.66 56.862L1363.74 52.2618M1377.66 56.862L1392.2 61.6653M1377.66 56.862H1421.5M1363.74 52.2618H1406.65M1277.9 52.2618H1234.99M1277.9 52.2618L1266.34 47.8522M1406.65 52.2618L1421.5 56.862M1406.65 52.2618H1438.61M1266.34 47.8522H1224.31M1392.2 61.6653L1407.4 66.6862M1392.2 61.6653H1437.01M1421.5 56.862L1437.01 61.6653M1421.5 56.862H1438.61M1438.84 52.2618H1438.61M1437.01 61.6653L1438.61 62.161M1437.01 61.6653H1438.61M1361.57 66.6862L1376.41 71.9393M1361.57 66.6862H1407.4M1361.57 66.6862H1315.74M1407.4 66.6862L1423.3 71.9393M1407.4 66.6862H1438.61M1439 62.2808L1438.61 62.161M1376.41 71.9393H1423.3M1376.41 71.9393H1329.52M1423.3 71.9393H1438.61M1423.3 71.9393L1438.61 76.9989M1329.52 71.9393H1282.64M1329.52 71.9393L1315.74 66.6862M1315.74 66.6862H1269.92M1425.36 89.2654H1374.98M1425.36 89.2654L1438.61 93.9564M1425.36 89.2654H1438.61M1438.98 83.2097H1438.61M1374.98 89.2654H1324.59M1374.98 89.2654L1391.67 95.6294M1438.76 94.0081L1438.61 93.9564M1080.47 18.223L1086.99 21.4573M1080.47 18.223H1116.51M1080.47 18.223H1044.42M1109.59 15.1016L1102.9 12.0875M1109.59 15.1016L1116.51 18.223M1109.59 15.1016H1145M1102.9 12.0875H1137.71M1102.9 12.0875L1096.43 9.17547M1062.21 9.17547H1096.43M1062.21 9.17547L1060.06 8.10859L1056.53 6.35981M1062.21 9.17547H1027.99M1116.51 18.223L1123.69 21.4573M1116.51 18.223H1152.56M1145 15.1016L1137.71 12.0875M1145 15.1016L1152.56 18.223M1137.71 12.0875L1130.65 9.17547M1096.43 9.17547H1130.65M1096.43 9.17547L1090.18 6.35981M1152.56 18.223L1160.39 21.4573M1164.87 9.17547L1157.49 6.35981M1164.87 9.17547H1130.65M1130.65 9.17547L1129.79 8.81794L1128.07 8.10859L1123.84 6.35981M1086.99 21.4573H1123.69M1086.99 21.4573H1050.3M1131.14 24.8109L1123.69 21.4573M1131.14 24.8109L1138.86 28.2903M1131.14 24.8109H1168.51M1123.69 21.4573H1160.39M1050.3 21.4573H1013.6M1050.3 21.4573L1044.42 18.223M1160.39 21.4573L1168.51 24.8109M1044.42 18.223H1008.37M1138.86 28.2903L1146.88 31.9029M1138.86 28.2903H1176.94M1168.51 24.8109L1169.55 25.2383L1176.94 28.2903M1176.94 28.2903L1185.69 31.9029M1108.07 31.9029L1109 32.3645L1115.65 35.6569M1108.07 31.9029H1146.88M1108.07 31.9029H1069.27M1146.88 31.9029L1155.21 35.6569M1146.88 31.9029H1185.69M1185.69 31.9029L1194.78 35.6569M1115.65 35.6569H1155.21M1115.65 35.6569H1076.08M1163.88 39.5602L1155.21 35.6569M1163.88 39.5602L1172.89 43.622M1163.88 39.5602H1204.23M1155.21 35.6569H1194.78M1076.08 35.6569H1036.52M1076.08 35.6569L1069.27 31.9029M1194.78 35.6569L1204.23 39.5602M1069.27 31.9029H1030.46M1172.89 43.622L1182.28 47.8522M1172.89 43.622H1214.07M1204.23 39.5602L1214.07 43.622M1214.07 43.622L1224.31 47.8522M1140.26 47.8522L1149.16 52.2618M1140.26 47.8522H1182.28M1140.26 47.8522H1098.23M1182.28 47.8522L1192.07 52.2618M1182.28 47.8522H1224.31M1224.31 47.8522L1234.99 52.2618M1149.16 52.2618H1192.07M1149.16 52.2618H1106.24M1202.28 56.862L1192.07 52.2618M1202.28 56.862L1212.95 61.6653M1202.28 56.862H1246.13M1192.07 52.2618H1234.99M1106.24 52.2618H1063.33M1106.24 52.2618L1098.23 47.8522M1234.99 52.2618L1246.13 56.862M1098.23 47.8522H1056.21M1212.95 61.6653L1224.09 66.6862M1212.95 61.6653H1257.76M1246.13 56.862L1257.76 61.6653M1257.76 61.6653L1269.92 66.6862M1178.26 66.6862L1188.87 71.9393M1178.26 66.6862H1224.09M1178.26 66.6862H1132.44M1224.09 66.6862L1235.75 71.9393M1224.09 66.6862H1269.92M1269.92 66.6862L1282.64 71.9393M1188.87 71.9393H1235.75M1188.87 71.9393H1141.98M1247.96 77.4411L1235.75 71.9393M1247.96 77.4411L1260.77 83.2097M1247.96 77.4411H1295.96M1235.75 71.9393H1282.64M1141.98 71.9393H1095.09M1141.98 71.9393L1132.44 66.6862M1282.64 71.9393L1295.96 77.4411M1132.44 66.6862H1086.61M1260.77 83.2097L1274.21 89.2654M1260.77 83.2097H1309.93M1295.96 77.4411L1309.93 83.2097M1309.93 83.2097L1324.59 89.2654M1223.83 89.2654L1236.67 95.6294M1223.83 89.2654H1274.21M1223.83 89.2654H1173.45M1274.21 89.2654L1288.34 95.6294M1274.21 89.2654H1324.59M1324.59 89.2654L1340.01 95.6294M1236.67 95.6294H1288.34M1236.67 95.6294H1185M1303.2 102.327L1288.34 95.6294M1303.2 102.327L1318.87 109.383M1303.2 102.327H1356.22M1288.34 95.6294H1340.01M1185 95.6294H1133.34M1185 95.6294L1173.45 89.2654M1340.01 95.6294L1356.22 102.327M1340.01 95.6294H1391.67M1173.45 89.2654H1123.06M1318.87 109.383L1335.4 116.83M1318.87 109.383H1373.31M1356.22 102.327L1373.31 109.383M1391.67 95.6294H1438.61M1373.31 109.383L1391.34 116.83M1279.45 116.83L1295.33 124.699M1279.45 116.83H1335.4M1279.45 116.83H1223.51M1335.4 116.83L1352.87 124.699M1335.4 116.83H1391.34M1391.34 116.83L1410.4 124.699M1391.34 116.83H1438.61M1295.33 124.699H1352.87M1295.33 124.699H1237.8M1371.35 133.028L1352.87 124.699M1371.35 133.028L1390.95 141.858M1371.35 133.028H1430.57M1352.87 124.699H1410.4M1237.8 124.699H1180.27M1237.8 124.699L1223.51 116.83M1410.4 124.699L1430.57 133.028M1410.4 124.699H1438.61M1223.51 116.83H1167.56M1390.95 141.858L1411.77 151.237M1390.95 141.858H1438.61M1430.57 133.028H1438.61M1430.57 133.028L1438.61 136.351M1348.88 151.237L1369.02 161.216M1348.88 151.237H1411.77M1348.88 151.237H1286M1411.77 151.237L1433.92 161.216M1411.77 151.237H1438.61M1369.02 161.216H1433.92M1369.02 161.216H1304.12M1433.92 161.216L1438.61 163.329M1433.92 161.216H1438.61M1304.12 161.216H1239.22M1304.12 161.216L1286 151.237M1286 151.237H1223.11M1437.99 195.393H1366.19M1437.99 195.393H1438.61M1437.99 195.393L1438.61 195.702M1366.19 195.393H1294.39M1366.19 195.393L1389.92 208.46M936.281 18.223L937.733 19.422L938.221 19.8257L940.197 21.4573M936.281 18.223H972.328M936.281 18.223H900.234M967.919 15.1016L964.712 12.8316L963.662 12.0875M967.919 15.1016L971.768 17.8266L972.328 18.223M967.919 15.1016H1003.34M963.662 12.0875H998.47M963.662 12.0875L959.547 9.17547M925.326 9.17547H959.547M925.326 9.17547L924.034 8.10859L921.918 6.35981M925.326 9.17547H891.106M972.328 18.223L973.455 19.0204L976.897 21.4573M972.328 18.223H1008.37M1003.34 15.1016L998.47 12.0875M1003.34 15.1016L1008.37 18.223M998.47 12.0875L994.929 9.89415L993.768 9.17547M959.547 9.17547H993.768M959.547 9.17547L955.57 6.35981M1008.37 18.223L1013.6 21.4573M1027.99 9.17547L1027.34 8.81794L1022.88 6.35981M1027.99 9.17547H993.768M993.768 9.17547L992.046 8.10859L989.223 6.35981M940.197 21.4573H976.897M940.197 21.4573H903.497M981.634 24.8109L976.897 21.4573M981.634 24.8109L986.549 28.2903M981.634 24.8109H1019.01M976.897 21.4573H1013.6M903.497 21.4573H866.798M903.497 21.4573L900.234 18.223M1013.6 21.4573L1019.01 24.8109M900.234 18.223H864.187M986.549 28.2903L989.715 30.5323L990.358 30.9868L991.651 31.9029M986.549 28.2903H1024.63M1019.01 24.8109L1024.63 28.2903M1024.63 28.2903L1030.46 31.9029M952.844 31.9029L957.389 35.6569M952.844 31.9029H991.651M952.844 31.9029H914.037M991.651 31.9029L996.954 35.6569M991.651 31.9029H1030.46M1030.46 31.9029L1036.52 35.6569M957.389 35.6569H996.954M957.389 35.6569H917.824M1002.47 39.5602L998.996 37.1026L998.313 36.6181L996.954 35.6569M1002.47 39.5602L1008.21 43.622M1002.47 39.5602H1042.82M996.954 35.6569H1036.52M917.824 35.6569H878.26M917.824 35.6569L914.037 31.9029M1036.52 35.6569L1042.82 39.5602M914.037 31.9029H875.229M1008.21 43.622L1014.18 47.8522M1008.21 43.622H1049.38M1042.82 39.5602L1049.38 43.622M1049.38 43.622L1056.21 47.8522M972.155 47.8522L974.797 50.0337L975.465 50.5866L977.494 52.2618M972.155 47.8522H1014.18M972.155 47.8522H930.129M1014.18 47.8522L1020.41 52.2618M1014.18 47.8522H1056.21M1056.21 47.8522L1063.33 52.2618M977.494 52.2618H1020.41M977.494 52.2618H934.579M1026.91 56.862L1020.41 52.2618M1026.91 56.862L1033.69 61.6653M1026.91 56.862H1070.75M1020.41 52.2618H1063.33M934.579 52.2618H891.662M934.579 52.2618L933.448 51.142L930.129 47.8522M1063.33 52.2618L1070.75 56.862M930.129 47.8522H888.104M1033.69 61.6653L1040.79 66.6862M1033.69 61.6653H1078.51M1070.75 56.862L1078.51 61.6653M1078.51 61.6653L1086.61 66.6862M994.959 66.6862L1001.32 71.9393M994.959 66.6862H1040.79M994.959 66.6862H949.132M1040.79 66.6862L1048.21 71.9393M1040.79 66.6862H1086.61M1086.61 66.6862L1095.09 71.9393M1001.32 71.9393H1048.21M1001.32 71.9393H954.433M1055.98 77.4411L1048.21 71.9393M1055.98 77.4411L1064.13 83.2097M1055.98 77.4411H1103.97M1048.21 71.9393H1095.09M954.433 71.9393H907.546M954.433 71.9393L949.132 66.6862M1095.09 71.9393L1103.97 77.4411M949.132 66.6862H903.306M1064.13 83.2097L1072.68 89.2654M1064.13 83.2097H1113.29M1103.97 77.4411L1113.29 83.2097M1113.29 83.2097L1123.06 89.2654M1022.3 89.2654L1030 95.6294M1022.3 89.2654H1072.68M1022.3 89.2654H971.914M1072.68 89.2654L1081.67 95.6294M1072.68 89.2654H1123.06M1123.06 89.2654L1133.34 95.6294M1030 95.6294H1081.67M1030 95.6294H978.335M1091.13 102.327L1081.67 95.6294M1091.13 102.327L1101.1 109.383M1091.13 102.327H1144.15M1081.67 95.6294H1133.34M978.335 95.6294H926.669M978.335 95.6294L971.914 89.2654M1133.34 95.6294L1144.15 102.327M971.914 89.2654H921.531M1101.1 109.383L1111.62 116.83M1101.1 109.383H1155.54M1144.15 102.327L1155.54 109.383M1155.54 109.383L1167.56 116.83M1055.67 116.83L1065.2 124.699M1055.67 116.83H1111.62M1055.67 116.83H999.726M1111.62 116.83L1122.73 124.699M1111.62 116.83H1167.56M1167.56 116.83L1180.27 124.699M1065.2 124.699H1122.73M1065.2 124.699H1007.67M1134.5 133.028L1122.73 124.699M1134.5 133.028L1146.97 141.858M1134.5 133.028H1193.71M1122.73 124.699H1180.27M1007.67 124.699H950.133M1007.67 124.699L999.726 116.83M1180.27 124.699L1193.71 133.028M999.726 116.83H943.781M1146.97 141.858L1160.22 151.237M1146.97 141.858H1207.97M1193.71 133.028L1207.97 141.858M1207.97 141.858L1223.11 151.237M1097.33 151.237L1109.41 161.216M1097.33 151.237H1160.22M1097.33 151.237H1034.44M1160.22 151.237L1174.31 161.216M1160.22 151.237H1223.11M1223.11 151.237L1239.22 161.216M1109.41 161.216H1174.31M1109.41 161.216H1044.51M1189.34 171.854L1174.31 161.216M1189.34 171.854L1205.4 183.221M1189.34 171.854H1256.39M1174.31 161.216H1239.22M1044.51 161.216H979.608M1044.51 161.216L1034.44 151.237M1239.22 161.216L1256.39 171.854M1034.44 151.237H971.554M1205.4 183.221L1222.59 195.393M1205.4 183.221H1274.74M1256.39 171.854L1274.74 183.221M1274.74 183.221L1294.39 195.393M1150.79 195.393L1166.61 208.46M1150.79 195.393H1222.59M1150.79 195.393H1079M1222.59 195.393L1241.05 208.46M1222.59 195.393H1294.39M1294.39 195.393L1315.49 208.46M1166.61 208.46H1241.05M1166.61 208.46H1092.18M1260.91 222.522L1241.05 208.46M1260.91 222.522L1282.35 237.699M1260.91 222.522H1338.19M1241.05 208.46H1315.49M1092.18 208.46H1017.74M1092.18 208.46L1079 195.393M1315.49 208.46L1338.19 222.522M1315.49 208.46H1389.92M1079 195.393H1007.2M1282.35 237.699L1305.56 254.129M1282.35 237.699H1362.69M1338.19 222.522L1362.69 237.699M1389.92 208.46H1438.61M1362.69 237.699L1389.21 254.129M1362.69 237.699H1438.61M1221.91 254.129L1243.51 271.973M1221.91 254.129H1305.56M1221.91 254.129H1138.26M1305.56 254.129L1330.77 271.973M1305.56 254.129H1389.21M1389.21 254.129L1418.02 271.973M1389.21 254.129H1438.61M1243.51 271.973H1330.77M1243.51 271.973H1156.26M1358.24 291.423L1330.77 271.973M1358.24 291.423L1388.3 312.704M1358.24 291.423H1438.61M1330.77 271.973H1418.02M1156.26 271.973H1069.01M1156.26 271.973L1138.26 254.129M1418.02 271.973H1438.61M1418.02 271.973L1438.61 284.73M1138.26 254.129H1054.61M1388.3 312.704L1421.34 336.09M1388.3 312.704H1438.61M1321.15 336.09L1352.4 361.909M1321.15 336.09H1421.34M1321.15 336.09H1220.95M1421.34 336.09L1438.61 348.321M1421.34 336.09H1438.61M1352.4 361.909H1247M1352.4 361.909L1438.61 361.908M1247 361.909H1141.6M1247 361.909L1220.95 336.09M1220.95 336.09H1120.76M792.093 18.223L792.254 18.621L792.415 19.0204L792.578 19.422L792.74 19.8257L793.234 21.0464L793.399 21.4573M792.093 18.223H828.141M792.093 18.223H756.047M826.251 15.1016L824.876 12.8316L824.426 12.0875M826.251 15.1016L827.424 17.0395L828.141 18.223M826.251 15.1016H861.668M824.426 12.0875H859.235M824.426 12.0875L823.099 9.89415L822.663 9.17547M788.442 9.17547L788.298 8.81794L787.728 7.40441L787.306 6.35981M788.442 9.17547H822.663M788.442 9.17547H754.221M828.141 18.223L828.381 18.621L828.624 19.0204L828.866 19.422L829.111 19.8257L830.098 21.4573M828.141 18.223H864.187M861.668 15.1016L859.835 12.8316L859.235 12.0875M861.668 15.1016L864.187 18.223M859.235 12.0875L858.049 10.6191L857.173 9.53404L856.885 9.17547M822.663 9.17547L822.447 8.81794L822.018 8.10859L821.591 7.40441L821.38 7.05466L820.958 6.35981M822.663 9.17547H856.885M864.187 18.223L866.137 20.6376L866.798 21.4573M891.106 9.17547L888.966 7.05466L888.265 6.35981M891.106 9.17547H856.885M856.885 9.17547L854.892 6.70646L854.611 6.35981M793.399 21.4573H830.098M793.399 21.4573H756.699M832.128 24.8109L830.098 21.4573M832.128 24.8109L834.235 28.2903M832.128 24.8109H869.504M830.098 21.4573H866.798M756.699 21.4573H720M756.699 21.4573L756.047 18.223M866.798 21.4573L869.504 24.8109M756.047 18.223H720M834.235 28.2903L834.774 29.1805L835.593 30.5323L836.422 31.9029M834.235 28.2903H872.314M869.504 24.8109L869.85 25.2383L872.314 28.2903M872.314 28.2903L872.672 28.7343L873.032 29.1805L873.394 29.6292L875.229 31.9029M797.615 31.9029L799.13 35.6569M797.615 31.9029H836.422M797.615 31.9029H758.807M836.422 31.9029L838.695 35.6569M836.422 31.9029H875.229M875.229 31.9029L877.491 34.7045L877.875 35.1797L878.26 35.6569M799.13 35.6569H838.695M799.13 35.6569H759.565M841.058 39.5602L841.36 40.0592L841.663 40.5602L841.968 41.0644L843.517 43.622M841.058 39.5602L839.865 37.5891L839.57 37.1026L839.277 36.6181L838.695 35.6569M841.058 39.5602H881.41M838.695 35.6569H878.26M759.565 35.6569H720M759.565 35.6569L758.807 31.9029M878.26 35.6569L881.41 39.5602M758.807 31.9029H720M843.517 43.622L845.752 47.3139L846.078 47.8522M843.517 43.622H884.689M881.41 39.5602L882.218 40.5602L884.689 43.622M884.689 43.622L885.953 45.1879L888.104 47.8522M804.052 47.8522L804.933 50.0337L805.155 50.5866L805.832 52.2618M804.052 47.8522H846.078M804.052 47.8522H762.026M846.078 47.8522L848.747 52.2618M846.078 47.8522H888.104M888.104 47.8522L891.662 52.2618M805.832 52.2618H848.747M805.832 52.2618H762.916M851.532 56.862L848.747 52.2618M851.532 56.862L854.44 61.6653M851.532 56.862H895.376M848.747 52.2618H891.662M762.916 52.2618H720M762.916 52.2618L762.689 51.142L762.245 48.9373L762.026 47.8522M891.662 52.2618L895.376 56.862M762.026 47.8522H720M854.44 61.6653L856.706 65.41L857.48 66.6862M854.44 61.6653H899.253M895.376 56.862L899.253 61.6653M899.253 61.6653L901.257 64.1478L903.306 66.6862M811.653 66.6862L813.773 71.9393M811.653 66.6862H857.48M811.653 66.6862H765.827M857.48 66.6862L860.66 71.9393M857.48 66.6862H903.306M903.306 66.6862L907.546 71.9393M813.773 71.9393H860.66M813.773 71.9393H766.887M863.991 77.4411L863.142 76.0415L860.66 71.9393M863.991 77.4411L867.483 83.2097M863.991 77.4411H911.987M860.66 71.9393H907.546M766.887 71.9393H720M766.887 71.9393L765.827 66.6862M907.546 71.9393L911.987 77.4411M765.827 66.6862H720M867.483 83.2097L871.148 89.2654M867.483 83.2097H916.643M911.987 77.4411L916.643 83.2097M916.643 83.2097L921.531 89.2654M820.766 89.2654L823.334 95.6294M820.766 89.2654H871.148M820.766 89.2654H770.383M871.148 89.2654L875.001 95.6294M871.148 89.2654H921.531M921.531 89.2654L926.669 95.6294M823.334 95.6294H875.001M823.334 95.6294H771.667M879.056 102.327L875.001 95.6294M879.056 102.327L883.328 109.383M879.056 102.327H932.074M875.001 95.6294H926.669M771.667 95.6294H720M771.667 95.6294L770.539 90.0437L770.383 89.2654M926.669 95.6294L932.074 102.327M770.383 89.2654H720M883.328 109.383L887.836 116.83M883.328 109.383H937.77M932.074 102.327L936.317 107.584L937.77 109.383M937.77 109.383L943.781 116.83M831.89 116.83L835.066 124.699M831.89 116.83H887.836M831.89 116.83H775.946M887.836 116.83L892.6 124.699M887.836 116.83H943.781M943.781 116.83L950.133 124.699M835.066 124.699H892.6M835.066 124.699H777.533M897.642 133.028L892.6 124.699M897.642 133.028L902.987 141.858M897.642 133.028H956.856M892.6 124.699H950.133M777.533 124.699H720M777.533 124.699L775.946 116.83M950.133 124.699L956.856 133.028M775.946 116.83H720M902.987 141.858L908.665 151.237M902.987 141.858H963.983M956.856 133.028L963.983 141.858M963.983 141.858L971.554 151.237M845.777 151.237L849.804 161.216M845.777 151.237H908.665M845.777 151.237H782.888M908.665 151.237L914.706 161.216M908.665 151.237H971.554M971.554 151.237L979.608 161.216M849.804 161.216H914.706M849.804 161.216H784.902M921.147 171.854L914.706 161.216M921.147 171.854L928.028 183.221M921.147 171.854H988.195M914.706 161.216H979.608M784.902 161.216H720M784.902 161.216L782.888 151.237M979.608 161.216L988.195 171.854M782.888 151.237H720M928.028 183.221L935.397 195.393M928.028 183.221H997.37M988.195 171.854L997.37 183.221M997.37 183.221L1007.2 195.393M863.598 195.393L868.871 208.46M863.598 195.393H935.397M863.598 195.393H791.799M935.397 195.393L943.307 208.46M935.397 195.393H1007.2M1007.2 195.393L1017.74 208.46M868.871 208.46H943.307M868.871 208.46H794.436M951.82 222.522L943.307 208.46M951.82 222.522L961.008 237.699M951.82 222.522H1029.09M943.307 208.46H1017.74M794.436 208.46H720M794.436 208.46L791.799 195.393M1017.74 208.46L1029.09 222.522M791.799 195.393H720M961.008 237.699L970.955 254.129M961.008 237.699H1041.34M1029.09 222.522L1041.34 237.699M1041.34 237.699L1054.61 254.129M887.303 254.129L894.505 271.973M887.303 254.129H970.955M887.303 254.129H803.652M970.955 254.129L981.757 271.973M970.955 254.129H1054.61M1054.61 254.129L1069.01 271.973M894.505 271.973H981.757M894.505 271.973H807.252M993.532 291.423L981.757 271.973M993.532 291.423L1006.42 312.704M993.532 291.423H1084.71M981.757 271.973H1069.01M807.252 271.973H720M807.252 271.973L803.652 254.129M1069.01 271.973L1084.71 291.423M803.652 254.129H720M1006.42 312.704L1020.57 336.09M1006.42 312.704H1101.89M1084.71 291.423L1101.89 312.704M1101.89 312.704L1120.76 336.09M920.382 336.09L930.801 361.909M920.382 336.09H1020.57M920.382 336.09H820.191M1020.57 336.09L1036.2 361.909M1020.57 336.09H1120.76M1120.76 336.09L1141.6 361.909M1036.2 361.909H930.801M1036.2 361.909H1141.6M930.801 361.909H825.401M825.401 361.909H720M825.401 361.909L820.191 336.09M820.191 336.09H720M647.907 18.223L647.746 18.621L647.585 19.0204L647.422 19.422L647.26 19.8257L646.932 20.6376L646.767 21.0464L646.601 21.4573M647.907 18.223H683.953M647.907 18.223H611.859M684.583 15.1016L685.192 12.0875M684.583 15.1016L683.953 18.223M684.583 15.1016H720M685.192 12.0875L685.266 11.7181L685.34 11.3502L685.414 10.9838L685.779 9.17547M685.192 12.0875H720M651.558 9.17547L651.702 8.81794L652.272 7.40441L652.694 6.35981M651.558 9.17547H685.779M651.558 9.17547H617.337M683.953 18.223L683.873 18.621L683.792 19.0204L683.711 19.422L683.301 21.4573M683.953 18.223H720M720 15.1016V12.0875M720 15.1016V18.223M720 12.0875V9.17547M685.779 9.17547H720M685.779 9.17547L685.994 8.10859L686.066 7.75573L686.347 6.35981M720 18.223V21.4573M754.221 9.17547L754.006 8.10859L753.934 7.75573L753.864 7.40441L753.793 7.05466L753.723 6.70646L753.653 6.35981M754.221 9.17547H720M720 9.17547V6.35981M646.601 21.4573H683.301M646.601 21.4573H609.902M682.624 24.8109L682.537 25.2383L682.451 25.6684L681.922 28.2903M682.624 24.8109L683.301 21.4573M682.624 24.8109H720M683.301 21.4573H720M609.902 21.4573H573.202M609.902 21.4573L610.397 20.6376L610.644 20.2309L610.889 19.8257L611.134 19.422L611.376 19.0204L611.619 18.621L611.859 18.223M720 21.4573V24.8109M611.859 18.223H575.813M681.922 28.2903L681.193 31.9029M681.922 28.2903H720M720 24.8109V28.2903M720 28.2903V31.9029M642.385 31.9029L640.87 35.6569M642.385 31.9029H681.193M642.385 31.9029H603.578M681.193 31.9029L680.435 35.6569M681.193 31.9029H720M720 31.9029V35.6569M640.87 35.6569H680.435M640.87 35.6569H601.305M679.648 39.5602L680.435 35.6569M679.648 39.5602L678.828 43.622M679.648 39.5602H720M680.435 35.6569H720M601.305 35.6569H561.741M601.305 35.6569L603.578 31.9029M720 35.6569V39.5602M603.578 31.9029H564.771M678.828 43.622L678.512 45.1879L678.191 46.7781L677.974 47.8522M678.828 43.622H720M720 39.5602V43.622M720 43.622V47.8522M635.949 47.8522L635.068 50.0337L634.845 50.5866L634.168 52.2618M635.949 47.8522H677.974M635.949 47.8522H593.922M677.974 47.8522L677.755 48.9373L677.311 51.142L677.085 52.2618M677.974 47.8522H720M720 47.8522V52.2618M634.168 52.2618H677.085M634.168 52.2618H591.253M676.156 56.862L676.274 56.2759L677.085 52.2618M676.156 56.862L675.187 61.6653M676.156 56.862H720M677.085 52.2618H720M591.253 52.2618H548.338M591.253 52.2618L593.922 47.8522M720 52.2618V56.862M593.922 47.8522H551.896M675.187 61.6653L674.174 66.6862M675.187 61.6653H720M720 56.862V61.6653M720 61.6653V66.6862M628.347 66.6862L626.227 71.9393M628.347 66.6862H674.174M628.347 66.6862H582.52M674.174 66.6862L673.114 71.9393M674.174 66.6862H720M720 66.6862V71.9393M626.227 71.9393H673.114M626.227 71.9393H579.341M672.003 77.4411L673.114 71.9393M672.003 77.4411L670.839 83.2097M672.003 77.4411H720M673.114 71.9393H720M579.341 71.9393H532.454M579.341 71.9393L582.52 66.6862M720 71.9393V77.4411M582.52 66.6862H536.694M670.839 83.2097L669.617 89.2654M670.839 83.2097H720M720 77.4411V83.2097M720 83.2097V89.2654M619.234 89.2654L616.666 95.6294M619.234 89.2654H669.617M619.234 89.2654H568.852M669.617 89.2654L668.333 95.6294M669.617 89.2654H720M720 89.2654V95.6294M616.666 95.6294H668.333M616.666 95.6294H564.999M666.981 102.327L668.333 95.6294M666.981 102.327L665.558 109.383M666.981 102.327H720M668.333 95.6294H720M564.999 95.6294H513.331M564.999 95.6294L568.852 89.2654M720 95.6294V102.327M568.852 89.2654H518.469M665.558 109.383L664.055 116.83M665.558 109.383H720M720 102.327V109.383M720 109.383V116.83M608.11 116.83L604.934 124.699M608.11 116.83H664.055M608.11 116.83H552.164M664.055 116.83L662.467 124.699M664.055 116.83H720M720 116.83V124.699M604.934 124.699H662.467M604.934 124.699H547.4M660.786 133.028L662.467 124.699M660.786 133.028L659.004 141.858M660.786 133.028H720M662.467 124.699H720M547.4 124.699H489.867M547.4 124.699L552.164 116.83M720 124.699V133.028M552.164 116.83H496.219M659.004 141.858L657.112 151.237M659.004 141.858H720M720 133.028V141.858M720 141.858V151.237M594.223 151.237L590.196 161.216M594.223 151.237H657.112M594.223 151.237H531.335M657.112 151.237L655.098 161.216M657.112 151.237H720M720 151.237V161.216M590.196 161.216H655.098M590.196 161.216H525.294M652.951 171.854L655.098 161.216M652.951 171.854L650.658 183.221M652.951 171.854H720M655.098 161.216H720M525.294 161.216H460.392M525.294 161.216L531.335 151.237M720 161.216V171.854M531.335 151.237H468.447M650.658 183.221L648.201 195.393M650.658 183.221H720M720 171.854V183.221M720 183.221V195.393M576.402 195.393L571.129 208.46M576.402 195.393H648.201M576.402 195.393H504.603M648.201 195.393L645.564 208.46M648.201 195.393H720M720 195.393V208.46M571.129 208.46H645.564M571.129 208.46H496.693M642.727 222.522L645.564 208.46M642.727 222.522L639.664 237.699M642.727 222.522H720M645.564 208.46H720M496.693 208.46H422.258M496.693 208.46L504.603 195.393M720 208.46V222.522M504.603 195.393H432.804M639.664 237.699L636.348 254.129M639.664 237.699H720M720 222.522V237.699M720 237.699V254.129M552.697 254.129L545.495 271.973M552.697 254.129H636.348M552.697 254.129H469.045M636.348 254.129L632.748 271.973M636.348 254.129H720M720 254.129V271.973M545.495 271.973H632.748M545.495 271.973H458.243M628.823 291.423L632.748 271.973M628.823 291.423L624.529 312.704M628.823 291.423H720M632.748 271.973H720M458.243 271.973H370.991M458.243 271.973L469.045 254.129M720 271.973V291.423M469.045 254.129H385.394M624.529 312.704L619.809 336.09M624.529 312.704H720M720 291.423V312.704M720 312.704V336.09M519.619 336.09L509.199 361.909M519.619 336.09H619.809M519.619 336.09H419.427M619.809 336.09L614.599 361.909M619.809 336.09H720M720 336.09V361.909M614.599 361.909H509.199M614.599 361.909H720M509.199 361.909H403.798M403.798 361.909H298.397M403.798 361.909L419.427 336.09M419.427 336.09H319.236M503.719 18.223L501.779 19.8257L499.804 21.4573M503.719 18.223H539.766M503.719 18.223H467.673M542.915 15.1016L545.956 12.0875M542.915 15.1016L539.766 18.223M542.915 15.1016H578.332M545.956 12.0875H580.765M545.956 12.0875L548.169 9.89415L548.895 9.17547M514.674 9.17547H548.895M514.674 9.17547L515.966 8.10859L518.083 6.35981M514.674 9.17547H480.453M539.766 18.223L536.503 21.4573M539.766 18.223H575.813M578.332 15.1016L580.765 12.0875M578.332 15.1016L575.813 18.223M580.765 12.0875L581.951 10.6191L582.827 9.53404L583.116 9.17547M548.895 9.17547H583.116M548.895 9.17547L551.034 7.05466L551.735 6.35981M575.813 18.223L573.863 20.6376L573.202 21.4573M617.337 9.17547L617.553 8.81794L617.982 8.10859L618.62 7.05466L619.042 6.35981M617.337 9.17547H583.116M583.116 9.17547L583.404 8.81794L583.977 8.10859L585.388 6.35981M499.804 21.4573H536.503M499.804 21.4573H463.103M533.119 24.8109L533.549 24.3849L533.977 23.9606L535.668 22.2838L536.503 21.4573M533.119 24.8109L530.498 27.4079L529.608 28.2903M533.119 24.8109H570.496M536.503 21.4573H573.202M463.103 21.4573H426.404M463.103 21.4573L466.545 19.0204L467.673 18.223M573.202 21.4573L570.496 24.8109M467.673 18.223H431.625M529.608 28.2903L529.16 28.7343L528.71 29.1805L527.347 30.5323L526.887 30.9868L525.963 31.9029M529.608 28.2903H567.686M570.496 24.8109L570.15 25.2383L567.686 28.2903M567.686 28.2903L567.328 28.7343L566.968 29.1805L566.606 29.6292L564.771 31.9029M487.156 31.9029L482.611 35.6569M487.156 31.9029H525.963M487.156 31.9029H448.349M525.963 31.9029L522.176 35.6569M525.963 31.9029H564.771M564.771 31.9029L561.741 35.6569M482.611 35.6569H522.176M482.611 35.6569H443.046M518.237 39.5602L522.176 35.6569M518.237 39.5602L514.139 43.622M518.237 39.5602H558.59M522.176 35.6569H561.741M443.046 35.6569H403.481M443.046 35.6569L448.349 31.9029M561.741 35.6569L558.59 39.5602M448.349 31.9029H409.541M514.139 43.622L509.871 47.8522M514.139 43.622H555.311M558.59 39.5602L557.782 40.5602L555.311 43.622M555.311 43.622L554.047 45.1879L552.763 46.7781L551.896 47.8522M467.845 47.8522L465.203 50.0337L462.506 52.2618M467.845 47.8522H509.871M467.845 47.8522H425.819M509.871 47.8522L505.421 52.2618M509.871 47.8522H551.896M551.896 47.8522L548.338 52.2618M462.506 52.2618H505.421M462.506 52.2618H419.591M500.78 56.862L505.421 52.2618M500.78 56.862L495.934 61.6653M500.78 56.862H544.624M505.421 52.2618H548.338M419.591 52.2618H376.674M419.591 52.2618L425.819 47.8522M548.338 52.2618L544.624 56.862M425.819 47.8522H383.793M495.934 61.6653L494.688 62.8995L490.868 66.6862M495.934 61.6653H540.747M544.624 56.862L540.747 61.6653M540.747 61.6653L540.25 62.2808L538.743 64.1478L536.694 66.6862M445.042 66.6862L438.681 71.9393M445.042 66.6862H490.868M445.042 66.6862H399.215M490.868 66.6862L485.568 71.9393M490.868 66.6862H536.694M536.694 66.6862L532.454 71.9393M438.681 71.9393H485.568M438.681 71.9393H391.794M480.016 77.4411L483.516 73.9725L485.568 71.9393M480.016 77.4411L474.195 83.2097M480.016 77.4411H528.013M485.568 71.9393H532.454M391.794 71.9393H344.908M391.794 71.9393L399.215 66.6862M532.454 71.9393L528.013 77.4411M399.215 66.6862H353.388M474.195 83.2097L468.086 89.2654M474.195 83.2097H523.357M528.013 77.4411L523.357 83.2097M523.357 83.2097L518.469 89.2654M417.703 89.2654L409.997 95.6294M417.703 89.2654H468.086M417.703 89.2654H367.32M468.086 89.2654L461.665 95.6294M468.086 89.2654H518.469M518.469 89.2654L513.331 95.6294M409.997 95.6294H461.665M409.997 95.6294H358.33M454.907 102.327L461.665 95.6294M454.907 102.327L447.787 109.383M454.907 102.327H507.926M461.665 95.6294H513.331M358.33 95.6294H306.664M358.33 95.6294L367.32 89.2654M513.331 95.6294L507.926 102.327M367.32 89.2654H316.937M447.787 109.383L440.274 116.83M447.787 109.383H502.23M507.926 102.327L502.23 109.383M502.23 109.383L496.219 116.83M384.328 116.83L374.801 124.699M384.328 116.83H440.274M384.328 116.83H328.383M440.274 116.83L432.334 124.699M440.274 116.83H496.219M496.219 116.83L489.867 124.699M374.801 124.699H432.334M374.801 124.699H317.268M423.93 133.028L432.334 124.699M423.93 133.028L415.021 141.858M423.93 133.028H483.144M432.334 124.699H489.867M317.268 124.699H259.734M317.268 124.699L328.383 116.83M489.867 124.699L483.144 133.028M328.383 116.83H272.438M415.021 141.858L405.558 151.237M415.021 141.858H476.017M483.144 133.028L476.017 141.858M476.017 141.858L468.447 151.237M342.67 151.237L330.588 161.216M342.67 151.237H405.558M342.67 151.237H279.781M405.558 151.237L395.49 161.216M405.558 151.237H468.447M468.447 151.237L460.392 161.216M330.588 161.216H395.49M330.588 161.216H265.686M384.756 171.854L395.49 161.216M384.756 171.854L373.286 183.221M384.756 171.854H451.805M395.49 161.216H460.392M265.686 161.216H200.784M265.686 161.216L279.781 151.237M460.392 161.216L451.805 171.854M279.781 151.237H216.893M373.286 183.221L361.006 195.393M373.286 183.221H442.63M451.805 171.854L442.63 183.221M442.63 183.221L432.804 195.393M289.206 195.393L273.387 208.46M289.206 195.393H361.006M289.206 195.393H217.407M361.006 195.393L347.822 208.46M361.006 195.393H432.804M432.804 195.393L422.258 208.46M273.387 208.46H347.822M273.387 208.46H198.951M333.633 222.522L347.822 208.46M333.633 222.522L318.32 237.699M333.633 222.522H410.907M347.822 208.46H422.258M198.951 208.46H124.515M198.951 208.46L217.407 195.393M422.258 208.46L410.907 222.522M217.407 195.393H145.608M318.32 237.699L301.743 254.129M318.32 237.699H398.656M410.907 222.522L398.656 237.699M398.656 237.699L385.394 254.129M218.092 254.129L196.486 271.973M218.092 254.129H301.743M218.092 254.129H134.44M301.743 254.129L283.738 271.973M301.743 254.129H385.394M385.394 254.129L370.991 271.973M196.486 271.973H283.738M196.486 271.973H109.234M264.114 291.423L283.738 271.973M264.114 291.423L242.641 312.704M264.114 291.423H355.291M283.738 271.973H370.991M109.234 271.973H21.9813M109.234 271.973L134.44 254.129M370.991 271.973L355.291 291.423M134.44 254.129H50.7887M242.641 312.704L219.046 336.09M242.641 312.704H338.113M355.291 291.423L338.113 312.704M338.113 312.704L319.236 336.09M118.855 336.09L87.5951 361.909M118.855 336.09H219.046M118.855 336.09H18.6637M219.046 336.09L192.996 361.909M219.046 336.09H319.236M319.236 336.09L298.397 361.909M192.996 361.909H87.5951M192.996 361.909H298.397M87.5951 361.909L1.38701 361.908M18.6637 336.09L1.38701 348.321M18.6637 336.09H1.38701M359.532 18.223L353.005 21.4573M359.532 18.223H395.578M359.532 18.223H323.485M401.247 15.1016L406.721 12.0875M401.247 15.1016L395.578 18.223M401.247 15.1016H436.664M406.721 12.0875H441.53M406.721 12.0875L412.011 9.17547M377.789 9.17547H412.011M377.789 9.17547L379.943 8.10859L383.471 6.35981M377.789 9.17547H343.568M395.578 18.223L389.705 21.4573M395.578 18.223H431.625M436.664 15.1016L441.53 12.0875M436.664 15.1016L431.625 18.223M441.53 12.0875L445.071 9.89415L446.232 9.17547M412.011 9.17547L412.659 8.81794L417.124 6.35981M412.011 9.17547H446.232M431.625 18.223L426.404 21.4573M480.453 9.17547L484.43 6.35981M480.453 9.17547H446.232M446.232 9.17547L447.954 8.10859L450.777 6.35981M353.005 21.4573H389.705M353.005 21.4573H316.306M383.614 24.8109L389.705 21.4573M383.614 24.8109L377.295 28.2903M383.614 24.8109H420.99M389.705 21.4573H426.404M316.306 21.4573H279.606M316.306 21.4573L323.485 18.223M426.404 21.4573L420.99 24.8109M323.485 18.223H287.438M377.295 28.2903L375.677 29.1805L370.733 31.9029M377.295 28.2903H415.373M420.99 24.8109L415.373 28.2903M415.373 28.2903L409.541 31.9029M331.926 31.9029L330.995 32.3645L324.351 35.6569M331.926 31.9029H370.733M331.926 31.9029H293.118M370.733 31.9029L363.916 35.6569M370.733 31.9029H409.541M409.541 31.9029L408.796 32.3645L403.481 35.6569M324.351 35.6569H363.916M324.351 35.6569H284.786M356.827 39.5602L363.916 35.6569M356.827 39.5602L349.45 43.622M356.827 39.5602H397.18M363.916 35.6569H403.481M284.786 35.6569H245.221M284.786 35.6569L293.118 31.9029M403.481 35.6569L397.18 39.5602M293.118 31.9029H254.311M349.45 43.622L341.767 47.8522M349.45 43.622H390.622M397.18 39.5602L390.622 43.622M390.622 43.622L383.793 47.8522M299.742 47.8522L290.844 52.2618M299.742 47.8522H341.767M299.742 47.8522H257.716M341.767 47.8522L333.759 52.2618M341.767 47.8522H383.793M383.793 47.8522L376.674 52.2618M290.844 52.2618H333.759M290.844 52.2618H247.927M325.404 56.862L333.759 52.2618M325.404 56.862L316.68 61.6653M325.404 56.862H369.248M333.759 52.2618H376.674M247.927 52.2618H205.012M247.927 52.2618L257.716 47.8522M376.674 52.2618L369.248 56.862M257.716 47.8522H215.689M316.68 61.6653L307.562 66.6862M316.68 61.6653H361.494M369.248 56.862L361.494 61.6653M361.494 61.6653L353.388 66.6862M261.735 66.6862L251.135 71.9393M261.735 66.6862H307.562M261.735 66.6862H215.909M307.562 66.6862L298.021 71.9393M307.562 66.6862H353.388M353.388 66.6862L344.908 71.9393M251.135 71.9393H298.021M251.135 71.9393H204.248M288.029 77.4411L298.021 71.9393M288.029 77.4411L277.552 83.2097M288.029 77.4411H336.026M298.021 71.9393H344.908M204.248 71.9393H157.362M204.248 71.9393L215.909 66.6862M344.908 71.9393L336.026 77.4411M215.909 66.6862H170.082M277.552 83.2097L266.554 89.2654M277.552 83.2097H326.713M336.026 77.4411L326.713 83.2097M326.713 83.2097L316.937 89.2654M216.171 89.2654L203.329 95.6294M216.171 89.2654H266.554M216.171 89.2654H165.789M266.554 89.2654L254.996 95.6294M266.554 89.2654H316.937M316.937 89.2654L306.664 95.6294M203.329 95.6294H254.996M203.329 95.6294H151.662M242.833 102.327L254.996 95.6294M242.833 102.327L230.017 109.383M242.833 102.327H295.851M254.996 95.6294H306.664M151.662 95.6294H99.9949M151.662 95.6294L165.789 89.2654M306.664 95.6294L295.851 102.327M165.789 89.2654H115.406M230.017 109.383L216.493 116.83M230.017 109.383H284.459M295.851 102.327L284.459 109.383M284.459 109.383L272.438 116.83M160.547 116.83L144.668 124.699M160.547 116.83H216.493M160.547 116.83H104.602M216.493 116.83L202.201 124.699M216.493 116.83H272.438M272.438 116.83L259.734 124.699M144.668 124.699H202.201M144.668 124.699H87.1348M187.074 133.028L202.201 124.699M187.074 133.028L171.037 141.858M187.074 133.028H246.288M202.201 124.699H259.734M87.1348 124.699H29.6015M87.1348 124.699L104.602 116.83M259.734 124.699L246.288 133.028M104.602 116.83H48.6568M171.037 141.858L154.005 151.237M171.037 141.858H232.033M246.288 133.028L232.033 141.858M232.033 141.858L216.893 151.237M91.1163 151.237L70.9802 161.216M91.1163 151.237H154.005M91.1163 151.237H28.2279M154.005 151.237L135.882 161.216M154.005 151.237H216.893M216.893 151.237L200.784 161.216M70.9802 161.216H135.882M70.9802 161.216H6.0782M116.56 171.854L135.882 161.216M116.56 171.854L95.9161 183.221M116.56 171.854H183.609M135.882 161.216H200.784M6.0782 161.216L28.2279 151.237M6.0782 161.216H1.38701M6.0782 161.216L1.38701 163.329M200.784 161.216L183.609 171.854M28.2279 151.237H1.38701M95.9161 183.221L73.8097 195.393M95.9161 183.221H165.258M183.609 171.854L165.258 183.221M165.258 183.221L145.608 195.393M2.01055 195.393H73.8097M2.01055 195.393H1.38701M2.01055 195.393L1.38701 195.702M73.8097 195.393L50.079 208.46M73.8097 195.393H145.608M145.608 195.393L124.515 208.46M24.5398 222.522L50.079 208.46M24.5398 222.522H101.813M24.5398 222.522H1.38701M24.5398 222.522L1.38701 235.27M50.079 208.46H124.515M50.079 208.46H1.38701M124.515 208.46L101.813 222.522M101.813 222.522L77.3122 237.699M77.3122 237.699L50.7887 254.129M77.3122 237.699H1.38701M50.7887 254.129L21.9813 271.973M50.7887 254.129H1.38701M21.9813 271.973H1.38701M21.9813 271.973L1.38701 284.73M215.344 18.223L206.207 21.4573M215.344 18.223H251.392M215.344 18.223H179.298M259.579 15.1016L267.486 12.0875M259.579 15.1016L251.392 18.223M259.579 15.1016H294.997M267.486 12.0875H302.295M267.486 12.0875L275.126 9.17547M240.905 9.17547H275.126M240.905 9.17547L248.859 6.35981M240.905 9.17547H206.684M251.392 18.223L242.907 21.4573M251.392 18.223H287.438M294.997 15.1016L302.295 12.0875M294.997 15.1016L287.438 18.223M302.295 12.0875L309.347 9.17547M275.126 9.17547L276.063 8.81794L282.512 6.35981M275.126 9.17547H309.347M287.438 18.223L279.606 21.4573M343.568 9.17547L349.818 6.35981M343.568 9.17547H309.347M309.347 9.17547L310.212 8.81794L316.165 6.35981M206.207 21.4573H242.907M206.207 21.4573H169.508M234.109 24.8109L242.907 21.4573M234.109 24.8109L224.981 28.2903M234.109 24.8109H271.486M242.907 21.4573H279.606M169.508 21.4573H132.809M169.508 21.4573L179.298 18.223M279.606 21.4573L271.486 24.8109M179.298 18.223H143.251M224.981 28.2903L215.504 31.9029M224.981 28.2903H263.059M271.486 24.8109L270.449 25.2383L263.059 28.2903M263.059 28.2903L254.311 31.9029M176.696 31.9029L166.092 35.6569M176.696 31.9029H215.504M176.696 31.9029H137.889M215.504 31.9029L205.657 35.6569M215.504 31.9029H254.311M254.311 31.9029L245.221 35.6569M166.092 35.6569H205.657M166.092 35.6569H126.527M195.417 39.5602L205.657 35.6569M195.417 39.5602L184.761 43.622M195.417 39.5602H235.769M205.657 35.6569H245.221M126.527 35.6569H86.9618M126.527 35.6569L137.889 31.9029M245.221 35.6569L235.769 39.5602M137.889 31.9029H99.0817M184.761 43.622L173.664 47.8522M184.761 43.622H225.933M235.769 39.5602L225.933 43.622M225.933 43.622L215.689 47.8522M131.638 47.8522L119.18 52.2618M131.638 47.8522H173.664M131.638 47.8522H89.6117M173.664 47.8522L162.097 52.2618M173.664 47.8522H215.689M215.689 47.8522L205.012 52.2618M119.18 52.2618H162.097M119.18 52.2618H76.265M150.028 56.862L162.097 52.2618M150.028 56.862L137.427 61.6653M150.028 56.862H193.873M162.097 52.2618H205.012M76.265 52.2618H33.3496M76.265 52.2618L89.6117 47.8522M205.012 52.2618L193.873 56.862M89.6117 47.8522H47.5863M137.427 61.6653L124.256 66.6862M137.427 61.6653H182.24M193.873 56.862L182.24 61.6653M182.24 61.6653L170.082 66.6862M78.4291 66.6862L63.589 71.9393M78.4291 66.6862H124.256M78.4291 66.6862H32.6033M124.256 66.6862L110.475 71.9393M124.256 66.6862H170.082M170.082 66.6862L157.362 71.9393M63.589 71.9393H110.475M96.0418 77.4411L110.475 71.9393M96.0418 77.4411L80.909 83.2097M96.0418 77.4411H144.039M110.475 71.9393H157.362M157.362 71.9393L144.039 77.4411M32.6033 66.6862H1.38701M80.909 83.2097L65.0232 89.2654M80.909 83.2097H130.07M144.039 77.4411L130.07 83.2097M130.07 83.2097L115.406 89.2654M14.6402 89.2654H65.0232M14.6402 89.2654H1.38701M14.6402 89.2654L1.38701 93.9564M65.0232 89.2654L48.3274 95.6294M65.0232 89.2654H115.406M115.406 89.2654L99.9949 95.6294M30.7588 102.327L48.3274 95.6294M30.7588 102.327L12.2463 109.383M30.7588 102.327H83.7775M30.7588 102.327H1.38701M48.3274 95.6294H99.9949M48.3274 95.6294H1.38701M99.9949 95.6294L83.7775 102.327M1.24104 94.0081L1.38701 93.9564M12.2463 109.383H66.6887M12.2463 109.383H1.38701M12.2463 109.383L1.38701 113.523M83.7775 102.327L66.6887 109.383M66.6887 109.383L48.6568 116.83M48.6568 116.83L29.6015 124.699M48.6568 116.83H1.38701M9.43248 133.028L29.6015 124.699M9.43248 133.028H1.38701M9.43248 133.028L1.38701 136.351M29.6015 124.699H1.38701M71.1576 18.223L59.4098 21.4573M71.1576 18.223H107.204M71.1576 18.223H35.1102M117.912 15.1016L128.251 12.0875M117.912 15.1016L107.204 18.223M117.912 15.1016H153.329M128.251 12.0875H163.06M128.251 12.0875L138.242 9.17547M104.021 9.17547H138.242M104.021 9.17547L114.247 6.35981M104.021 9.17547H69.7997M107.204 18.223L96.1092 21.4573M107.204 18.223H143.251M153.329 15.1016L163.06 12.0875M153.329 15.1016L143.251 18.223M163.06 12.0875L172.463 9.17547M138.242 9.17547H172.463M138.242 9.17547L147.901 6.35981M143.251 18.223L132.809 21.4573M206.684 9.17547L215.207 6.35981M206.684 9.17547H172.463M172.463 9.17547L181.554 6.35981M59.4098 21.4573H96.1092M59.4098 21.4573H22.7103M84.6046 24.8109L96.1092 21.4573M84.6046 24.8109L72.6682 28.2903M84.6046 24.8109H121.981M96.1092 21.4573H132.809M22.7103 21.4573L35.1102 18.223M22.7103 21.4573H1.38701M132.809 21.4573L121.981 24.8109M35.1102 18.223H1.38701M72.6682 28.2903L60.2743 31.9029M72.6682 28.2903H110.746M121.981 24.8109L110.746 28.2903M110.746 28.2903L99.0817 31.9029M21.467 31.9029L7.83206 35.6569M21.467 31.9029H60.2743M21.467 31.9029H1.38701M60.2743 31.9029L47.397 35.6569M60.2743 31.9029H99.0817M99.0817 31.9029L86.9618 35.6569M34.0068 39.5602L47.397 35.6569M34.0068 39.5602L20.0724 43.622M34.0068 39.5602H74.3592M34.0068 39.5602H1.38701M47.397 35.6569H7.83206M47.397 35.6569H86.9618M7.83206 35.6569L1.38701 37.4311M7.83206 35.6569H1.38701M86.9618 35.6569L74.3592 39.5602M20.0724 43.622L5.5602 47.8522M20.0724 43.622H61.2445M20.0724 43.622H1.38701M74.3592 39.5602L61.2445 43.622M61.2445 43.622L47.5863 47.8522M5.5602 47.8522H47.5863M5.5602 47.8522L1.38701 49.0685M5.5602 47.8522H1.38701M47.5863 47.8522L33.3496 52.2618M18.4967 56.862L33.3496 52.2618M18.4967 56.862L2.98742 61.6653M18.4967 56.862H1.38701M33.3496 52.2618H1.38701M1.16244 52.2618H1.38701M2.98742 61.6653H1.38701M2.98742 61.6653L1.38701 62.161M1 62.2808L1.38701 62.161M11.6609 15.1016L23.8249 12.0875M11.6609 15.1016H1.38701M11.6609 15.1016L1.38701 17.6471M23.8249 12.0875L35.5788 9.17547M23.8249 12.0875H1.38701M69.7997 9.17547L80.5946 6.35981M69.7997 9.17547H35.5788M35.5788 9.17547L46.9418 6.35981M35.5788 9.17547H1.38701M1191.14 6.35981H1224.79M1191.14 6.35981H1157.49M1216.55 3.63637L1218.58 4.30894L1224.79 6.35981M1216.55 3.63637H1249.65M1224.79 6.35981H1258.45M1249.65 3.63637L1251.82 4.30894L1252.92 4.64678L1258.45 6.35981M1258.45 6.35981H1292.1M1292.1 6.35981H1325.75M1157.49 6.35981H1123.84M1325.75 6.35981H1359.41M1359.41 6.35981L1348.96 3.63637M1359.41 6.35981H1393.06M1348.96 3.63637H1382.07M1056.53 6.35981H1090.18M1056.53 6.35981H1022.88M1084.14 3.63637L1085.63 4.30894L1086.38 4.64678L1090.18 6.35981M1084.14 3.63637H1117.24M1090.18 6.35981H1123.84M1117.24 3.63637L1123.84 6.35981M1022.88 6.35981H989.223M921.918 6.35981H955.57M921.918 6.35981H888.265M951.723 3.63637L952.197 3.97162L952.673 4.30894L953.151 4.64678L955.57 6.35981M951.723 3.63637H984.826M955.57 6.35981H989.223M984.826 3.63637L989.223 6.35981M888.265 6.35981H854.611M787.306 6.35981H820.958M787.306 6.35981H753.653M819.31 3.63637L820.958 6.35981M819.31 3.63637H852.413M820.958 6.35981H854.611M852.413 3.63637L852.684 3.97162L852.956 4.30894L853.229 4.64678L854.611 6.35981M753.653 6.35981H720M652.694 6.35981H686.347M652.694 6.35981H619.042M686.897 3.63637L686.347 6.35981M686.897 3.63637H720M686.347 6.35981H720M720 3.63637V6.35981M619.042 6.35981H585.388M518.083 6.35981H551.735M518.083 6.35981H484.43M554.483 3.63637L553.805 4.30894L552.431 5.67015L551.735 6.35981M554.483 3.63637H587.587M551.735 6.35981H585.388M587.587 3.63637L587.316 3.97162L587.044 4.30894L586.771 4.64678L585.388 6.35981M484.43 6.35981H450.777M383.471 6.35981H417.124M383.471 6.35981H349.818M422.071 3.63637L420.849 4.30894L420.234 4.64678L417.124 6.35981M422.071 3.63637H455.174M417.124 6.35981H450.777M455.174 3.63637L454.632 3.97162L450.777 6.35981M349.818 6.35981H316.165M248.859 6.35981H282.512M248.859 6.35981H215.207M289.657 3.63637L287.893 4.30894L287.005 4.64678L282.512 6.35981M289.657 3.63637H322.76M282.512 6.35981H316.165M322.76 3.63637L321.948 3.97162L316.165 6.35981M215.207 6.35981H181.554M114.247 6.35981H147.901M114.247 6.35981H80.5946M157.244 3.63637L147.901 6.35981M157.244 3.63637H190.347M147.901 6.35981H181.554M190.347 3.63637L188.176 4.30894L187.083 4.64678L181.554 6.35981M80.5946 6.35981H46.9418M24.831 3.63637L13.289 6.35981M24.831 3.63637H57.9344M24.831 3.63637H1.38701M13.289 6.35981H46.9418M13.289 6.35981L1.38701 9.16858M13.289 6.35981H1.38701M57.9344 3.63637L55.2201 4.30894L46.9418 6.35981M1382.07 3.63637L1384.78 4.30894L1393.06 6.35981M1393.06 6.35981H1426.71M1426.71 6.35981L1438.61 9.16859M1426.71 6.35981H1438.61M1438.61 136.351V133.028M1438.61 136.351V141.858M1438.61 133.028V124.699M1438.61 141.858V143.504V151.237M1438.61 151.237V161.216M1438.61 71.9393V66.6862M1438.61 71.9393V76.9989M1438.61 3.63637V6.35981M1438.61 6.35981V9.16859M1438.61 9.16859L1438.64 9.17547H1438.61M1438.61 9.16859V9.17547M1438.61 9.17547V12.0875M1438.61 12.0875V15.1016M1438.61 15.1016V17.6471M1438.61 17.6471V18.223M1438.61 18.223V21.4573M1438.61 21.4573V24.8109M1438.61 24.8109V27.0183M1438.61 27.0183V28.2903M1438.61 28.2903V31.9029M1438.61 31.9029V35.6569M1438.61 35.6569V37.4311M1438.61 37.4311V39.5602M1438.61 39.5602V43.622M1438.61 43.622V47.8522M1438.61 47.8522V49.0685M1438.61 49.0685V52.2618M1438.61 52.2618V56.862M1438.61 56.862V61.6653M1438.61 61.6653V62.161M1438.61 62.161V66.6862M1438.61 77.4411V83.2097M1438.61 77.4411V76.9989M1438.61 83.2097V89.2654M1438.61 89.2654V93.9564M1438.61 93.9564V95.6294M1438.61 95.6294V102.327M1438.61 102.327V109.383M1438.61 109.383V113.523M1438.61 113.523V116.83M1438.61 116.83V124.699M1438.61 161.216V163.329M1438.61 163.329V171.854M1438.61 171.854V183.221M1438.61 183.221V195.393M1438.61 195.393V195.702M1438.61 195.702V208.46M1438.61 208.46V222.522M1438.61 222.522V235.27M1438.61 235.27V237.699M1438.61 237.699V254.129M1438.61 254.129V271.973M1438.61 271.973V284.73M1438.61 284.73V291.423M1438.61 291.423V312.704M1438.61 312.704V336.09M1438.61 336.09V348.321M1438.61 348.321V361.908M1438.61 361.908V362H1.38701V361.908M1.38701 77.4411V83.2097M1.38701 77.4411V76.9989M1.38701 76.9989V71.9393M1.38701 71.9393V66.6862M1.38701 66.6862V62.161M1.38701 62.161V61.6653M1.38701 61.6653V56.862M1.38701 56.862V52.2618M1.38701 52.2618V49.0685M1.38701 49.0685V47.8522M1.38701 47.8522V43.622M1.38701 43.622V39.5602M1.38701 39.5602V37.4311M1.38701 37.4311V35.6569M1.38701 35.6569V31.9029M1.38701 31.9029V28.2903M1.38701 28.2903V27.0183M1.38701 27.0183V24.8109M1.38701 24.8109V21.4573M1.38701 21.4573V18.223M1.38701 18.223V17.6471M1.38701 17.6471V15.1016M1.38701 15.1016V12.0875M1.38701 12.0875V9.17547M1.38701 9.17547H1.35781L1.38701 9.16858M1.38701 9.17547V9.16858M1.38701 9.16858V6.35981M1.38701 6.35981V3.63637M1.38701 361.908V348.321M1.38701 348.321V336.09M1.38701 336.09V312.705M1.38701 312.705V291.423M1.38701 291.423V284.73M1.38701 284.73V271.973M1.38701 271.973V254.129M1.38701 254.129V237.699M1.38701 237.699V235.27M1.38701 235.27V222.522M1.38701 222.522V208.46M1.38701 208.46V195.702M1.38701 195.702V195.393M1.38701 195.393V183.221M1.38701 183.221V171.854M1.38701 171.854V163.329M1.38701 163.329V161.216M1.38701 161.216V151.237M1.38701 151.237V141.858M1.38701 141.858V136.351M1.38701 136.351V133.028M1.38701 133.028V124.699M1.38701 124.699V116.83M1.38701 116.83V113.523M1.38701 113.523V109.383M1.38701 109.383V102.327M1.38701 102.327V95.6294M1.38701 95.6294V93.9564M1.38701 93.9564V89.2654M1.38701 89.2654V83.2097" stroke="url(#paint0_radial_131_11068)" stroke-opacity="0.5" stroke-width="0.944752" stroke-miterlimit="10" stroke-linecap="round" stroke-linejoin="round"/>
<defs>
<radialGradient id="paint0_radial_131_11068" cx="0" cy="0" r="1" gradientUnits="userSpaceOnUse" gradientTransform="translate(720 348.695) rotate(-90) scale(565.099 2251)">
<stop stop-color="#525252"/>
<stop offset="0.489074" stop-color="#CED2DF" stop-opacity="0"/>
</radialGradient>
</defs>
</svg>
