<svg width="38" height="38" viewBox="0 0 38 38" fill="none" xmlns="http://www.w3.org/2000/svg">
<rect width="38" height="38" rx="10" fill="#17171C"/>
<path d="M26.0706 4.18985C24.8176 3.54494 23.1877 4.58555 19.928 6.66675L19.0847 7.20518C18.1584 7.79659 17.6952 8.0923 17.1754 8.17717C16.6556 8.26203 16.138 8.12645 15.1029 7.85528L14.1604 7.60841C10.5176 6.65416 8.69618 6.17704 7.65327 7.19679C6.61036 8.21655 7.03663 10.0578 7.88919 13.7404L8.10975 14.6931C8.35202 15.7396 8.47315 16.2628 8.3748 16.7824C8.27644 17.3019 7.96973 17.759 7.3563 18.6731L6.79782 19.5054C4.63914 22.7222 3.5598 24.3307 4.16827 25.6058C4.77673 26.881 6.67003 26.9783 10.4566 27.1731L11.4363 27.2235C12.5123 27.2788 13.0503 27.3065 13.5093 27.5427C13.9684 27.779 14.2964 28.197 14.9524 29.0332L15.5497 29.7944C17.8584 32.7368 19.0128 34.208 20.4317 33.9763C21.8507 33.7446 22.5945 31.9635 24.0822 28.4013L24.4671 27.4797C24.8899 26.4675 25.1013 25.9613 25.4833 25.5878C25.8653 25.2142 26.3748 25.0155 27.3937 24.6182L28.3213 24.2564C31.9068 22.858 33.6996 22.1588 33.9681 20.7405C34.2366 19.3222 32.803 18.124 29.9359 15.7277L29.1941 15.1077C28.3794 14.4268 27.972 14.0863 27.7491 13.6192C27.5262 13.1521 27.513 12.6112 27.4867 11.5295L27.4627 10.5447C27.37 6.73806 27.3236 4.83475 26.0706 4.18985Z" fill="url(#paint0_linear_1015_44901)"/>
<path d="M30.2955 28.7045C29.8562 28.2652 29.1438 28.2652 28.7045 28.7045C28.2652 29.1438 28.2652 29.8562 28.7045 30.2955L31.7045 33.2955C32.1438 33.7348 32.8562 33.7348 33.2955 33.2955C33.7348 32.8562 33.7348 32.1438 33.2955 31.7045L30.2955 28.7045Z" fill="url(#paint1_linear_1015_44901)"/>
<defs>
<linearGradient id="paint0_linear_1015_44901" x1="19" y1="4" x2="19" y2="34" gradientUnits="userSpaceOnUse">
<stop stop-color="#D7B0FF"/>
<stop offset="1" stop-color="#B066FD"/>
</linearGradient>
<linearGradient id="paint1_linear_1015_44901" x1="19" y1="4" x2="19" y2="34" gradientUnits="userSpaceOnUse">
<stop stop-color="#D7B0FF"/>
<stop offset="1" stop-color="#B066FD"/>
</linearGradient>
</defs>
</svg>
