<svg width="24" height="24" viewBox="0 0 24 24" fill="none" xmlns="http://www.w3.org/2000/svg">
<g clip-path="url(#clip0_3032_9572)">
<path d="M21.7313 0H2.26866C1.01571 0 0 1.01571 0 2.26866V21.7313C0 22.9843 1.01571 24 2.26866 24H21.7313C22.9843 24 24 22.9843 24 21.7313V2.26866C24 1.01571 22.9843 0 21.7313 0Z" fill="#F8F8F8"/>
<path fill-rule="evenodd" clip-rule="evenodd" d="M4.65674 12.1791V19.3433H8.11942V9.55226H4.65674V12.1791ZM6.44778 4.65674C5.49256 4.65674 4.65674 5.49256 4.65674 6.44778C4.65674 7.2836 5.49256 8.11942 6.44778 8.11942C7.2836 8.11942 8.11942 7.2836 8.11942 6.44778C8.11942 5.49256 7.2836 4.65674 6.44778 4.65674ZM19.2239 12.5373C18.9851 10.7463 18.1493 9.55226 15.6418 9.55226C14.209 9.55226 13.2538 10.1493 12.7761 10.8657V9.55226H10.0299V19.3433H12.8955V14.4478C12.8955 13.2538 13.1343 11.9403 14.6866 11.9403C16.2388 11.9403 16.3582 13.4926 16.3582 14.5672V19.3433H19.3433V13.9702C19.3433 13.4926 19.3433 13.0149 19.2239 12.5373Z" fill="#1D1C20"/>
</g>
<defs>
<clipPath id="clip0_3032_9572">
<rect width="24" height="24" rx="4.77102" fill="white"/>
</clipPath>
</defs>
</svg>
