<svg width="24" height="25" viewBox="0 0 24 25" fill="none" xmlns="http://www.w3.org/2000/svg">
<path d="M15 11.8356V10.0356C15 9.23998 14.6839 8.4769 14.1213 7.91434C13.5587 7.35172 12.7957 7.03564 12 7.03564C11.2043 7.03564 10.4413 7.35172 9.8787 7.91434C9.31608 8.4769 9 9.23998 9 10.0356V11.8356" stroke="#F8F8F8" stroke-width="0.8"/>
<path d="M7.79999 16.0355C7.79999 16.5129 7.98965 16.9708 8.32721 17.3083C8.66477 17.6459 9.12263 17.8355 9.59999 17.8355H14.4C14.8773 17.8355 15.3352 17.6459 15.6728 17.3083C16.0103 16.9708 16.2 16.5129 16.2 16.0355V12.4355H7.79999V16.0355Z" stroke="#F8F8F8" stroke-width="0.8"/>
<path opacity="0.4" d="M9 21.4355H15" stroke="#F8F8F8" stroke-linecap="round" stroke-linejoin="round"/>
</svg>
