<svg width="40" height="27" viewBox="0 0 40 27" fill="none" xmlns="http://www.w3.org/2000/svg">
<path d="M32.5488 0C31.1851 1.27932 29.5628 2.26415 27.7867 2.89093C25.9139 3.21487 20.7311 0.858934 18.1773 3.26395C17.7516 3.68115 17.2258 4.09835 16.675 4.51554C15.4732 4.00018 13.6204 3.21487 12.2684 2.4541C10.9164 1.69333 7.51127 0 7.51127 0L0 8.58935C0 8.58935 1.85278 11.0434 3.00451 12.6632C3.75563 13.743 4.68202 15.3872 5.28292 16.4915L4.43165 17.4732C4.22779 17.8701 4.15444 18.3192 4.22169 18.7587C4.28895 19.1982 4.49351 19.6064 4.80721 19.9273C5.16931 20.1934 5.60988 20.3368 6.06243 20.3359C6.51498 20.335 6.95496 20.1899 7.31597 19.9224C7.18211 20.076 7.08081 20.2542 7.01796 20.4466C6.95511 20.639 6.93199 20.8418 6.94994 21.043C6.96788 21.2443 7.02654 21.44 7.12248 21.6188C7.21843 21.7976 7.34974 21.9559 7.50876 22.0844C7.89109 22.3033 8.32607 22.4182 8.76883 22.4174C9.21159 22.4165 9.6461 22.2999 10.0275 22.0795C9.74147 22.429 9.58494 22.8634 9.58358 23.3114C9.58221 23.7595 9.7361 24.1947 10.02 24.5459C10.3891 24.6711 10.7827 24.711 11.1701 24.6625C11.5576 24.614 11.9283 24.4783 12.2534 24.2661C12.0914 24.6419 12.0495 25.0569 12.1331 25.4564C12.2166 25.856 12.4218 26.2213 12.7216 26.5043C13.145 26.6887 13.6092 26.7647 14.0708 26.7252C14.5324 26.6857 14.9761 26.532 15.3605 26.2785L16.6525 25.1324C17.8343 26.2859 19.4642 27 21.2644 27L21.4171 26.9975C22.0104 26.9479 22.5787 26.741 23.0612 26.3991C23.5437 26.0571 23.9222 25.593 24.1562 25.0564C24.5218 25.1938 24.9374 25.287 25.3781 25.287C25.969 25.287 26.5173 25.1202 26.9805 24.833C28.4452 23.8833 28.0946 23.1471 28.0946 23.1471C28.6155 23.3668 29.194 23.4189 29.747 23.2959C30.2999 23.1728 30.7988 22.881 31.1718 22.4624C31.5593 22.0737 31.8037 21.5696 31.8663 21.0296C31.9289 20.4896 31.8061 19.9446 31.5173 19.4806C31.5331 19.4899 31.5515 19.4942 31.5699 19.4929C32.6239 19.4929 33.5403 18.9236 34.0185 18.0843C34.2539 17.4877 34.3334 16.843 34.2499 16.2087C34.1663 15.5744 33.9224 14.9706 33.5403 14.4522L33.5478 14.4645C35.6009 14.0718 35.5258 13.0656 36.5273 11.5932C37.4756 10.3916 38.6555 9.38429 40 8.62861L32.5488 0ZM32.4236 17.3259C31.322 18.4057 30.4707 17.9395 28.5929 16.5406C26.7151 15.1418 22.9845 12.5159 22.9845 12.5159C23.1372 13.2644 23.4902 13.9147 23.9885 14.4326C24.7872 15.3136 27.1657 17.3259 28.2924 18.3567C28.9935 18.9947 30.7962 20.2709 29.7446 21.2525C28.693 22.2341 27.8668 21.2525 26.1392 19.8782C24.4116 18.5039 20.5558 15.1173 20.5558 15.1173C20.5346 15.4419 20.5839 15.7672 20.7004 16.0718C20.8169 16.3764 20.9981 16.6533 21.2318 16.8842C21.6575 17.375 24.0361 19.6328 25.0376 20.6635C26.0391 21.6942 26.9154 22.3078 26.0641 23.1176C25.2128 23.9275 23.4852 22.6513 22.5338 21.6942C21.0566 20.2954 18.1272 17.6941 18.1272 17.6941L18.1247 17.8241C18.1247 18.5211 18.3701 19.1592 18.7832 19.6647C19.5043 20.5923 20.9064 21.7949 21.7576 22.7274C22.6089 23.66 23.1097 24.4453 21.7576 25.1815C20.4056 25.9177 18.4026 24.1017 17.5263 23.2182V23.2133C17.5265 22.9709 17.4376 22.7366 17.2759 22.5532C16.9764 22.2812 16.6069 22.0946 16.2072 22.0133C15.8074 21.932 15.3927 21.9591 15.0075 22.0918C15.166 21.9527 15.293 21.7827 15.3804 21.5927C15.4679 21.4026 15.5138 21.1967 15.5152 20.9883C15.5166 20.7798 15.4735 20.5733 15.3887 20.3822C15.3038 20.191 15.1791 20.0193 15.0225 19.8782C14.6939 19.6341 14.2927 19.5022 13.8804 19.5027C13.4681 19.5031 13.0672 19.6359 12.7391 19.8807C12.905 19.7253 13.0331 19.5354 13.1138 19.3249C13.1945 19.1143 13.2258 18.8887 13.2054 18.6647C13.1849 18.4407 13.1133 18.2242 12.9957 18.031C12.8781 17.8379 12.7177 17.6733 12.5263 17.5493C12.0781 17.2732 11.5521 17.1435 11.024 17.1788C10.4959 17.2141 9.99275 17.4125 9.58688 17.7456C9.85814 17.4233 9.99188 17.0108 9.96015 16.5942C9.92842 16.1776 9.73369 15.7891 9.41662 15.5099C9.02257 15.1504 8.52041 14.9255 7.98518 14.8689C7.44996 14.8123 6.91041 14.927 6.44717 15.1958L4.78217 12.4398C3.63045 10.6483 2.27842 8.78322 2.27842 8.78322L7.98698 1.98537C7.98698 1.98537 10.015 3.21242 11.6925 4.14497C12.5188 4.61125 13.9459 5.22478 15.0225 5.7156C13.32 6.96719 11.8928 8.1697 12.3185 9.00409C13.077 9.5378 13.9835 9.83217 14.9171 9.84796C15.8507 9.86374 16.767 9.60019 17.5438 9.09244C18.5399 8.4434 19.7103 8.09916 20.9064 8.10344C21.7752 8.10344 22.6014 8.28013 23.35 8.60162C24.7371 9.51945 27.2909 11.7772 29.6194 13.2006C32.5488 15.2866 33.1247 16.6363 32.4236 17.3235V17.3259Z" fill="url(#paint0_linear_1072_84718)"/>
<defs>
<linearGradient id="paint0_linear_1072_84718" x1="20" y1="0" x2="20" y2="27" gradientUnits="userSpaceOnUse">
<stop stop-color="#D2A9FE"/>
<stop offset="1" stop-color="#B876FD"/>
</linearGradient>
</defs>
</svg>
