<svg width="38" height="38" viewBox="0 0 38 38" fill="none" xmlns="http://www.w3.org/2000/svg">
<rect width="38" height="38" rx="10" fill="#1D1C20"/>
<path d="M23.3035 13.0128L18.741 8.45032H9.76447V26.922H18.1277V28.1603H8.52618V7.20618H19.2586L24.5477 12.5001V20.7677H23.3035V13.0128Z" fill="url(#paint0_linear_1172_105619)" stroke="#0A0118" stroke-width="0.4"/>
<path d="M19.6224 8.02832V12.1377H23.7259V13.376H18.3782V8.02832H19.6224Z" fill="url(#paint1_linear_1172_105619)" stroke="#0A0118" stroke-width="0.4"/>
<path d="M25.616 18.5529C26.4148 17.7543 27.7773 17.7044 28.6463 18.4034L28.8133 18.5529L28.8143 18.5538C29.243 18.9772 29.4744 19.5437 29.4744 20.1515C29.4744 20.6823 29.2933 21.1829 28.9637 21.5841L28.8133 21.7501L20.5633 29.9991L16.5672 30.798L17.366 26.8019L25.616 18.5529ZM27.9344 19.4191C27.5683 19.0564 26.9674 19.0345 26.5731 19.3536L26.4969 19.422L18.5096 27.4093L18.4979 27.4689L18.2098 28.9142L18.1512 29.2081L18.4451 29.1495L19.8914 28.8615L19.951 28.8497L19.994 28.8068L27.9373 20.8624C28.1311 20.6686 28.2361 20.4142 28.2361 20.1398C28.2361 19.8728 28.1329 19.609 27.9354 19.4191H27.9344Z" fill="url(#paint2_linear_1172_105619)" stroke="#0A0118" stroke-width="0.4"/>
<path d="M21.0621 15.4205V16.6647H12.0543V15.4205H21.0621Z" fill="url(#paint3_linear_1172_105619)" stroke="#0A0118" stroke-width="0.4"/>
<path d="M21.0621 18.7083V19.9524H12.0543V18.7083H21.0621Z" fill="url(#paint4_linear_1172_105619)" stroke="#0A0118" stroke-width="0.4"/>
<path d="M21.0621 21.9904V23.2345H12.0543V21.9904H21.0621Z" fill="url(#paint5_linear_1172_105619)" stroke="#0A0118" stroke-width="0.4"/>
<defs>
<linearGradient id="paint0_linear_1172_105619" x1="16.537" y1="7.00598" x2="16.537" y2="28.36" gradientUnits="userSpaceOnUse">
<stop stop-color="#D9B4FF"/>
<stop offset="1" stop-color="#AE5FFD"/>
</linearGradient>
<linearGradient id="paint1_linear_1172_105619" x1="21.052" y1="7.82812" x2="21.052" y2="13.5761" gradientUnits="userSpaceOnUse">
<stop stop-color="#D9B4FF"/>
<stop offset="1" stop-color="#AE5FFD"/>
</linearGradient>
<linearGradient id="paint2_linear_1172_105619" x1="22.9933" y1="17.714" x2="22.9933" y2="31.0535" gradientUnits="userSpaceOnUse">
<stop stop-color="#D9B4FF"/>
<stop offset="1" stop-color="#AE5FFD"/>
</linearGradient>
<linearGradient id="paint3_linear_1172_105619" x1="16.5581" y1="15.2203" x2="16.5581" y2="16.8643" gradientUnits="userSpaceOnUse">
<stop stop-color="#D9B4FF"/>
<stop offset="1" stop-color="#AE5FFD"/>
</linearGradient>
<linearGradient id="paint4_linear_1172_105619" x1="16.5581" y1="18.5081" x2="16.5581" y2="20.1521" gradientUnits="userSpaceOnUse">
<stop stop-color="#D9B4FF"/>
<stop offset="1" stop-color="#AE5FFD"/>
</linearGradient>
<linearGradient id="paint5_linear_1172_105619" x1="16.5581" y1="21.7902" x2="16.5581" y2="23.4342" gradientUnits="userSpaceOnUse">
<stop stop-color="#D9B4FF"/>
<stop offset="1" stop-color="#AE5FFD"/>
</linearGradient>
</defs>
</svg>
