<svg width="24" height="24" viewBox="0 0 24 24" fill="none" xmlns="http://www.w3.org/2000/svg">
<g clip-path="url(#clip0_3032_9583)">
<path d="M20.4 0H3.6C1.61177 0 0 1.61177 0 3.6V20.4C0 22.3882 1.61177 24 3.6 24H20.4C22.3882 24 24 22.3882 24 20.4V3.6C24 1.61177 22.3882 0 20.4 0Z" fill="#F8F8F8"/>
<path d="M12 19.875C16.2975 19.875 19.7812 17.4196 19.7812 14.3906C19.7812 11.3617 16.2975 8.90625 12 8.90625C7.70253 8.90625 4.21875 11.3617 4.21875 14.3906C4.21875 17.4196 7.70253 19.875 12 19.875Z" fill="#1D1C20"/>
<path d="M4.96875 13.9688C6.05606 13.9688 6.9375 13.0873 6.9375 12C6.9375 10.9127 6.05606 10.0312 4.96875 10.0312C3.88144 10.0312 3 10.9127 3 12C3 13.0873 3.88144 13.9688 4.96875 13.9688Z" fill="#1D1C20"/>
<path d="M19.0781 13.9688C20.1654 13.9688 21.0469 13.0873 21.0469 12C21.0469 10.9127 20.1654 10.0312 19.0781 10.0312C17.9908 10.0312 17.1094 10.9127 17.1094 12C17.1094 13.0873 17.9908 13.9688 19.0781 13.9688Z" fill="#1D1C20"/>
<path d="M17.5781 6.84375C18.4066 6.84375 19.0781 6.17218 19.0781 5.34375C19.0781 4.51532 18.4066 3.84375 17.5781 3.84375C16.7497 3.84375 16.0781 4.51532 16.0781 5.34375C16.0781 6.17218 16.7497 6.84375 17.5781 6.84375Z" fill="#1D1C20"/>
<path d="M12 9.1875L13.0781 4.45312L16.5 5.15625" stroke="#1D1C20" stroke-width="1.06496" stroke-linecap="round" stroke-linejoin="round"/>
<path d="M8.95312 16.8281C10.5 18 13.5 18.0469 15.0469 16.8281" stroke="#F8F8F8" stroke-width="0.86528" stroke-linecap="round" stroke-linejoin="round"/>
<path d="M8.95312 14.9067C9.75566 14.9067 10.4062 14.2562 10.4062 13.4536C10.4062 12.6511 9.75566 12.0005 8.95312 12.0005C8.15059 12.0005 7.5 12.6511 7.5 13.4536C7.5 14.2562 8.15059 14.9067 8.95312 14.9067Z" fill="#F8F8F8"/>
<path d="M15.0469 14.9067C15.8494 14.9067 16.5 14.2562 16.5 13.4536C16.5 12.6511 15.8494 12.0005 15.0469 12.0005C14.2443 12.0005 13.5938 12.6511 13.5938 13.4536C13.5938 14.2562 14.2443 14.9067 15.0469 14.9067Z" fill="#F8F8F8"/>
</g>
<defs>
<clipPath id="clip0_3032_9583">
<rect width="24" height="24" fill="white"/>
</clipPath>
</defs>
</svg>
