<svg width="26" height="27" viewBox="0 0 26 27" fill="none" xmlns="http://www.w3.org/2000/svg">
<path d="M24.7984 25.5484C23.863 26.4839 22.3468 26.4839 21.4113 25.5484L17.1848 21.3218C15.4471 22.4366 13.3931 23.1007 11.1754 23.1007C5.00383 23.1007 0 18.0976 0 11.9253C0 5.75309 5.00383 0.75 11.1754 0.75C17.3477 0.75 22.3508 5.75299 22.3508 11.9253C22.3508 14.1423 21.6858 16.1971 20.5718 17.9356L24.7984 22.1622C25.7339 23.0976 25.7339 24.613 24.7984 25.5484ZM11.1754 3.94293C6.76712 3.94293 3.19298 7.51627 3.19298 11.9253C3.19298 16.3343 6.76717 19.9077 11.1754 19.9077C15.5844 19.9077 19.1577 16.3343 19.1577 11.9253C19.1577 7.51627 15.5844 3.94293 11.1754 3.94293Z" fill="url(#paint0_linear_1072_84714)"/>
<defs>
<linearGradient id="paint0_linear_1072_84714" x1="12.75" y1="0.75" x2="12.75" y2="26.25" gradientUnits="userSpaceOnUse">
<stop stop-color="#D3AAFE"/>
<stop offset="1" stop-color="#B773FD"/>
</linearGradient>
</defs>
</svg>
