<svg width="38" height="38" viewBox="0 0 38 38" fill="none" xmlns="http://www.w3.org/2000/svg">
<rect width="38" height="38" rx="10" fill="#1D1C20"/>
<path d="M18.9814 6.79688C19.1353 6.79544 19.285 6.82714 19.3975 6.88574V6.88672L19.4082 6.8916L28.8779 11.3955V11.3965C29.0815 11.4938 29.2432 11.6594 29.335 11.8633L29.3701 11.9531C29.7385 13.0546 29.9501 14.2375 29.9502 15.4707C29.9502 21.3379 27.2936 25.2528 24.6328 27.707C23.3009 28.9355 21.968 29.7971 20.9688 30.3516C20.4693 30.6286 20.0539 30.8289 19.7646 30.959C19.6201 31.024 19.5069 31.0715 19.4307 31.1025C19.3926 31.1181 19.3637 31.1293 19.3447 31.1367C19.3352 31.1404 19.3277 31.1428 19.3232 31.1445L19.3213 31.1455C19.1657 31.2014 18.9989 31.2154 18.8379 31.1875L18.6787 31.1455L18.6768 31.1445C18.6723 31.1428 18.6648 31.1404 18.6553 31.1367C18.6363 31.1293 18.6074 31.1181 18.5693 31.1025C18.4931 31.0715 18.3799 31.024 18.2354 30.959C17.9461 30.8289 17.5307 30.6286 17.0312 30.3516C16.032 29.7971 14.6991 28.9355 13.3672 27.707C10.7064 25.2528 8.0498 21.3379 8.0498 15.4707C8.04985 14.3917 8.21175 13.3512 8.49902 12.3701L8.62988 11.9531C8.71146 11.7086 8.88947 11.5077 9.12207 11.3965L9.12109 11.3955L18.5918 6.8916L18.6025 6.88672L18.6133 6.88086C18.6942 6.83425 18.8258 6.79839 18.9814 6.79688ZM18.8711 8.86426L10.5117 12.8369L10.3887 12.8955L10.3516 13.0273C10.1363 13.7956 9.95025 14.6054 9.9502 15.4707C9.9502 25.3496 17.7059 28.6999 18.8916 29.1611L19 29.2041L19.1084 29.1611C20.2941 28.6999 28.0498 25.3496 28.0498 15.4707C28.0497 14.6054 27.8637 13.7956 27.6484 13.0273L27.6113 12.8955L27.4883 12.8369L19.1289 8.86426L19 8.80371L18.8711 8.86426Z" fill="url(#paint0_linear_1172_105608)" stroke="#1D1C20" stroke-width="0.6"/>
<path d="M23.2378 14.6836C23.5464 14.2405 24.0882 14.1679 24.5659 14.4883C24.9599 14.7799 25.0635 15.3185 24.8198 15.7324L24.7661 15.8135V15.8145L19.2661 23.3145C18.9276 23.7753 18.2695 23.8293 17.8599 23.4541L17.7817 23.373L14.5317 19.623C14.2103 19.2512 14.228 18.7007 14.5581 18.3506L14.6284 18.2842V18.2832C14.9998 17.961 15.5502 17.9789 15.9009 18.3086L15.9683 18.3779L18.1919 20.9443L18.439 21.2275L18.6606 20.9248L23.2339 14.6895L23.2378 14.6836Z" fill="url(#paint1_linear_1172_105608)" stroke="#1D1C20" stroke-width="0.6"/>
<defs>
<linearGradient id="paint0_linear_1172_105608" x1="19" y1="6.49707" x2="19" y2="31.5016" gradientUnits="userSpaceOnUse">
<stop stop-color="#D9B4FF"/>
<stop offset="1" stop-color="#AE5FFD"/>
</linearGradient>
<linearGradient id="paint1_linear_1172_105608" x1="19.6257" y1="13.9912" x2="19.6257" y2="24.0018" gradientUnits="userSpaceOnUse">
<stop stop-color="#D9B4FF"/>
<stop offset="1" stop-color="#AE5FFD"/>
</linearGradient>
</defs>
</svg>
