<svg width="25" height="24" viewBox="0 0 25 24" fill="none" xmlns="http://www.w3.org/2000/svg">
<path d="M12.5009 12.25C12.0609 12.25 11.6209 12.14 11.2209 11.93L4.71092 8.42001C4.12092 8.10001 3.75092 7.47001 3.75092 6.77001C3.75092 6.07001 4.12092 5.44001 4.71092 5.12001L11.2209 1.61001C12.0209 1.18001 12.9809 1.18001 13.7709 1.61001L20.2809 5.12001C20.8709 5.44001 21.2409 6.07001 21.2409 6.77001C21.2409 7.47001 20.8709 8.10001 20.2809 8.42001L13.7709 11.93C13.3809 12.15 12.9409 12.25 12.5009 12.25ZM12.5009 2.78001C12.3109 2.78001 12.1109 2.83001 11.9309 2.93001L5.43092 6.43001C5.26092 6.52001 5.25092 6.71001 5.25092 6.77001C5.25092 6.83001 5.26092 7.02001 5.43092 7.10001L11.9409 10.61C12.3009 10.8 12.7109 10.8 13.0709 10.61L19.5809 7.10001C19.7409 7.01001 19.7609 6.82001 19.7609 6.77001C19.7609 6.71001 19.7509 6.52001 19.5809 6.44001L13.0709 2.93001C12.8909 2.83001 12.6909 2.78001 12.5009 2.78001Z" fill="url(#paint0_linear_1015_71819)"/>
<path d="M10.2809 22.72C10.0009 22.72 9.71092 22.65 9.45092 22.52L3.39092 19.5C2.38092 18.99 1.75092 17.97 1.75092 16.84V11.12C1.75092 10.47 2.08092 9.88001 2.63092 9.54001C3.19092 9.20001 3.86092 9.17001 4.44092 9.46001L10.5009 12.48C11.5109 12.99 12.1409 14 12.1409 15.14V20.86C12.1409 21.51 11.8109 22.1 11.2609 22.44C10.9609 22.63 10.6209 22.72 10.2809 22.72ZM3.61092 10.76C3.53092 10.76 3.46092 10.79 3.42092 10.81C3.36092 10.85 3.25092 10.94 3.25092 11.12V16.84C3.25092 17.4 3.56092 17.91 4.06092 18.16L10.1109 21.19C10.2709 21.27 10.4009 21.21 10.4609 21.18C10.5209 21.14 10.6309 21.05 10.6309 20.87V15.15C10.6309 14.59 10.3209 14.08 9.82092 13.83L3.77092 10.8C3.71092 10.77 3.66092 10.76 3.61092 10.76Z" fill="url(#paint1_linear_1015_71819)"/>
<path d="M14.7209 22.72C14.3809 22.72 14.0409 22.63 13.7409 22.44C13.1909 22.1 12.8609 21.51 12.8609 20.86V15.14C12.8609 14.01 13.4909 12.99 14.5009 12.48L20.5509 9.45C21.1309 9.16 21.8109 9.19 22.3609 9.53C22.9109 9.87 23.2409 10.46 23.2409 11.11V16.83C23.2409 17.96 22.6109 18.98 21.6009 19.49L15.5509 22.52C15.2909 22.66 15.0009 22.72 14.7209 22.72ZM21.3909 10.76C21.3409 10.76 21.2909 10.77 21.2309 10.8L15.1809 13.83C14.6809 14.08 14.3709 14.58 14.3709 15.15V20.87C14.3709 21.05 14.4809 21.14 14.5409 21.18C14.6009 21.22 14.7309 21.27 14.8909 21.19L20.9409 18.16C21.4409 17.91 21.7509 17.4 21.7509 16.84V11.12C21.7509 10.94 21.6409 10.85 21.5809 10.81C21.5409 10.79 21.4709 10.76 21.3909 10.76Z" fill="url(#paint2_linear_1015_71819)"/>
<defs>
<linearGradient id="paint0_linear_1015_71819" x1="3.51667" y1="0.216457" x2="22.7527" y2="0.446319" gradientUnits="userSpaceOnUse">
<stop offset="0.129808" stop-color="#7400E8"/>
<stop offset="0.365385" stop-color="#BE67D5"/>
<stop offset="0.629808" stop-color="#BC79FF"/>
<stop offset="1" stop-color="#1E00FF"/>
</linearGradient>
<linearGradient id="paint1_linear_1015_71819" x1="1.61176" y1="7.9471" x2="13.0403" y2="8.01318" gradientUnits="userSpaceOnUse">
<stop offset="0.129808" stop-color="#7400E8"/>
<stop offset="0.365385" stop-color="#BE67D5"/>
<stop offset="0.629808" stop-color="#BC79FF"/>
<stop offset="1" stop-color="#1E00FF"/>
</linearGradient>
<linearGradient id="paint2_linear_1015_71819" x1="12.7219" y1="7.93611" x2="24.1394" y2="8.00202" gradientUnits="userSpaceOnUse">
<stop offset="0.129808" stop-color="#7400E8"/>
<stop offset="0.365385" stop-color="#BE67D5"/>
<stop offset="0.629808" stop-color="#BC79FF"/>
<stop offset="1" stop-color="#1E00FF"/>
</linearGradient>
</defs>
</svg>
