<svg width="38" height="38" viewBox="0 0 38 38" fill="none" xmlns="http://www.w3.org/2000/svg">
<rect width="38" height="38" rx="10" fill="#1D1C20"/>
<path d="M13.5302 19.6137C15.1623 20.5467 16.1867 22.2826 16.1867 24.1687V25.4099C16.1867 25.8146 15.8586 26.1427 15.4539 26.1427H10.9968V29.0142H27.0038V26.1427H22.5463C22.1416 26.1427 21.8135 25.8146 21.8135 25.4099V24.1687C21.8135 22.2826 22.8382 20.5467 24.4699 19.6137C24.1709 19.0695 24.0139 18.4565 24.0139 17.835V16.5686C24.0139 14.3855 25.613 12.8697 27.7362 12.8697C29.8593 12.8697 31.4588 14.3855 31.4588 16.5686V17.835C31.4588 18.4565 31.3015 19.0695 31.0024 19.6137C32.6345 20.5467 33.6589 22.2826 33.6589 24.1687V25.4099C33.6589 25.8146 33.3307 26.1427 32.9261 26.1427H28.4689V29.7466C28.4689 30.1513 28.1408 30.4794 27.7362 30.4794H10.264C9.85934 30.4794 9.53123 30.1513 9.53123 29.7466V26.1427H5.07407C4.66942 26.1427 4.34131 25.8146 4.34131 25.4099V24.1687C4.34131 22.2826 5.36604 20.5467 6.99775 19.6137C6.69869 19.0695 6.54137 18.4565 6.54137 17.835V16.5686C6.54137 14.3855 8.14083 12.8697 10.264 12.8697C12.3872 12.8697 13.9866 14.3855 13.9866 16.5686V17.835C13.9866 18.4565 13.8293 19.0695 13.5302 19.6137ZM16.6069 12.6156C16.0804 11.8148 17.2996 11.0133 17.8258 11.8141L18.1787 12.351L20.286 10.3823C20.9897 9.72747 21.9857 10.7979 21.2816 11.4527L18.5419 14.0099C18.2131 14.3157 17.6844 14.2551 17.4357 13.8767L16.6069 12.6156ZM19.0001 7.51855C21.5839 7.51855 23.6784 9.61302 23.6784 12.1968C23.6784 14.7806 21.5839 16.8751 19.0001 16.8751C16.4166 16.8751 14.3218 14.7803 14.3218 12.1968C14.3218 9.61302 16.4163 7.51855 19.0001 7.51855ZM19.0001 8.98372C17.2256 8.98372 15.787 10.4223 15.787 12.1968C15.787 13.9713 17.2256 15.4099 19.0001 15.4099C20.7746 15.4099 22.2132 13.9713 22.2132 12.1968C22.2132 10.4223 20.7746 8.98372 19.0001 8.98372ZM14.7215 24.6775V24.1687C14.7215 22.5675 13.7028 21.1363 12.1948 20.6016C11.6852 20.4404 11.5109 19.7923 11.8897 19.3986C12.295 18.9773 12.5215 18.42 12.5215 17.835V16.5686C12.5215 15.2115 11.5757 14.3349 10.264 14.3349C8.95225 14.3349 8.00689 15.2115 8.00689 16.5686V17.835C8.00689 18.42 8.23295 18.9773 8.63831 19.3986C9.00257 19.7778 8.85977 20.4181 8.35236 20.5949C6.8344 21.1239 5.80648 22.56 5.80648 24.1687V24.6775C8.77827 24.6775 11.7497 24.6775 14.7215 24.6775ZM32.1937 24.6775V24.1687C32.1937 22.5675 31.175 21.1363 29.6669 20.6016C29.1574 20.4404 28.9831 19.7923 29.3619 19.3986C29.7672 18.9773 29.9936 18.42 29.9936 17.835V16.5686C29.9936 15.2115 29.0479 14.3349 27.7362 14.3349C26.4244 14.3349 25.4791 15.2115 25.4791 16.5686V17.835C25.4791 18.42 25.7051 18.9773 26.1108 19.3986C26.4748 19.7778 26.332 20.4181 25.8245 20.5949C24.3066 21.1239 23.279 22.56 23.279 24.1687V24.6775C26.2505 24.6775 29.2219 24.6775 32.1937 24.6775Z" fill="url(#paint0_linear_1139_79138)"/>
<defs>
<linearGradient id="paint0_linear_1139_79138" x1="19.0001" y1="7.51855" x2="19.0001" y2="30.4794" gradientUnits="userSpaceOnUse">
<stop stop-color="#D9B4FF"/>
<stop offset="1" stop-color="#AE5FFD"/>
</linearGradient>
</defs>
</svg>
