<svg width="840" height="860" viewBox="0 0 840 860" fill="none" xmlns="http://www.w3.org/2000/svg">
<g clip-path="url(#clip0_118_11162)">
<g filter="url(#filter0_f_118_11162)">
<ellipse cx="418.5" cy="441.695" rx="63.75" ry="63.8864" fill="#9347FE"/>
</g>
<g clip-path="url(#clip1_118_11162)">
<path opacity="0.3" d="M418.938 565.582C489.165 565.582 546.579 508.654 547.175 438.429C547.77 368.205 491.323 311.276 421.096 311.276C350.869 311.276 293.456 368.205 292.86 438.429C292.264 508.654 348.711 565.582 418.938 565.582Z" stroke="url(#paint0_linear_118_11162)" stroke-width="1.19213" stroke-miterlimit="10"/>
</g>
<path opacity="0.3" d="M418.544 612.193C514.516 612.193 592.977 534.395 593.791 438.427C594.606 342.459 517.465 264.661 421.493 264.661C325.522 264.661 247.061 342.459 246.247 438.427C245.432 534.395 322.572 612.193 418.544 612.193Z" stroke="url(#paint1_linear_118_11162)" stroke-width="1.29308" stroke-miterlimit="10"/>
<g clip-path="url(#clip2_118_11162)">
<path opacity="0.3" d="M420.018 769.753C601.444 769.753 748.518 621.427 748.518 438.456C748.518 255.484 601.444 107.156 420.018 107.156C238.593 107.156 91.5186 255.484 91.5186 438.456C91.5186 621.427 238.593 769.753 420.018 769.753Z" stroke="url(#paint2_linear_118_11162)" stroke-width="1.13807" stroke-miterlimit="10"/>
</g>
<g clip-path="url(#clip3_118_11162)">
<path opacity="0.3" d="M420.019 808.768C622.808 808.768 787.204 642.974 787.204 438.456C787.204 233.937 622.808 68.1432 420.019 68.1432C217.228 68.1432 52.835 233.937 52.835 438.456C52.835 642.974 217.228 808.768 420.019 808.768Z" stroke="url(#paint3_linear_118_11162)" stroke-width="1.13856" stroke-miterlimit="10"/>
</g>
<g clip-path="url(#clip4_118_11162)">
<path opacity="0.3" d="M419.95 857.757C649.567 857.757 835.708 670.03 835.708 438.456C835.708 206.882 649.567 19.1547 419.95 19.1547C190.333 19.1547 4.19238 206.882 4.19238 438.456C4.19238 670.03 190.333 857.757 419.95 857.757Z" stroke="url(#paint4_linear_118_11162)" stroke-width="1.20315" stroke-miterlimit="10"/>
</g>
<g clip-path="url(#clip5_118_11162)">
<path opacity="0.3" d="M420.018 530.473C470.409 530.473 511.258 489.275 511.258 438.456C511.258 387.636 470.409 346.439 420.018 346.439C369.628 346.439 328.779 387.636 328.779 438.456C328.779 489.275 369.628 530.473 420.018 530.473Z" stroke="url(#paint5_linear_118_11162)" stroke-width="1.17857" stroke-miterlimit="10"/>
</g>
<g clip-path="url(#clip6_118_11162)">
<path opacity="0.3" d="M420.019 724.782C576.817 724.782 703.927 596.589 703.927 438.456C703.927 280.322 576.817 152.129 420.019 152.129C263.221 152.129 136.111 280.322 136.111 438.456C136.111 596.589 263.221 724.782 420.019 724.782Z" stroke="url(#paint6_linear_118_11162)" stroke-width="1.1964" stroke-miterlimit="10"/>
</g>
<g clip-path="url(#clip7_118_11162)">
<path opacity="0.3" d="M420.021 664.648C543.887 664.648 644.302 563.378 644.302 438.456C644.302 313.533 543.887 212.264 420.021 212.264C296.154 212.264 195.74 313.533 195.74 438.456C195.74 563.378 296.154 664.648 420.021 664.648Z" stroke="url(#paint7_linear_118_11162)" stroke-width="1.27998" stroke-miterlimit="10"/>
</g>
<rect x="363.82" y="390.75" width="112.36" height="112.36" rx="56.18" fill="#12002B" fill-opacity="0.8"/>
<rect x="363.82" y="390.75" width="112.36" height="112.36" rx="56.18" stroke="url(#paint8_linear_118_11162)" stroke-width="3"/>
<path d="M435.36 437.165L449.002 419.626C449.596 418.865 449.055 417.75 448.095 417.75H440.033C439.675 417.75 439.338 417.916 439.12 418.202L422.088 440.447H428.28C431.01 440.447 433.587 439.249 435.36 437.162V437.165Z" fill="#7401E8"/>
<path d="M449.002 475.127L435.36 457.588C433.59 455.501 431.01 454.303 428.28 454.303H422.088L439.12 476.548C439.338 476.834 439.675 477 440.033 477H448.095C449.055 477 449.596 475.885 449.002 475.124V475.127Z" fill="#1F01FF"/>
<path d="M401.746 418.235C401.53 417.934 401.182 417.756 400.812 417.756H391.946C391.009 417.756 390.463 418.823 391.007 419.59L410.579 447.182L390.962 475.165C390.424 475.935 390.971 476.994 391.905 476.994H400.31C400.679 476.994 401.025 476.816 401.244 476.515L413.112 460.073C415.872 456.25 417.332 451.731 417.332 447.006C417.332 442.282 415.867 437.742 413.097 433.915L401.746 418.235Z" fill="#F1F1F1"/>
<rect width="832.229" height="831.909" rx="415.954" transform="matrix(-0.865834 0.50033 -0.49967 -0.866215 987.157 587.222)" fill="url(#paint9_linear_118_11162)"/>
<path d="M418 503.125C418 504.229 418.895 505.125 420 505.125C421.105 505.125 422 504.229 422 503.125C422 502.02 421.105 501.125 420 501.125C418.895 501.125 418 502.02 418 503.125ZM418 557.75C418 558.855 418.895 559.75 420 559.75C421.105 559.75 422 558.855 422 557.75C422 556.645 421.105 555.75 420 555.75C418.895 555.75 418 556.645 418 557.75ZM420 503.125L419.625 503.125L419.625 557.75L420 557.75L420.375 557.75L420.375 503.125L420 503.125Z" fill="url(#paint10_linear_118_11162)"/>
<path d="M471.2 460.482C471.2 461.587 472.096 462.482 473.2 462.482C474.305 462.482 475.2 461.587 475.2 460.482C475.2 459.378 474.305 458.482 473.2 458.482C472.096 458.482 471.2 459.378 471.2 460.482ZM471.2 539.75C471.2 540.855 472.096 541.75 473.2 541.75C474.305 541.75 475.2 540.855 475.2 539.75C475.2 538.645 474.305 537.75 473.2 537.75C472.096 537.75 471.2 538.645 471.2 539.75ZM473.2 460.482L472.825 460.482L472.825 539.75L473.2 539.75L473.575 539.75L473.575 460.482L473.2 460.482Z" fill="url(#paint11_linear_118_11162)"/>
<path d="M364.8 460.482C364.8 461.587 365.695 462.482 366.8 462.482C367.904 462.482 368.8 461.587 368.8 460.482C368.8 459.378 367.904 458.482 366.8 458.482C365.695 458.482 364.8 459.378 364.8 460.482ZM364.8 539.75C364.8 540.855 365.695 541.75 366.8 541.75C367.904 541.75 368.8 540.855 368.8 539.75C368.8 538.645 367.904 537.75 366.8 537.75C365.695 537.75 364.8 538.645 364.8 539.75ZM366.8 460.482L366.425 460.482L366.425 539.75L366.8 539.75L367.175 539.75L367.175 460.482L366.8 460.482Z" fill="url(#paint12_linear_118_11162)"/>
<path d="M471.173 540.125C471.173 541.23 472.068 542.125 473.173 542.125C474.277 542.125 475.173 541.23 475.173 540.125C475.173 539.02 474.277 538.125 473.173 538.125C472.068 538.125 471.173 539.02 471.173 540.125ZM690.75 540.125H691.125V539.75H690.75V540.125ZM688.75 558.71C688.75 559.814 689.646 560.71 690.75 560.71C691.855 560.71 692.75 559.814 692.75 558.71C692.75 557.605 691.855 556.71 690.75 556.71C689.646 556.71 688.75 557.605 688.75 558.71ZM473.173 540.125V540.5H690.75V540.125V539.75H473.173V540.125ZM690.75 540.125H690.375V558.71H690.75H691.125V540.125H690.75Z" fill="url(#paint13_linear_118_11162)"/>
<path d="M369.276 539.75C369.276 540.855 368.38 541.75 367.276 541.75C366.171 541.75 365.276 540.855 365.276 539.75C365.276 538.645 366.171 537.75 367.276 537.75C368.38 537.75 369.276 538.645 369.276 539.75ZM148.5 539.75H148.125V539.375H148.5V539.75ZM150.5 558.231C150.5 559.336 149.605 560.231 148.5 560.231C147.396 560.231 146.5 559.336 146.5 558.231C146.5 557.126 147.396 556.231 148.5 556.231C149.605 556.231 150.5 557.126 150.5 558.231ZM367.276 539.75V540.125H148.5V539.75V539.375H367.276V539.75ZM148.5 539.75H148.875V558.231H148.5H148.125V539.75H148.5Z" fill="url(#paint14_linear_118_11162)"/>
</g>
<defs>
<filter id="filter0_f_118_11162" x="265.05" y="288.109" width="306.9" height="307.173" filterUnits="userSpaceOnUse" color-interpolation-filters="sRGB">
<feFlood flood-opacity="0" result="BackgroundImageFix"/>
<feBlend mode="normal" in="SourceGraphic" in2="BackgroundImageFix" result="shape"/>
<feGaussianBlur stdDeviation="44.85" result="effect1_foregroundBlur_118_11162"/>
</filter>
<linearGradient id="paint0_linear_118_11162" x1="419.999" y1="311.045" x2="419.999" y2="565.792" gradientUnits="userSpaceOnUse">
<stop stop-color="white" stop-opacity="0"/>
<stop offset="0.492" stop-color="white"/>
<stop offset="1" stop-color="white" stop-opacity="0"/>
</linearGradient>
<linearGradient id="paint1_linear_118_11162" x1="419.993" y1="264.345" x2="419.993" y2="612.479" gradientUnits="userSpaceOnUse">
<stop stop-color="white" stop-opacity="0"/>
<stop offset="0.492" stop-color="white"/>
<stop offset="1" stop-color="white" stop-opacity="0"/>
</linearGradient>
<linearGradient id="paint2_linear_118_11162" x1="419.97" y1="106.554" x2="419.97" y2="770.298" gradientUnits="userSpaceOnUse">
<stop stop-color="white" stop-opacity="0"/>
<stop offset="0.492" stop-color="white"/>
<stop offset="1" stop-color="white" stop-opacity="0"/>
</linearGradient>
<linearGradient id="paint3_linear_118_11162" x1="419.966" y1="67.4697" x2="419.966" y2="809.378" gradientUnits="userSpaceOnUse">
<stop stop-color="white" stop-opacity="0"/>
<stop offset="0.492" stop-color="white"/>
<stop offset="1" stop-color="white" stop-opacity="0"/>
</linearGradient>
<linearGradient id="paint4_linear_118_11162" x1="419.89" y1="18.392" x2="419.89" y2="858.447" gradientUnits="userSpaceOnUse">
<stop stop-color="white" stop-opacity="0"/>
<stop offset="0.492" stop-color="white"/>
<stop offset="1" stop-color="white" stop-opacity="0"/>
</linearGradient>
<linearGradient id="paint5_linear_118_11162" x1="420.005" y1="346.271" x2="420.005" y2="530.624" gradientUnits="userSpaceOnUse">
<stop stop-color="white" stop-opacity="0"/>
<stop offset="0.492" stop-color="white"/>
<stop offset="1" stop-color="white" stop-opacity="0"/>
</linearGradient>
<linearGradient id="paint6_linear_118_11162" x1="419.978" y1="151.608" x2="419.978" y2="725.254" gradientUnits="userSpaceOnUse">
<stop stop-color="white" stop-opacity="0"/>
<stop offset="0.492" stop-color="white"/>
<stop offset="1" stop-color="white" stop-opacity="0"/>
</linearGradient>
<linearGradient id="paint7_linear_118_11162" x1="419.988" y1="211.852" x2="419.988" y2="665.021" gradientUnits="userSpaceOnUse">
<stop stop-color="white" stop-opacity="0"/>
<stop offset="0.492" stop-color="white"/>
<stop offset="1" stop-color="white" stop-opacity="0"/>
</linearGradient>
<linearGradient id="paint8_linear_118_11162" x1="360.775" y1="377.979" x2="487.663" y2="378.93" gradientUnits="userSpaceOnUse">
<stop offset="0.129808" stop-color="#7400E8"/>
<stop offset="0.365385" stop-color="#BE67D5"/>
<stop offset="0.629808" stop-color="#BC79FF"/>
<stop offset="1" stop-color="#1E00FF"/>
</linearGradient>
<linearGradient id="paint9_linear_118_11162" x1="832.229" y1="-2.27681e-05" x2="-41.2144" y2="45.7929" gradientUnits="userSpaceOnUse">
<stop offset="0.1323" stop-color="#6366F1" stop-opacity="0.4"/>
<stop offset="0.5" stop-color="#030014" stop-opacity="0"/>
</linearGradient>
<linearGradient id="paint10_linear_118_11162" x1="420.413" y1="503.125" x2="420.413" y2="521.862" gradientUnits="userSpaceOnUse">
<stop stop-color="white" stop-opacity="0.5"/>
<stop offset="1" stop-color="#E4E4E4" stop-opacity="0.2"/>
</linearGradient>
<linearGradient id="paint11_linear_118_11162" x1="473.613" y1="460.482" x2="473.613" y2="487.673" gradientUnits="userSpaceOnUse">
<stop stop-color="white" stop-opacity="0.5"/>
<stop offset="1" stop-color="#E4E4E4" stop-opacity="0.2"/>
</linearGradient>
<linearGradient id="paint12_linear_118_11162" x1="367.213" y1="460.482" x2="367.213" y2="487.673" gradientUnits="userSpaceOnUse">
<stop stop-color="white" stop-opacity="0.5"/>
<stop offset="1" stop-color="#E4E4E4" stop-opacity="0.2"/>
</linearGradient>
<linearGradient id="paint13_linear_118_11162" x1="563.062" y1="540.125" x2="563.062" y2="546.5" gradientUnits="userSpaceOnUse">
<stop stop-color="white" stop-opacity="0.5"/>
<stop offset="1" stop-color="#E4E4E4" stop-opacity="0.2"/>
</linearGradient>
<linearGradient id="paint14_linear_118_11162" x1="276.891" y1="539.75" x2="276.891" y2="546.089" gradientUnits="userSpaceOnUse">
<stop stop-color="white" stop-opacity="0.5"/>
<stop offset="1" stop-color="#E4E4E4" stop-opacity="0.2"/>
</linearGradient>
<clipPath id="clip0_118_11162">
<rect width="840" height="860" fill="white"/>
</clipPath>
<clipPath id="clip1_118_11162">
<rect width="256.2" height="256.2" fill="white" transform="translate(291.9 310.356)"/>
</clipPath>
<clipPath id="clip2_118_11162">
<rect width="658.39" height="665" fill="white" transform="translate(90.8052 105.956)"/>
</clipPath>
<clipPath id="clip3_118_11162">
<rect width="736.709" height="742" fill="white" transform="translate(51.6455 67.4557)"/>
</clipPath>
<clipPath id="clip4_118_11162">
<rect width="833.012" height="840" fill="white" transform="translate(3.49365 18.4558)"/>
</clipPath>
<clipPath id="clip5_118_11162">
<rect width="184.831" height="186.2" fill="white" transform="translate(327.584 345.356)"/>
</clipPath>
<clipPath id="clip6_118_11162">
<rect width="569.831" height="574" fill="white" transform="translate(135.084 151.456)"/>
</clipPath>
<clipPath id="clip7_118_11162">
<rect width="450.539" height="455" fill="white" transform="translate(194.73 210.956)"/>
</clipPath>
</defs>
</svg>
