<svg width="38" height="38" viewBox="0 0 38 38" fill="none" xmlns="http://www.w3.org/2000/svg">
<rect width="38" height="38" rx="10" fill="#1D1C20"/>
<path d="M27.3375 22.3312C27.3375 24.517 29.1102 26.2934 31.2959 26.2934H34V34H26.2934V31.2959C26.2934 29.1102 24.5174 27.3337 22.3312 27.3337C20.1488 27.3337 18.3728 29.1098 18.3728 31.2959V34H10.6662V24.8062H6.47496C5.10791 24.8062 4 23.6983 4 22.3312C4 20.9679 5.11167 19.8563 6.47496 19.8563H10.6662V10.6625H19.8563V6.47496C19.8563 5.10791 20.9679 4 22.3312 4C23.6983 4 24.81 5.10791 24.81 6.47496V10.6625H34V18.3728H31.2959C29.1139 18.3728 27.3375 20.1492 27.3375 22.3312Z" stroke="url(#paint0_linear_1139_79131)" stroke-width="1.5"/>
<defs>
<linearGradient id="paint0_linear_1139_79131" x1="19" y1="4" x2="19" y2="34" gradientUnits="userSpaceOnUse">
<stop stop-color="#D9B4FF"/>
<stop offset="1" stop-color="#AE5FFD"/>
</linearGradient>
</defs>
</svg>
