<svg width="38" height="38" viewBox="0 0 38 38" fill="none" xmlns="http://www.w3.org/2000/svg">
<rect width="38" height="38" rx="10" fill="#1D1C20"/>
<path d="M27.7503 7.0498C29.5174 7.05006 30.9495 8.48289 30.9495 10.25V17.75L30.9446 17.9629C30.8972 18.9579 30.5167 19.9414 29.804 20.7305L29.6468 20.8965L20.8968 29.6465C19.2134 31.3298 16.5166 31.3826 14.7698 29.8047L14.6038 29.6465L8.35379 23.3965C6.6161 21.6586 6.61602 18.8413 8.35379 17.1035L17.1038 8.35352L17.2698 8.19629C18.1149 7.43288 19.1834 7.0498 20.2503 7.0498H27.7503ZM24.0003 12.2002C23.0062 12.2002 22.1995 13.0059 22.1995 14C22.1996 14.994 23.0062 15.7998 24.0003 15.7998C24.9942 15.7996 25.8 14.9939 25.8001 14C25.8001 13.006 24.9942 12.2004 24.0003 12.2002Z" stroke="url(#paint0_linear_1139_79164)" stroke-width="1.4"/>
<defs>
<linearGradient id="paint0_linear_1139_79164" x1="19" y1="7.75" x2="19" y2="30.25" gradientUnits="userSpaceOnUse">
<stop stop-color="#D9B4FF"/>
<stop offset="1" stop-color="#AE5FFD"/>
</linearGradient>
</defs>
</svg>
