<svg width="26" height="27" viewBox="0 0 26 27" fill="none" xmlns="http://www.w3.org/2000/svg">
<path d="M1.01878 17.0684C1.26963 17.5659 1.67098 18.0054 2.02979 18.3983L7.17376 24.0311C7.52911 24.4202 7.93047 24.8597 8.39952 25.1506C9.46767 25.816 10.2309 25.2745 10.5093 25.011L19.6763 16.3358C20.6168 15.4457 21.0931 13.6709 21.1866 12.6598L21.4699 7.61191C21.5014 7.2696 21.4622 6.92537 21.355 6.60125C21.2479 6.27713 21.075 5.98027 20.8475 5.7297C20.62 5.47912 20.3428 5.28035 20.0339 5.14612C19.7249 5.01188 19.3909 4.94515 19.0532 4.95018L14.1369 4.97329C12.9935 5.00125 11.3227 5.46027 10.475 6.26252L1.30798 14.9378C1.03084 15.2001 0.443467 15.9367 1.01878 17.0684ZM14.5831 9.14061C14.9232 9.13669 15.2597 9.20145 15.5732 9.33115C15.8867 9.46085 16.1708 9.65291 16.4093 9.89618L16.4841 9.97559C16.9223 10.4554 17.1642 11.0787 17.1624 11.7423C17.1639 12.0868 17.0979 12.429 16.9683 12.7491C16.8388 13.0691 16.6483 13.3607 16.4079 13.6067C16.1683 13.8532 15.8836 14.0495 15.5702 14.1841C15.2568 14.3186 14.921 14.3888 14.5825 14.3905C13.8914 14.3966 13.2456 14.1297 12.7551 13.6361C12.2688 13.1548 12.0023 12.4892 12.0032 11.7887C12.0029 11.087 12.2706 10.4252 12.7613 9.92327C13.2459 9.42478 13.892 9.1467 14.5831 9.14061Z" fill="url(#paint0_linear_1072_85015)"/>
<defs>
<linearGradient id="paint0_linear_1072_85015" x1="13.1081" y1="0.56749" x2="10.6404" y2="26.4243" gradientUnits="userSpaceOnUse">
<stop stop-color="#D3A8FE"/>
<stop offset="1" stop-color="#BE81FE"/>
</linearGradient>
</defs>
</svg>
