<svg width="26" height="26" viewBox="0 0 26 26" fill="none" xmlns="http://www.w3.org/2000/svg">
<path d="M15.0682 15.3182C15.0682 16.5478 15.5567 17.7271 16.4261 18.5966C17.2956 19.4661 18.4749 19.9545 19.7045 19.9545C20.9342 19.9545 22.1135 19.4661 22.9829 18.5966C23.8524 17.7271 24.3409 16.5478 24.3409 15.3182C24.3409 14.0885 23.8524 12.9093 22.9829 12.0398C22.1135 11.1703 20.9342 10.6818 19.7045 10.6818C18.4749 10.6818 17.2956 11.1703 16.4261 12.0398C15.5567 12.9093 15.0682 14.0885 15.0682 15.3182ZM9.85227 21.1136H1.73864C1.27752 21.1136 0.835292 21.2968 0.509235 21.6229C0.183177 21.9489 0 22.3912 0 22.8523V25.75H11.5909V22.8523C11.5909 22.3912 11.4077 21.9489 11.0817 21.6229C10.7556 21.2968 10.3134 21.1136 9.85227 21.1136ZM23.7614 21.1136H15.6477C15.1866 21.1136 14.7444 21.2968 14.4183 21.6229C14.0923 21.9489 13.9091 22.3912 13.9091 22.8523V25.75H25.5V22.8523C25.5 22.3912 25.3168 21.9489 24.9908 21.6229C24.6647 21.2968 24.2225 21.1136 23.7614 21.1136ZM1.15909 15.3182C1.15909 16.5478 1.64756 17.7271 2.51705 18.5966C3.38654 19.4661 4.56581 19.9545 5.79545 19.9545C7.02509 19.9545 8.20437 19.4661 9.07386 18.5966C9.94335 17.7271 10.4318 16.5478 10.4318 15.3182C10.4318 14.0885 9.94335 12.9093 9.07386 12.0398C8.20437 11.1703 7.02509 10.6818 5.79545 10.6818C4.56581 10.6818 3.38654 11.1703 2.51705 12.0398C1.64756 12.9093 1.15909 14.0885 1.15909 15.3182ZM8.11364 4.88636C8.11364 6.116 8.60211 7.29528 9.4716 8.16477C10.3411 9.03426 11.5204 9.52273 12.75 9.52273C13.9796 9.52273 15.1589 9.03426 16.0284 8.16477C16.8979 7.29528 17.3864 6.116 17.3864 4.88636C17.3864 3.65672 16.8979 2.47745 16.0284 1.60796C15.1589 0.738473 13.9796 0.25 12.75 0.25C11.5204 0.25 10.3411 0.738473 9.4716 1.60796C8.60211 2.47745 8.11364 3.65672 8.11364 4.88636Z" fill="url(#paint0_linear_1072_84781)"/>
<defs>
<linearGradient id="paint0_linear_1072_84781" x1="12.75" y1="0.25" x2="12.75" y2="25.75" gradientUnits="userSpaceOnUse">
<stop stop-color="#D3A8FE"/>
<stop offset="1" stop-color="#BE81FE"/>
</linearGradient>
</defs>
</svg>
