<?xml version="1.0" encoding="UTF-8"?><svg id="Layer_1" xmlns="http://www.w3.org/2000/svg" xmlns:xlink="http://www.w3.org/1999/xlink" viewBox="0 0 24 24"><defs><style>.cls-1{fill:#fff;}.cls-2{filter:url(#drop-shadow-1);}.cls-3{fill-rule:evenodd;}</style><filter id="drop-shadow-1" x="-3.12" y="-3.12" width="36.24" height="36.24" filterUnits="userSpaceOnUse"><feOffset dx="3" dy="3"/><feGaussianBlur result="blur" stdDeviation="2"/><feFlood flood-color="#000" flood-opacity=".1"/><feComposite in2="blur" operator="in"/><feComposite in="SourceGraphic"/></filter></defs><g class="cls-2"><rect class="cls-1" width="24" height="24" rx="5.66" ry="5.66"/><path class="cls-3" d="M15.53,13.22c-.17-.1-1.03-.56-1.19-.62-.16-.07-.28-.1-.4.07-.12.17-.48.56-.59.68-.11.12-.21.13-.39.03-.17-.1-.74-.3-1.4-.94-.51-.49-.85-1.09-.94-1.27-.1-.18,0-.27.09-.36.08-.08.19-.2.28-.3.09-.1.12-.17.19-.29.06-.12.04-.22,0-.31-.04-.09-.36-.98-.5-1.34-.13-.36-.29-.31-.39-.31-.1,0-.22-.02-.34-.03-.12,0-.31.03-.48.2-.17.17-.65.58-.68,1.46-.03.87.57,1.74.66,1.87.08.12,1.16,2.02,2.94,2.8,1.78.78,1.79.54,2.12.52.33-.02,1.07-.39,1.23-.8.16-.41.18-.77.14-.84-.04-.08-.16-.12-.33-.22h0ZM12.26,17.44c-1.18,0-2.27-.35-3.19-.96l-2.23.71.72-2.15c-.69-.96-1.1-2.13-1.1-3.4,0-3.2,2.6-5.8,5.8-5.8s5.8,2.6,5.8,5.8-2.6,5.8-5.8,5.8h0ZM12.26,4.68c-3.85,0-6.96,3.12-6.96,6.96,0,1.32.37,2.55,1,3.6l-1.26,3.74,3.86-1.23c1,.55,2.15.87,3.37.87,3.85,0,6.97-3.12,6.97-6.97s-3.12-6.96-6.97-6.96h0Z"/></g></svg>