<svg width="1440" height="1727" viewBox="0 0 1440 1727" fill="none" xmlns="http://www.w3.org/2000/svg">
<path opacity="0.2" d="M915.133 1065.6C998.307 1065.6 1076.89 1100.45 1130.8 1161.15H1130.8L1547.05 1672.21L1547.93 1673.3V1673.25C1564.32 1695.03 1548.18 1725.97 1519.75 1725.97H1273.76C1262.99 1725.97 1252.86 1721.19 1246.28 1712.99H1246.28L727.26 1065.6H915.133ZM-193.497 0.670898H77.0264C87.9731 0.671009 98.3097 5.64022 104.815 14.0176L105.122 14.4199L105.123 14.4209L451.483 471.336C535.912 582.75 580.602 714.937 580.602 852.49C580.602 988.969 536.784 1119.57 453.898 1230.34L451.934 1232.95L89.7949 1712.04C83.2184 1720.67 72.8157 1725.8 61.6973 1725.8H-194.759C-222.883 1725.8 -239.269 1695.39 -223.121 1673.31L-223.122 1673.31L375.456 857.897L375.675 857.601L375.454 857.304L-221.771 53.3262H-221.771C-238.095 31.3352 -221.71 0.670898 -193.497 0.670898ZM1273.76 0.5H1519.75C1548.45 0.500179 1564.63 32.0311 1547.46 53.8369L1547.05 54.3506L1547.05 54.3516L1131.64 564.382L1130.82 565.311C1076.81 626.019 998.314 660.875 915.133 660.875H727.259L1246.28 13.4814L1246.28 13.4805C1252.86 5.28541 1262.99 0.5 1273.76 0.5Z" stroke="#FAFAFA"/>
</svg>
