<svg width="24" height="24" viewBox="0 0 24 24" fill="none" xmlns="http://www.w3.org/2000/svg">
<g clip-path="url(#clip0_190_20195)">
<path d="M20.4 0H3.6C1.61177 0 0 1.61177 0 3.6V20.4C0 22.3882 1.61177 24 3.6 24H20.4C22.3882 24 24 22.3882 24 20.4V3.6C24 1.61177 22.3882 0 20.4 0Z" fill="#F8F8F8"/>
<path fill-rule="evenodd" clip-rule="evenodd" d="M11.1111 13.2452L11.1107 9.60002L14.5913 11.4289L11.1111 13.2452ZM18.7535 8.96836C18.7535 8.96836 18.6275 8.07439 18.2415 7.68072C17.7515 7.1638 17.2024 7.16136 16.9508 7.13136C15.1481 7 12.444 7 12.444 7H12.4384C12.4384 7 9.73427 7 7.93155 7.13136C7.67954 7.16136 7.13083 7.1638 6.6405 7.68072C6.25443 8.07439 6.12882 8.96836 6.12882 8.96836C6.12882 8.96836 6 10.0184 6 11.0681V12.0525C6 13.1025 6.12882 14.1522 6.12882 14.1522C6.12882 14.1522 6.25443 15.0462 6.6405 15.4398C7.13083 15.9567 7.77454 15.9405 8.06117 15.9945C9.09176 16.0942 12.4412 16.125 12.4412 16.125C12.4412 16.125 15.1481 16.1209 16.9508 15.9896C17.2024 15.9592 17.7515 15.9567 18.2415 15.4398C18.6275 15.0462 18.7535 14.1522 18.7535 14.1522C18.7535 14.1522 18.8824 13.1025 18.8824 12.0525V11.0681C18.8824 10.0184 18.7535 8.96836 18.7535 8.96836Z" fill="#1D1C20"/>
</g>
<defs>
<clipPath id="clip0_190_20195">
<rect width="24" height="24" fill="white"/>
</clipPath>
</defs>
</svg>
