<svg width="383" height="27" viewBox="0 0 383 27" fill="none" xmlns="http://www.w3.org/2000/svg">
<path d="M380.856 19.5025C381.485 19.9462 381.398 20.9045 380.699 21.2275L373.823 24.4061C373.124 24.7291 372.338 24.1746 372.408 23.4079L373.093 15.8639C373.163 15.0972 374.036 14.6934 374.665 15.1371L380.856 19.5025Z" fill="#7400E8"/>
<path d="M0.366933 10.5174C0.100749 10.5909 -0.055459 10.8663 0.0180321 11.1325C0.0915232 11.3986 0.366884 11.5548 0.633067 11.4814L0.366933 10.5174ZM286.248 4.39568L286.246 4.89567L286.248 4.39568ZM379.5 20.0001L374.524 17.0728L374.477 22.8461L379.5 20.0001ZM0.5 10.9994L0.633067 11.4814C1.30248 11.2965 1.96861 11.1143 2.63157 10.9346L2.50078 10.452L2.36999 9.96943C1.70548 10.1495 1.03784 10.3322 0.366933 10.5174L0.5 10.9994ZM6.49366 9.39118L6.61956 9.87508C7.96771 9.52431 9.30346 9.18452 10.628 8.85562L10.5075 8.37036L10.3871 7.88509C9.05874 8.21491 7.71938 8.55563 6.36776 8.9073L6.49366 9.39118ZM14.5274 7.3978L14.642 7.8845C15.9939 7.56623 17.3352 7.25964 18.667 6.96464L18.5589 6.47647L18.4508 5.98831C17.1145 6.28428 15.769 6.59186 14.4128 6.9111L14.5274 7.3978ZM22.6056 5.61008L22.7067 6.09974C24.0639 5.81942 25.4124 5.5514 26.754 5.2956L26.6603 4.80445L26.5666 4.3133C25.22 4.57007 23.8664 4.83909 22.5044 5.12042L22.6056 5.61008ZM30.7321 4.06192L30.8177 4.55453C32.18 4.31762 33.5365 4.09347 34.8886 3.88201L34.8114 3.38801L34.7341 2.89402C33.3762 3.10637 32.0142 3.33145 30.6464 3.56932L30.7321 4.06192ZM38.9053 2.78482L38.9737 3.28011C40.3401 3.09127 41.7038 2.91542 43.0664 2.7525L43.007 2.25604L42.9477 1.75957C41.5789 1.92323 40.2092 2.09985 38.8368 2.28953L38.9053 2.78482ZM47.1192 1.80326L47.1692 2.30075C48.538 2.16302 49.9075 2.03825 51.2793 1.92636L51.2386 1.42801L51.198 0.929667C49.8199 1.04207 48.4442 1.16742 47.0691 1.30577L47.1192 1.80326ZM55.3642 1.13069L55.3954 1.62971C56.7648 1.54399 58.1381 1.47089 59.5171 1.41034L59.4952 0.910823L59.4733 0.411304C58.0881 0.472124 56.7085 0.545551 55.333 0.631665L55.3642 1.13069ZM63.6287 0.767221L63.6416 1.26706C65.0099 1.23194 66.3853 1.20887 67.7693 1.19778L67.7653 0.697796L67.7613 0.197812C66.3714 0.208952 64.9902 0.232117 63.6159 0.267385L63.6287 0.767221ZM71.9009 0.699891L71.8964 1.19987C73.2628 1.21203 74.639 1.23548 76.0263 1.27015L76.0388 0.770309L76.0513 0.270465C74.6587 0.23566 73.2772 0.212117 71.9053 0.19991L71.9009 0.699891ZM80.1705 0.905249L80.1505 1.40485C81.5145 1.45964 82.8903 1.52487 84.2792 1.60046L84.3063 1.1012L84.3335 0.601937C82.94 0.526092 81.5595 0.460641 80.1906 0.405652L80.1705 0.905249ZM88.4317 1.35342L88.3979 1.85228C89.0829 1.89864 89.7713 1.94742 90.4631 1.99861L90.5 1.49997L90.5369 1.00133C89.843 0.949997 89.1526 0.90107 88.4655 0.854561L88.4317 1.35342ZM90.5 1.49997L90.4631 1.99861C91.0987 2.04563 91.7345 2.09813 92.3704 2.15586L92.4156 1.65791L92.4609 1.15996C91.8195 1.10173 91.1782 1.04878 90.5369 1.00133L90.5 1.49997ZM96.2406 2.06594L96.18 2.56225C97.4451 2.71668 98.7108 2.88994 99.9771 3.08018L100.051 2.58573L100.126 2.09128C98.8508 1.89974 97.576 1.72523 96.3012 1.56962L96.2406 2.06594ZM103.847 3.2045L103.76 3.69699C105.017 3.91726 106.274 4.15241 107.531 4.40064L107.628 3.91011L107.725 3.41958C106.461 3.17007 105.197 2.9336 103.933 2.71201L103.847 3.2045ZM111.394 4.69067L111.289 5.17934C112.537 5.4496 113.785 5.73094 115.034 6.02161L115.147 5.53462L115.261 5.04763C114.007 4.75591 112.754 4.47344 111.5 4.20199L111.394 4.69067ZM118.887 6.43076L118.768 6.91628C120.009 7.22171 121.251 7.5346 122.493 7.85321L122.617 7.36889L122.742 6.88457C121.497 6.56526 120.252 6.25156 119.007 5.94524L118.887 6.43076ZM126.34 8.33878L126.212 8.8222C127.45 9.14919 128.688 9.48012 129.926 9.8133L130.056 9.33047L130.186 8.84764C128.947 8.51419 127.707 8.18284 126.467 7.85536L126.34 8.33878ZM133.769 10.3342L133.638 10.8168C134.876 11.1522 136.113 11.4883 137.351 11.8231L137.482 11.3404L137.612 10.8578C136.375 10.5231 135.138 10.1872 133.9 9.85161L133.769 10.3342ZM141.196 12.3396L141.067 12.8227C142.307 13.1539 143.548 13.4822 144.788 13.8059L144.915 13.3221L145.041 12.8383C143.803 12.5152 142.564 12.1874 141.325 11.8565L141.196 12.3396ZM148.64 14.278L148.518 14.7629C149.764 15.0769 151.011 15.3846 152.258 15.684L152.375 15.1978L152.492 14.7116C151.249 14.4132 150.006 14.1064 148.762 13.7932L148.64 14.278ZM156.121 16.0707L156.011 16.5585C157.267 16.8415 158.523 17.1145 159.778 17.3756L159.88 16.8861L159.982 16.3965C158.732 16.1367 157.482 15.8649 156.231 15.5829L156.121 16.0707ZM163.653 17.6327L163.561 18.1241C164.827 18.3615 166.093 18.5849 167.36 18.7926L167.441 18.2992L167.522 17.8058C166.263 17.5994 165.004 17.3773 163.745 17.1412L163.653 17.6327ZM171.244 18.8736L171.176 19.3689C172.453 19.5446 173.731 19.7023 175.008 19.8402L175.062 19.3431L175.115 18.846C173.848 18.7092 172.581 18.5526 171.312 18.3782L171.244 18.8736ZM178.891 19.695L178.854 20.1936C180.139 20.2905 181.425 20.3654 182.711 20.4163L182.731 19.9167L182.75 19.4171C181.477 19.3666 180.203 19.2925 178.929 19.1964L178.891 19.695ZM186.576 19.9952L186.575 20.4952C187.22 20.4957 187.864 20.4897 188.509 20.4769L188.499 19.977L188.489 19.4771C187.851 19.4897 187.214 19.4957 186.576 19.4952L186.576 19.9952ZM188.499 19.977L188.509 20.4769C189.2 20.4632 189.892 20.443 190.583 20.4166L190.564 19.9169L190.545 19.4173C189.86 19.4435 189.174 19.4635 188.489 19.4771L188.499 19.977ZM194.692 19.6876L194.728 20.1863C196.105 20.0865 197.483 19.9644 198.86 19.8221L198.808 19.3248L198.757 18.8274C197.39 18.9687 196.022 19.0899 194.656 19.1889L194.692 19.6876ZM202.914 18.8429L202.979 19.3387C204.347 19.1596 205.715 18.9628 207.083 18.7506L207.006 18.2565L206.929 17.7624C205.569 17.9735 204.209 18.1692 202.849 18.3472L202.914 18.8429ZM211.083 17.5799L211.17 18.0723C212.528 17.833 213.885 17.5806 215.243 17.3173L215.147 16.8265L215.052 16.3356C213.7 16.5979 212.348 16.8493 210.996 17.0875L211.083 17.5799ZM219.2 16.0096L219.302 16.4991C220.651 16.2177 222 15.9276 223.348 15.6308L223.241 15.1425L223.133 14.6542C221.788 14.9502 220.443 15.2396 219.098 15.5202L219.2 16.0096ZM227.274 14.2373L227.386 14.7247C228.729 14.4179 230.073 14.1067 231.416 13.7931L231.302 13.3062L231.188 12.8193C229.846 13.1326 228.504 13.4435 227.163 13.7498L227.274 14.2373ZM235.326 12.3612L235.441 12.8479C236.782 12.5319 238.123 12.2156 239.464 11.901L239.35 11.4142L239.235 10.9275C237.894 11.2422 236.552 11.5586 235.211 11.8746L235.326 12.3612ZM243.375 10.4771L243.488 10.9643C244.831 10.6548 246.173 10.3491 247.516 10.0494L247.407 9.5614L247.298 9.07342C245.953 9.37374 244.608 9.67991 243.263 9.98983L243.375 10.4771ZM251.445 8.67953L251.549 9.16857C252.897 8.88167 254.244 8.60286 255.591 8.33424L255.493 7.8439L255.395 7.35355C254.043 7.62312 252.692 7.90281 251.341 8.1905L251.445 8.67953ZM259.553 7.06689L259.643 7.55874C260.998 7.31113 262.352 7.07598 263.707 6.85541L263.626 6.36191L263.546 5.86841C262.185 6.0901 260.824 6.32637 259.463 6.57504L259.553 7.06689ZM267.712 5.74262L267.782 6.23781C269.145 6.04737 270.507 5.87389 271.87 5.71954L271.813 5.22272L271.757 4.7259C270.385 4.88128 269.014 5.05586 267.643 5.24743L267.712 5.74262ZM275.927 4.81679L275.968 5.31506C277.338 5.20067 278.707 5.10783 280.076 5.03874L280.05 4.53937L280.025 4.04001C278.645 4.10968 277.265 4.20327 275.885 4.31853L275.927 4.81679ZM284.182 4.40487L284.189 4.90482C284.874 4.89516 285.56 4.89202 286.246 4.89567L286.248 4.39568L286.251 3.89569C285.559 3.892 284.867 3.89517 284.174 3.90492L284.182 4.40487ZM286.248 4.39568L286.246 4.89567C286.903 4.89916 287.56 4.90892 288.214 4.9247L288.226 4.42484L288.238 3.92499C287.577 3.90906 286.915 3.89921 286.251 3.89569L286.248 4.39568ZM292.171 4.59163L292.141 5.09073C293.455 5.16971 294.762 5.27134 296.064 5.39349L296.11 4.89567L296.157 4.39786C294.845 4.27471 293.526 4.17221 292.201 4.09254L292.171 4.59163ZM300.037 5.32616L299.975 5.8223C301.28 5.98531 302.579 6.1671 303.873 6.36548L303.949 5.87125L304.025 5.37702C302.722 5.17732 301.413 4.99424 300.099 4.83002L300.037 5.32616ZM307.846 6.51862L307.759 7.01084C309.053 7.24177 310.343 7.48726 311.63 7.74507L311.728 7.25481L311.826 6.76456C310.533 6.50548 309.236 6.25866 307.934 6.02639L307.846 6.51862ZM315.594 8.0662L315.487 8.55464C316.771 8.83573 318.053 9.12694 319.333 9.42603L319.447 8.93915L319.56 8.45227C318.277 8.15225 316.99 7.85998 315.701 7.57776L315.594 8.0662ZM323.288 9.85963L323.17 10.3453C324.447 10.6582 325.724 10.9767 327 11.2986L327.122 10.8137L327.244 10.3289C325.967 10.0067 324.688 9.68758 323.407 9.37398L323.288 9.85963ZM330.951 11.7877L330.827 12.2721C332.102 12.5983 333.378 12.9259 334.654 13.2519L334.778 12.7674L334.902 12.283C333.626 11.9569 332.351 11.6298 331.075 11.3033L330.951 11.7877ZM338.607 13.7392L338.485 14.2241C339.763 14.5454 341.042 14.8631 342.323 15.1749L342.442 14.6891L342.56 14.2033C341.282 13.8922 340.005 13.5751 338.729 13.2543L338.607 13.7392ZM346.285 15.6032L346.172 16.0903C347.457 16.3878 348.744 16.6772 350.034 16.9562L350.14 16.4675L350.246 15.9788C348.96 15.7009 347.678 15.4126 346.398 15.116L346.285 15.6032ZM354.008 17.268L353.911 17.7585C355.205 18.0136 356.503 18.2561 357.806 18.4835L357.892 17.991L357.978 17.4984C356.683 17.2723 355.392 17.0312 354.105 16.7774L354.008 17.268ZM361.792 18.6228L361.718 19.1174C363.022 19.3115 364.331 19.4886 365.646 19.6465L365.706 19.15L365.765 18.6536C364.46 18.4969 363.161 18.3211 361.865 18.1283L361.792 18.6228ZM369.635 19.5603L369.591 20.0584C370.904 20.1744 372.223 20.2694 373.549 20.3411L373.576 19.8419L373.603 19.3426C372.289 19.2715 370.981 19.1773 369.679 19.0623L369.635 19.5603Z" fill="#7400E8"/>
</svg>
