<svg width="382" height="58" viewBox="0 0 382 58" fill="none" xmlns="http://www.w3.org/2000/svg">
<path d="M379.413 49.7693C380.071 50.1697 380.048 51.1317 379.373 51.5009L372.726 55.1338C372.05 55.503 371.228 55.0025 371.246 54.2329L371.424 46.6598C371.442 45.8902 372.286 45.4288 372.944 45.8292L379.413 49.7693Z" fill="#7400E8"/>
<path d="M0.866933 9.5182C0.600749 9.59169 0.444541 9.86706 0.518032 10.1332C0.591523 10.3994 0.866884 10.5556 1.13307 10.4821L0.866933 9.5182ZM89 4.99976L88.9005 5.48976L89 4.99976ZM191.5 49.4998L191.385 49.9863L191.396 49.989L191.408 49.9912L191.5 49.4998ZM282.248 41.3967L282.246 41.8966L282.248 41.3967ZM378 50.5002L373.012 47.5926L372.988 53.366L378 50.5002ZM1 10.0002L1.13307 10.4821C1.7894 10.3009 2.44198 10.1224 3.09096 9.94647L2.96016 9.46388L2.82936 8.98129C2.17882 9.15761 1.52473 9.33659 0.866933 9.5182L1 10.0002ZM6.86961 8.42561L6.99537 8.90953C8.31743 8.56596 9.62512 8.23413 10.9198 7.91421L10.7998 7.42881L10.6799 6.94341C9.38114 7.26434 8.06956 7.59716 6.74385 7.94168L6.86961 8.42561ZM14.7384 6.48339L14.8518 6.97038C16.1776 6.66186 17.4907 6.36655 18.7926 6.08464L18.6868 5.59597L18.5809 5.10729C17.2739 5.39033 15.9558 5.68678 14.6251 5.9964L14.7384 6.48339ZM22.6558 4.77155L22.7532 5.26197C24.0855 4.9974 25.4072 4.74757 26.72 4.51273L26.632 4.02054L26.5439 3.52835C25.2246 3.76436 23.8967 4.01537 22.5584 4.28112L22.6558 4.77155ZM30.6291 3.34789L30.7069 3.84181C32.0452 3.63114 33.3759 3.43668 34.7009 3.25868L34.6343 2.76313L34.5678 2.26759C33.2351 2.44662 31.8969 2.64217 30.5514 2.85397L30.6291 3.34789ZM38.6565 2.27175L38.711 2.76877C40.0534 2.62139 41.3919 2.49143 42.7283 2.37914L42.6864 1.8809L42.6445 1.38265C41.2995 1.49566 39.9526 1.62645 38.6019 1.77474L38.6565 2.27175ZM46.7271 1.59515L46.7557 2.09433C48.0991 2.01737 49.4426 1.9586 50.7881 1.91831L50.7732 1.41853L50.7582 0.918753C49.4035 0.959319 48.0509 1.01849 46.6985 1.09597L46.7271 1.59515ZM54.8224 1.35318L54.8236 1.85318C56.1643 1.85007 57.509 1.86542 58.8597 1.8995L58.8723 1.39966L58.8849 0.899821C57.525 0.865502 56.1711 0.850047 54.8212 0.853179L54.8224 1.35318ZM62.9191 1.5569L62.8929 2.05621C64.2274 2.12612 65.5695 2.21421 66.9212 2.32076L66.9604 1.82231L66.9997 1.32385C65.6395 1.21662 64.2886 1.12795 62.9452 1.05758L62.9191 1.5569ZM70.9932 2.19193L70.9413 2.68924C72.2676 2.82758 73.6044 2.98341 74.9534 3.15697L75.0172 2.66106L75.081 2.16514C73.7242 1.99058 72.3794 1.83382 71.0451 1.69463L70.9932 2.19193ZM79.0258 3.22333L78.9508 3.71768C80.2684 3.91753 81.5988 4.13388 82.9434 4.36695L83.0288 3.8743L83.1142 3.38164C81.7628 3.1474 80.4255 2.92991 79.1008 2.72899L79.0258 3.22333ZM87.0071 4.60449L86.9121 5.09538C87.5713 5.22294 88.234 5.35439 88.9005 5.48976L89 4.99976L89.0995 4.50977C88.4301 4.37379 87.7643 4.24174 87.1021 4.1136L87.0071 4.60449ZM89 4.99976L88.9005 5.48976C89.5554 5.62278 90.2059 5.7632 90.8522 5.91078L90.9635 5.42333L91.0748 4.93587C90.4207 4.78652 89.7624 4.6444 89.0995 4.50977L89 4.99976ZM94.8458 6.40642L94.7118 6.88814C95.9975 7.24561 97.2682 7.63069 98.5264 8.04122L98.6815 7.56588L98.8366 7.09054C97.565 6.67562 96.2801 6.28626 94.9797 5.92469L94.8458 6.40642ZM102.465 8.88783L102.291 9.35643C103.537 9.82044 104.774 10.3082 106.002 10.8175L106.193 10.3556L106.385 9.89374C105.146 9.38004 103.898 8.88776 102.639 8.41923L102.465 8.88783ZM109.87 11.9519L109.663 12.4073C110.873 12.9553 112.076 13.5225 113.277 14.1066L113.495 13.6571L113.714 13.2075C112.507 12.6197 111.295 12.0486 110.076 11.4965L109.87 11.9519ZM117.077 15.4529L116.848 15.8974C118.028 16.5052 119.207 17.1274 120.387 17.7618L120.623 17.3215L120.86 16.8811C119.676 16.2442 118.492 15.6193 117.306 15.0084L117.077 15.4529ZM124.142 19.245L123.899 19.6823C125.059 20.3256 126.221 20.9786 127.389 21.6393L127.635 21.2042L127.881 20.769C126.712 20.1072 125.547 19.4528 124.384 18.8078L124.142 19.245ZM131.117 23.1859L130.869 23.62C132.023 24.2791 133.18 24.9418 134.349 25.6099L134.597 25.1758L134.845 24.7417C133.678 24.0751 132.517 23.41 131.365 22.7518L131.117 23.1859ZM138.081 27.1603L137.834 27.5953C138.989 28.2501 140.155 28.9064 141.332 29.5627L141.575 29.126L141.819 28.6893C140.644 28.0344 139.481 27.3792 138.327 26.7253L138.081 27.1603ZM145.083 31.0594L144.844 31.4986C146.009 32.133 147.187 32.7656 148.38 33.3949L148.613 32.9527L148.846 32.5105C147.658 31.8835 146.484 31.2529 145.322 30.6203L145.083 31.0594ZM152.171 34.7961L151.944 35.2419C153.127 35.8432 154.326 36.4399 155.54 37.0305L155.759 36.5809L155.977 36.1312C154.769 35.5433 153.576 34.9492 152.397 34.3504L152.171 34.7961ZM159.38 38.2991L159.17 38.7529C160.374 39.31 161.595 39.8601 162.834 40.402L163.035 39.9439L163.235 39.4858C162.003 38.9468 160.788 38.3996 159.59 37.8453L159.38 38.2991ZM166.724 41.5093L166.534 41.9717C167.761 42.4761 169.006 42.9716 170.269 43.4571L170.449 42.9904L170.628 42.5236C169.372 42.041 168.134 41.5484 166.915 41.0468L166.724 41.5093ZM174.206 44.3831L174.038 44.854C175.286 45.2997 176.553 45.7351 177.839 46.1593L177.996 45.6844L178.152 45.2096C176.874 44.788 175.615 44.3552 174.374 43.9122L174.206 44.3831ZM181.816 46.8922L181.671 47.3708C182.939 47.7545 184.225 48.1269 185.531 48.4873L185.664 48.0053L185.797 47.5233C184.499 47.1652 183.221 46.795 181.961 46.4137L181.816 46.8922ZM189.539 49.0231L189.418 49.5082C190.069 49.6707 190.724 49.8301 191.385 49.9863L191.5 49.4998L191.615 49.0132C190.959 48.8579 190.307 48.6994 189.66 48.538L189.539 49.0231ZM191.5 49.4998L191.408 49.9912C192.1 50.1209 192.789 50.2413 193.476 50.3525L193.556 49.859L193.636 49.3654C192.957 49.2555 192.276 49.1365 191.592 49.0083L191.5 49.4998ZM197.676 50.423L197.621 50.9199C199.021 51.077 200.412 51.1981 201.794 51.2864L201.826 50.7874L201.858 50.2885C200.491 50.2011 199.117 50.0814 197.732 49.9262L197.676 50.423ZM205.982 50.9572L205.972 51.4571C207.376 51.4827 208.771 51.4769 210.158 51.443L210.146 50.9432L210.134 50.4433C208.76 50.4769 207.379 50.4826 205.991 50.4573L205.982 50.9572ZM214.303 50.7595L214.335 51.2585C215.73 51.1701 217.118 51.0564 218.501 50.9208L218.453 50.4232L218.404 49.9255C217.031 50.0601 215.654 50.1729 214.272 50.2605L214.303 50.7595ZM222.588 49.9539L222.652 50.4499C224.034 50.2729 225.411 50.0774 226.786 49.8669L226.71 49.3727L226.635 48.8784C225.267 49.0878 223.898 49.2821 222.525 49.458L222.588 49.9539ZM230.819 48.7014L230.904 49.1941C232.273 48.9576 233.64 48.7097 235.007 48.454L234.915 47.9625L234.823 47.471C233.46 47.7261 232.097 47.9731 230.734 48.2087L230.819 48.7014ZM239.004 47.1781L239.1 47.6688C240.46 47.4025 241.821 47.132 243.185 46.8609L243.087 46.3705L242.99 45.8801C241.626 46.1512 240.266 46.4215 238.908 46.6874L239.004 47.1781ZM247.171 45.561L247.267 46.0516C248.625 45.7847 249.985 45.5205 251.351 45.2624L251.258 44.7711L251.165 44.2798C249.796 44.5385 248.433 44.8032 247.074 45.0704L247.171 45.561ZM255.353 44.0212L255.44 44.5136C256.799 44.2738 258.164 44.0432 259.536 43.8251L259.458 43.3313L259.379 42.8375C258.001 43.0566 256.63 43.2881 255.266 43.5288L255.353 44.0212ZM263.575 42.7205L263.643 43.2159C265.008 43.0288 266.381 42.8569 267.762 42.7034L267.707 42.2065L267.652 41.7096C266.261 41.8641 264.88 42.037 263.507 42.2251L263.575 42.7205ZM271.849 41.8065L271.889 42.3048C273.259 42.1931 274.639 42.102 276.029 42.0342L276.005 41.5348L275.981 41.0354C274.579 41.1037 273.188 41.1956 271.808 41.3081L271.849 41.8065ZM280.163 41.405L280.169 41.905C280.859 41.8958 281.551 41.8929 282.246 41.8966L282.248 41.3967L282.251 40.8967C281.55 40.8929 280.851 40.8958 280.156 40.9051L280.163 41.405ZM282.248 41.3967L282.246 41.8966C282.913 41.9002 283.58 41.9074 284.247 41.9183L284.255 41.4183L284.263 40.9184C283.593 40.9075 282.922 40.9002 282.251 40.8967L282.248 41.3967ZM288.263 41.5252L288.245 42.0249C289.58 42.0741 290.913 42.1365 292.243 42.2108L292.271 41.7116L292.299 41.2123C290.963 41.1377 289.624 41.075 288.282 41.0256L288.263 41.5252ZM296.274 41.9703L296.237 42.469C297.569 42.5664 298.899 42.6746 300.227 42.7923L300.271 42.2942L300.315 41.7962C298.983 41.6781 297.648 41.5695 296.31 41.4716L296.274 41.9703ZM304.264 42.676L304.214 43.1734C305.543 43.3093 306.87 43.4535 308.196 43.6046L308.252 43.1078L308.309 42.6111C306.98 42.4595 305.648 42.3149 304.315 42.1786L304.264 42.676ZM312.235 43.5821L312.174 44.0783C313.5 44.2425 314.825 44.4124 316.149 44.5867L316.214 44.0909L316.279 43.5952C314.953 43.4206 313.625 43.2504 312.296 43.0859L312.235 43.5821ZM320.189 44.6265L320.121 45.1218C321.445 45.3038 322.769 45.4889 324.092 45.6758L324.162 45.1807L324.232 44.6856C322.908 44.4986 321.583 44.3133 320.257 44.1311L320.189 44.6265ZM328.133 45.7458L328.062 46.2408C329.385 46.43 330.709 46.6198 332.033 46.8087L332.104 46.3138L332.174 45.8188C330.851 45.6299 329.528 45.4402 328.204 45.2508L328.133 45.7458ZM336.075 46.8766L336.006 47.3717C337.33 47.5577 338.655 47.7415 339.981 47.9218L340.048 47.4264L340.116 46.9309C338.792 46.7508 337.468 46.5672 336.145 46.3815L336.075 46.8766ZM344.025 47.9551L343.96 48.451C345.287 48.623 346.615 48.7902 347.944 48.9513L348.005 48.455L348.065 47.9586C346.738 47.7978 345.413 47.631 344.089 47.4593L344.025 47.9551ZM351.989 48.9179L351.934 49.4149C353.263 49.5623 354.595 49.7024 355.929 49.8338L355.978 49.3362L356.027 48.8386C354.698 48.7076 353.37 48.568 352.044 48.421L351.989 48.9179ZM359.973 49.7021L359.931 50.2003C361.264 50.3128 362.599 50.4153 363.937 50.5067L363.972 50.0079L364.006 49.509C362.673 49.418 361.343 49.3159 360.015 49.2039L359.973 49.7021ZM367.976 50.2462L367.95 50.7455C369.287 50.813 370.626 50.8681 371.969 50.9096L371.984 50.4098L371.999 49.91C370.664 49.8688 369.331 49.8139 368.001 49.7468L367.976 50.2462Z" fill="#7400E8"/>
</svg>
