<svg width="201" height="221" viewBox="0 0 201 221" fill="none" xmlns="http://www.w3.org/2000/svg">
<path d="M12.4577 215.568C12.5116 216.336 11.7141 216.875 11.0221 216.537L4.21255 213.219C3.52055 212.882 3.45313 211.922 4.09118 211.491L10.3699 207.253C11.008 206.822 11.873 207.244 11.9269 208.012L12.4577 215.568Z" fill="#7400E8"/>
<path d="M200.498 0.456169C200.474 0.18109 200.231 -0.0222821 199.956 0.00192484C199.681 0.0261318 199.478 0.268751 199.502 0.543831L200.498 0.456169ZM59.5 158.5L59.0011 158.466L59.0005 158.477L59.5 158.5ZM6 212L11.0399 214.816L10.9591 209.044L6 212ZM11.7454 211.753L11.7891 212.252C13.096 212.137 14.3705 211.983 15.6131 211.793L15.5375 211.299L15.4618 210.804C14.2407 210.991 12.9875 211.142 11.7016 211.255L11.7454 211.753ZM19.2886 210.593L19.3982 211.08C20.6759 210.793 21.9168 210.466 23.1218 210.1L22.9767 209.621L22.8315 209.143C21.6501 209.501 20.4329 209.823 19.179 210.105L19.2886 210.593ZM26.5933 208.37L26.7752 208.836C27.9958 208.359 29.1756 207.841 30.3156 207.287L30.0968 206.837L29.878 206.387C28.7621 206.931 27.6069 207.437 26.4114 207.904L26.5933 208.37ZM33.4582 205.027L33.7133 205.457C34.8351 204.791 35.9136 204.088 36.95 203.351L36.6602 202.944L36.3705 202.536C35.3563 203.257 34.301 203.945 33.2032 204.597L33.4582 205.027ZM39.6827 200.601L40.0048 200.984C40.998 200.147 41.9468 199.278 42.8527 198.381L42.501 198.026L42.1493 197.67C41.2619 198.549 40.3327 199.4 39.3605 200.219L39.6827 200.601ZM45.1129 195.232L45.4909 195.559C46.3394 194.579 47.1436 193.575 47.9054 192.552L47.5044 192.253L47.1033 191.954C46.3556 192.959 45.5667 193.944 44.7349 194.905L45.1129 195.232ZM49.6779 189.108L50.0989 189.378C50.7984 188.286 51.4546 187.18 52.0694 186.065L51.6316 185.824L51.1937 185.583C50.5891 186.679 49.9442 187.766 49.257 188.838L49.6779 189.108ZM53.3713 182.418L53.8234 182.632C54.378 181.457 54.8899 180.279 55.3613 179.104L54.8972 178.918L54.4331 178.732C53.9689 179.889 53.465 181.049 52.9192 182.205L53.3713 182.418ZM56.218 175.326L56.6921 175.485C57.1082 174.244 57.4808 173.014 57.8125 171.801L57.3302 171.67L56.848 171.538C56.5211 172.732 56.154 173.944 55.744 175.167L56.218 175.326ZM58.233 167.961L58.722 168.066C58.9996 166.766 59.2297 165.498 59.416 164.272L58.9217 164.197L58.4273 164.122C58.2441 165.328 58.0175 166.576 57.744 167.857L58.233 167.961ZM59.374 160.403L59.8722 160.445C59.9283 159.785 59.9705 159.144 59.9995 158.523L59.5 158.5L59.0005 158.477C58.9722 159.084 58.9308 159.713 58.8758 160.36L59.374 160.403ZM59.5 158.5L59.9988 158.534C60.0435 157.881 60.0994 157.211 60.1667 156.523L59.6691 156.475L59.1715 156.426C59.1032 157.123 59.0466 157.803 59.0012 158.466L59.5 158.5ZM60.1739 152.432L60.6683 152.506C60.8639 151.208 61.0971 149.868 61.3704 148.494L60.88 148.397L60.3896 148.299C60.1133 149.688 59.8774 151.044 59.6794 152.357L60.1739 152.432ZM61.762 144.423L62.2476 144.542C62.5633 143.254 62.9131 141.943 63.2989 140.617L62.8188 140.477L62.3387 140.337C61.9489 141.678 61.5953 143.002 61.2763 144.304L61.762 144.423ZM64.0432 136.579L64.5169 136.739C64.9436 135.475 65.4031 134.203 65.8966 132.925L65.4303 132.745L64.9639 132.565C64.465 133.856 64.0007 135.142 63.5695 136.419L64.0432 136.579ZM66.9848 128.971L67.4428 129.171C67.981 127.943 68.5518 126.714 69.1564 125.489L68.708 125.268L68.2597 125.046C67.6482 126.285 67.071 127.528 66.5268 128.77L66.9848 128.971ZM70.6016 121.648L71.039 121.891C71.6896 120.716 72.3728 119.55 73.0899 118.394L72.665 118.13L72.2401 117.867C71.5141 119.037 70.8225 120.218 70.1643 121.406L70.6016 121.648ZM74.9039 114.719L75.3147 115.004C76.0812 113.9 76.8809 112.81 77.715 111.737L77.3202 111.43L76.9255 111.123C76.0801 112.211 75.2697 113.315 74.4932 114.434L74.9039 114.719ZM79.9144 108.279L80.2913 108.608C81.1743 107.595 82.0911 106.602 83.0426 105.632L82.6857 105.282L82.3287 104.932C81.3632 105.916 80.4332 106.923 79.5376 107.95L79.9144 108.279ZM85.6311 102.455L85.9661 102.826C86.9621 101.927 87.992 101.052 89.0567 100.205L88.7454 99.8142L88.4342 99.4228C87.3529 100.283 86.3071 101.171 85.296 102.084L85.6311 102.455ZM92.0173 97.3774L92.303 97.7877C93.4006 97.0236 94.5317 96.2879 95.697 95.5835L95.4384 95.1556L95.1797 94.7277C93.9957 95.4434 92.8466 96.1907 91.7317 96.967L92.0173 97.3774ZM98.9958 93.1591L99.2263 93.6029C100.41 92.9878 101.627 92.4038 102.876 91.8533L102.675 91.3957L102.473 90.9382C101.204 91.4974 99.9683 92.0906 98.7654 92.7154L98.9958 93.1591ZM106.459 89.8695L106.631 90.3388C107.882 89.8796 109.163 89.4527 110.475 89.0601L110.332 88.581L110.188 88.102C108.857 88.5005 107.556 88.9339 106.287 89.4001L106.459 89.8695ZM114.277 87.5276L114.392 88.0142C115.688 87.7086 117.013 87.4352 118.367 87.1959L118.28 86.7035L118.193 86.2111C116.82 86.4537 115.477 86.7309 114.162 87.0409L114.277 87.5276ZM122.312 86.1028L122.372 86.5991C123.689 86.4386 125.031 86.3091 126.4 86.2122L126.365 85.7135L126.329 85.2147C124.944 85.3128 123.585 85.4438 122.251 85.6064L122.312 86.1028ZM130.434 85.5237L130.445 86.0235C131.124 86.0079 131.809 86 132.5 86V85.5V85C131.801 85 131.109 85.008 130.422 85.0238L130.434 85.5237ZM132.5 85.5V86C133.191 86 133.876 85.9897 134.555 85.9694L134.54 85.4696L134.525 84.9698C133.856 84.9899 133.181 85 132.5 85V85.5ZM138.551 85.2262L138.597 85.7241C139.963 85.5982 141.302 85.4303 142.615 85.2223L142.537 84.7285L142.459 84.2346C141.167 84.4392 139.85 84.6044 138.505 84.7283L138.551 85.2262ZM146.491 83.9632L146.603 84.4506C147.943 84.1432 149.252 83.7927 150.533 83.4014L150.387 82.9232L150.241 82.4451C148.983 82.8294 147.696 83.1738 146.38 83.4759L146.491 83.9632ZM154.195 81.6082L154.375 82.0746C155.651 81.5816 156.896 81.047 158.11 80.4733L157.896 80.0212L157.683 79.5691C156.491 80.1326 155.268 80.6577 154.015 81.1418L154.195 81.6082ZM161.472 78.1703L161.718 78.6058C162.904 77.9363 164.059 77.2284 165.182 76.4853L164.906 76.0683L164.63 75.6513C163.526 76.3817 162.392 77.0772 161.226 77.7348L161.472 78.1703ZM168.185 73.7318L168.489 74.1288C169.568 73.3036 170.614 72.4449 171.63 71.556L171.3 71.1798L170.971 70.8036C169.972 71.6784 168.942 72.5231 167.882 73.3347L168.185 73.7318ZM174.245 68.4327L174.597 68.7875C175.559 67.8329 176.49 66.8507 177.39 65.8443L177.017 65.511L176.644 65.1776C175.757 66.1698 174.84 67.1376 173.893 68.0779L174.245 68.4327ZM179.617 62.4343L180.007 62.7463C180.852 61.6885 181.667 60.6094 182.453 59.5123L182.046 59.2212L181.639 58.9301C180.864 60.0135 180.059 61.0786 179.226 62.1223L179.617 62.4343ZM184.309 55.8884L184.729 56.1591C185.462 55.0206 186.166 53.8671 186.842 52.7019L186.41 52.451L185.977 52.2001C185.309 53.3523 184.613 54.4926 183.888 55.6177L184.309 55.8884ZM188.354 48.9222L188.797 49.1539C189.425 47.9523 190.025 46.7421 190.598 45.5268L190.146 45.3136L189.693 45.1005C189.126 46.3037 188.532 47.5015 187.911 48.6905L188.354 48.9222ZM191.79 41.6354L192.251 41.8305C192.781 40.5788 193.283 39.3253 193.758 38.0738L193.291 37.8964L192.824 37.7189C192.353 38.9589 191.855 40.2006 191.33 41.4403L191.79 41.6354ZM194.651 34.1042L195.125 34.2644C195.562 32.9718 195.971 31.6853 196.352 30.4092L195.872 30.2662L195.393 30.1231C195.016 31.388 194.611 32.663 194.177 33.9441L194.651 34.1042ZM196.955 26.389L197.439 26.5149C197.784 25.1869 198.099 23.8753 198.385 22.5851L197.897 22.4769L197.409 22.3686C197.126 23.6471 196.813 24.947 196.471 26.2632L196.955 26.389ZM198.698 18.5182L199.19 18.608C199.44 17.2392 199.656 15.9026 199.839 14.6051L199.344 14.5351L198.849 14.4652C198.668 15.7492 198.454 17.0725 198.206 18.4283L198.698 18.5182ZM199.819 10.5445L200.317 10.5921C200.452 9.17255 200.545 7.81631 200.597 6.53433L200.097 6.51413L199.598 6.49394C199.547 7.75644 199.455 9.09441 199.321 10.497L199.819 10.5445ZM200.12 2.50678L200.619 2.4897C200.595 1.77507 200.554 1.09619 200.498 0.456169L200 0.5L199.502 0.543831C199.557 1.16433 199.596 1.82528 199.62 2.52385L200.12 2.50678Z" fill="#7400E8"/>
</svg>
