<svg width="385" height="49" viewBox="0 0 385 49" fill="none" xmlns="http://www.w3.org/2000/svg">
<path d="M3.15251 13.5372C2.81459 13.4104 2.72398 12.9849 2.95916 12.7308L3.01056 12.6827L8.8618 7.87165C9.15907 7.62729 9.60944 7.7959 9.67256 8.17552L10.9139 15.6483C10.977 16.028 10.6053 16.3331 10.245 16.198L3.15251 13.5372Z" fill="#7400E8" stroke="#7400E8"/>
<path d="M4.99994 13.2095L10.4453 15.1283L9.38433 9.45309L4.99994 13.2095ZM188.825 31.6593L188.857 31.1604L188.825 31.6593ZM287.541 24.3934L287.496 24.8914L287.496 24.8914L287.541 24.3934ZM383.585 48.6771C383.86 48.7 384.102 48.4955 384.125 48.2203C384.148 47.9452 383.943 47.7035 383.668 47.6805L383.585 48.6771ZM10.9294 12.1024L11.0209 12.5939C12.356 12.3455 13.674 12.1013 14.9765 11.8618L14.8861 11.3701L14.7957 10.8783C13.4922 11.118 12.1735 11.3623 10.838 11.6108L10.9294 12.1024ZM18.8415 10.6496L18.9302 11.1417C20.2619 10.9018 21.5783 10.6676 22.8812 10.4399L22.7951 9.94739L22.709 9.45485C21.4041 9.68291 20.086 9.91735 18.7529 10.1575L18.8415 10.6496ZM26.7614 9.26794L26.844 9.76106C28.176 9.53794 29.4952 9.3225 30.8036 9.11545L30.7255 8.62159L30.6473 8.12774C29.3356 8.33531 28.0134 8.55124 26.6788 8.77481L26.7614 9.26794ZM34.7019 8.01428L34.7745 8.50897C36.1072 8.31326 37.4304 8.1273 38.7465 7.95186L38.6805 7.45624L38.6144 6.96062C37.2936 7.1367 35.9659 7.32328 34.6292 7.51958L34.7019 8.01428ZM42.6705 6.95501L42.7289 7.45158C44.0619 7.29484 45.3898 7.14992 46.7148 7.01765L46.6652 6.52012L46.6155 6.02259C45.2843 6.15548 43.9506 6.30104 42.6122 6.45843L42.6705 6.95501ZM50.6695 6.15918L50.7094 6.65758C52.0421 6.55075 53.3744 6.45763 54.7087 6.37908L54.6793 5.87994L54.6499 5.38081C53.3083 5.45979 51.969 5.55341 50.6295 5.66078L50.6695 6.15918ZM58.694 5.68857L58.7122 6.18824C60.0426 6.13998 61.3774 6.10689 62.7189 6.08983L62.7126 5.58987L62.7062 5.08991C61.3567 5.10708 60.014 5.14036 58.6759 5.1889L58.694 5.68857ZM66.7319 5.58707L66.7262 6.08704C68.0522 6.10215 69.3869 6.13334 70.7324 6.18139L70.7503 5.68171L70.7681 5.18203C69.4144 5.13369 68.0716 5.10231 66.7376 5.08711L66.7319 5.58707ZM74.7651 5.87365L74.7352 6.37275C76.0552 6.45177 77.3873 6.54717 78.7336 6.65966L78.7752 6.16139L78.8169 5.66313C77.4628 5.54999 76.1228 5.45402 74.795 5.37454L74.7651 5.87365ZM82.7746 6.54176L82.7217 7.03895C84.0356 7.17891 85.3642 7.33509 86.7092 7.50811L86.773 7.01219L86.8367 6.51628C85.4846 6.34235 84.1488 6.18531 82.8276 6.04457L82.7746 6.54176ZM90.7479 7.56562L90.6739 8.06011C91.3326 8.15868 91.9954 8.26123 92.6626 8.36783L92.7415 7.87409L92.8204 7.38036C92.15 7.27324 91.4839 7.17019 90.8219 7.07112L90.7479 7.56562ZM92.7415 7.87409L92.6626 8.36783C93.3397 8.47603 94.0165 8.58927 94.693 8.7073L94.7789 8.21474L94.8649 7.72218C94.1838 7.60335 93.5023 7.48933 92.8204 7.38036L92.7415 7.87409ZM98.8406 8.9798L98.7417 9.46992C100.086 9.74114 101.429 10.0295 102.77 10.333L102.881 9.84537L102.991 9.35769C101.642 9.05251 100.292 8.76253 98.9395 8.48968L98.8406 8.9798ZM106.902 10.7994L106.782 11.2848C108.114 11.615 109.445 11.9583 110.776 12.3131L110.905 11.83L111.033 11.3468C109.698 10.9907 108.36 10.6458 107.022 10.3141L106.902 10.7994ZM114.889 12.9247L114.753 13.4059C116.075 13.7793 117.396 14.1622 118.717 14.5525L118.859 14.073L119.001 13.5935C117.676 13.2022 116.351 12.8182 115.025 12.4436L114.889 12.9247ZM122.817 15.2638L122.671 15.742C123.986 16.144 125.3 16.5517 126.615 16.9632L126.764 16.4861L126.914 16.0089C125.597 15.5968 124.281 15.1884 122.963 14.7856L122.817 15.2638ZM130.705 17.7298L130.554 18.2064C131.866 18.6231 133.179 19.0419 134.491 19.461L134.643 18.9847L134.795 18.5084C133.483 18.0893 132.17 17.6703 130.857 17.2533L130.705 17.7298ZM138.58 20.2406L138.429 20.7171C139.742 21.1351 141.056 21.5515 142.371 21.9645L142.521 21.4875L142.671 21.0105C141.358 20.5979 140.045 20.1819 138.732 19.7642L138.58 20.2406ZM146.467 22.7149L146.32 23.1929C147.639 23.5984 148.959 23.9988 150.279 24.3922L150.422 23.913L150.565 23.4338C149.247 23.0414 147.93 22.6419 146.614 22.237L146.467 22.7149ZM154.39 25.0707L154.252 25.5515C155.581 25.9306 156.91 26.3007 158.24 26.66L158.371 26.1773L158.501 25.6946C157.176 25.3366 155.851 24.9678 154.527 24.5899L154.39 25.0707ZM162.37 27.2218L162.248 27.7066C163.588 28.0444 164.931 28.3693 166.274 28.6795L166.387 28.1923L166.499 27.7051C165.163 27.3965 163.827 27.0732 162.492 26.7369L162.37 27.2218ZM170.423 29.0768L170.322 29.5665C171.677 29.8469 173.033 30.1105 174.392 30.3554L174.48 29.8633L174.569 29.3713C173.22 29.128 171.871 28.866 170.524 28.5872L170.423 29.0768ZM178.557 30.5389L178.483 31.0333C179.851 31.2395 181.221 31.4249 182.594 31.5874L182.652 31.0908L182.711 30.5943C181.35 30.4331 179.99 30.2492 178.632 30.0445L178.557 30.5389ZM186.764 31.5065L186.722 32.0048C187.412 32.0622 188.102 32.1135 188.792 32.1583L188.825 31.6593L188.857 31.1604C188.173 31.116 187.489 31.0652 186.805 31.0082L186.764 31.5065ZM188.825 31.6593L188.792 32.1583C189.483 32.203 190.173 32.2414 190.865 32.2735L190.888 31.774L190.911 31.2745C190.226 31.2427 189.541 31.2047 188.857 31.1604L188.825 31.6593ZM195.02 31.8942L195.014 32.3942C196.395 32.4112 197.778 32.4059 199.162 32.3805L199.153 31.8806L199.143 31.3806C197.769 31.4059 196.396 31.4111 195.026 31.3943L195.02 31.8942ZM203.284 31.7473L203.307 32.2468C204.685 32.184 206.065 32.1035 207.446 32.0076L207.411 31.5088L207.376 31.01C206.003 31.1054 204.631 31.1854 203.261 31.2479L203.284 31.7473ZM211.531 31.1791L211.575 31.6771C212.949 31.5534 214.323 31.4166 215.698 31.2689L215.644 30.7718L215.591 30.2747C214.221 30.4218 212.853 30.558 211.486 30.6811L211.531 31.1791ZM219.751 30.3003L219.812 30.7967C221.18 30.6303 222.548 30.4551 223.917 30.2734L223.851 29.7778L223.785 29.2821C222.42 29.4634 221.055 29.6381 219.691 29.804L219.751 30.3003ZM227.946 29.2166L228.016 29.7117C229.381 29.5195 230.746 29.3229 232.111 29.1239L232.038 28.6291L231.966 28.1344C230.603 28.3332 229.239 28.5296 227.877 28.7215L227.946 29.2166ZM236.128 28.0276L236.201 28.5222C237.564 28.3207 238.927 28.1188 240.29 27.9187L240.217 27.424L240.145 26.9293C238.781 27.1295 237.418 27.3315 236.055 27.533L236.128 28.0276ZM244.308 26.8303L244.378 27.3253C245.743 27.1304 247.106 26.9392 248.469 26.754L248.402 26.2586L248.335 25.7631C246.969 25.9487 245.603 26.1402 244.237 26.3354L244.308 26.8303ZM252.501 25.7211L252.563 26.2172C253.93 26.0452 255.296 25.8812 256.66 25.7273L256.604 25.2305L256.548 24.7336C255.179 24.888 253.809 25.0525 252.438 25.225L252.501 25.7211ZM260.716 24.7993L260.764 25.297C262.135 25.1648 263.504 25.0449 264.872 24.9396L264.834 24.4411L264.796 23.9425C263.421 24.0484 262.045 24.1688 260.668 24.3017L260.716 24.7993ZM268.958 24.1693L268.985 24.6685C270.359 24.5939 271.732 24.5362 273.102 24.4975L273.088 23.9977L273.074 23.4979C271.694 23.5369 270.313 23.595 268.931 23.67L268.958 24.1693ZM277.221 23.9408L277.22 24.4408C278.595 24.4426 279.966 24.4657 281.336 24.5125L281.353 24.0128L281.37 23.5131C279.989 23.4659 278.606 23.4426 277.222 23.4408L277.221 23.9408ZM285.481 24.2279L285.446 24.7267C286.13 24.775 286.813 24.8298 287.496 24.8914L287.541 24.3934L287.586 23.8954C286.897 23.8332 286.207 23.7779 285.516 23.7291L285.481 24.2279ZM287.541 24.3934L287.496 24.8914C288.179 24.9529 288.861 25.0212 289.543 25.0961L289.598 24.5991L289.652 24.102C288.964 24.0265 288.275 23.9575 287.586 23.8954L287.541 24.3934ZM293.698 25.1255L293.626 25.6203C294.982 25.819 296.336 26.0412 297.689 26.2847L297.777 25.7927L297.866 25.3006C296.503 25.0552 295.138 24.8312 293.771 24.6308L293.698 25.1255ZM301.835 26.5853L301.732 27.0746C303.074 27.3567 304.415 27.6575 305.754 27.9749L305.87 27.4884L305.985 27.0019C304.638 26.6826 303.289 26.3799 301.938 26.096L301.835 26.5853ZM309.881 28.4867L309.755 28.9706C311.083 29.3163 312.41 29.6761 313.737 30.0479L313.871 29.5664L314.006 29.085C312.674 28.7117 311.341 28.3502 310.007 28.0028L309.881 28.4867ZM317.844 30.7137L317.702 31.193C319.019 31.5839 320.335 31.9845 321.651 32.3924L321.799 31.9149L321.947 31.4373C320.628 31.0283 319.307 30.6266 317.986 30.2344L317.844 30.7137ZM325.742 33.1576L325.59 33.6339C326.9 34.053 328.211 34.4774 329.521 34.9048L329.676 34.4295L329.831 33.9542C328.52 33.5262 327.207 33.1013 325.895 32.6814L325.742 33.1576ZM333.604 35.7181L333.448 36.193C334.756 36.6239 336.066 37.056 337.375 37.4867L337.531 37.0117L337.687 36.5368C336.378 36.1061 335.07 35.6744 333.761 35.2432L333.604 35.7181ZM341.46 38.2983L341.305 38.7738C342.617 39.2008 343.93 39.6244 345.244 40.0426L345.395 39.5662L345.547 39.0897C344.236 38.6723 342.925 38.2493 341.615 37.8229L341.46 38.2983ZM349.34 40.8028L349.193 41.2807C350.513 41.6874 351.835 42.0863 353.157 42.4754L353.298 41.9958L353.439 41.5161C352.121 41.1283 350.804 40.7306 349.487 40.325L349.34 40.8028ZM357.273 43.1326L357.14 43.6145C358.473 43.9839 359.807 44.3412 361.143 44.684L361.268 44.1996L361.392 43.7153C360.063 43.3743 358.734 43.0187 357.407 42.6508L357.273 43.1326ZM365.282 45.1829L365.169 45.6698C366.518 45.9836 367.868 46.2805 369.22 46.5582L369.321 46.0684L369.422 45.5786C368.078 45.3028 366.736 45.0078 365.396 44.6959L365.282 45.1829ZM373.382 46.841L373.296 47.3335C374.66 47.5717 376.027 47.7882 377.396 47.9806L377.465 47.4854L377.535 46.9903C376.178 46.7995 374.822 46.5848 373.468 46.3484L373.382 46.841ZM381.569 47.9867L381.517 48.484C382.206 48.5551 382.895 48.6196 383.585 48.6771L383.627 48.1788L383.668 47.6805C382.985 47.6236 382.302 47.5598 381.62 47.4893L381.569 47.9867Z" fill="#7400E8"/>
</svg>
